<svg width="31" height="30" viewBox="0 0 31 30" fill="none" xmlns="http://www.w3.org/2000/svg">
<path fill-rule="evenodd" clip-rule="evenodd" d="M16.2264 0.0843506C9.3412 0.0843506 3.56267 4.89688 2.06744 11.3335C1.12473 11.5502 0.414612 12.3948 0.414612 13.4003V15.8465C0.414612 16.8526 1.12473 17.6972 2.06726 17.9135C3.37491 23.5424 7.9582 27.9251 13.6933 28.9371C13.8446 29.3185 14.2157 29.5906 14.6491 29.5906H16.7092C17.2757 29.5906 17.7391 29.1272 17.7391 28.5607C17.7391 27.9942 17.2757 27.5306 16.7092 27.5306H14.6491C14.2921 27.5306 13.9766 27.7154 13.7914 27.9935C8.53102 27.0378 4.31655 23.0472 3.03661 17.9056C3.96591 17.6792 4.66349 16.8431 4.66349 15.8465V13.4003C4.66349 12.4041 3.96591 11.5678 3.03661 11.3414C4.50891 5.42718 9.86285 1.03076 16.2264 1.03076C23.7214 1.03076 30.1494 6.32453 30.2854 13.8184C30.3426 16.9722 30.3583 14.7184 30.3777 14.4575C30.9753 6.40606 24.2434 0.0843506 16.2264 0.0843506Z" fill="#5F5F5F"/>
<path d="M9.50213 11.792H8.37394L6.74716 12.8371V13.9238L8.27806 12.9458H8.31641V18.3375H9.50213V11.792Z" fill="#5F5F5F"/>
<path d="M13.4396 18.4269C14.8235 18.4269 15.7887 17.4873 15.7887 16.1865C15.7887 14.9273 14.913 14.0196 13.7241 14.0196C13.1935 14.0196 12.7237 14.2306 12.4808 14.5182H12.4425L12.631 12.7828H15.4467V11.792H11.6499L11.3079 15.167L12.3786 15.3428C12.5991 15.0999 13.0146 14.9369 13.4077 14.9401C14.1268 14.9433 14.6445 15.4738 14.6413 16.2153C14.6445 16.9472 14.1396 17.4681 13.4396 17.4681C12.8484 17.4681 12.3722 17.0942 12.3306 16.5573H11.18C11.212 17.6439 12.1612 18.4269 13.4396 18.4269Z" fill="#5F5F5F"/>
<path d="M16.7411 17.123H19.8636V18.3375H20.995V17.123H21.8324V16.1482H20.995V11.792H19.5185L16.7411 16.1801V17.123ZM19.8764 16.1482H17.9556V16.097L19.8253 13.1343H19.8764V16.1482Z" fill="#5F5F5F"/>
<path d="M22.8535 18.3375H27.3407V17.3467H24.4899V17.3019L25.6181 16.1546C26.8901 14.9337 27.2417 14.3392 27.2417 13.601C27.2417 12.5047 26.35 11.7025 25.0332 11.7025C23.7356 11.7025 22.8152 12.5079 22.8152 13.7512H23.9434C23.9434 13.0832 24.3652 12.6645 25.0172 12.6645C25.6405 12.6645 26.1039 13.0448 26.1039 13.6617C26.1039 14.2082 25.7715 14.5981 25.1259 15.2533L22.8535 17.4809V18.3375Z" fill="#5F5F5F"/>
</svg>
