<svg width="18" height="18" viewBox="0 0 18 18" fill="none" xmlns="http://www.w3.org/2000/svg">
<path d="M8.96368 0.666718C11.303 0.660624 13.5526 1.53426 15.2346 3.10199V0.666679C15.2346 0.298476 15.5441 0 15.926 0C16.3078 0 16.6173 0.298476 16.6173 0.666679V4.66667C16.6174 4.95374 16.4269 5.20862 16.1444 5.29933L11.9961 6.63265C11.6334 6.74901 11.2415 6.55975 11.1209 6.20999C11.0002 5.86022 11.1964 5.48233 11.5592 5.36601L14.622 4.38335C11.7927 1.41246 7.0014 1.21566 3.92038 3.94382C0.839367 6.67198 0.635276 11.292 3.46456 14.2629C6.29384 17.2338 11.0851 17.4306 14.1661 14.7024C16.0551 13.0299 16.9379 10.5492 16.5122 8.11065C16.4452 7.74815 16.6956 7.40198 17.0715 7.33737C17.4474 7.27276 17.8065 7.51428 17.8735 7.87674C17.8742 7.88069 17.8749 7.88467 17.8756 7.88862C17.9583 8.36604 18 8.84924 18 9.33327C17.9944 14.1175 13.9737 17.9945 9.01217 18C4.04831 18.0129 0.0134416 14.1432 3.26368e-05 9.35674C-0.0133358 4.5703 3.99978 0.679647 8.96368 0.666718Z" fill="#4E5D78"/>
</svg>
