<svg width="18" height="18" viewBox="0 0 18 18" fill="none" xmlns="http://www.w3.org/2000/svg">
<path d="M12.5774 6.74404L9.83329 9.48812V1.49996C9.83329 1.03972 9.4602 0.666626 8.99996 0.666626C8.53972 0.666626 8.16663 1.03972 8.16663 1.49996V9.48812L5.42255 6.74404C5.09711 6.4186 4.56947 6.4186 4.24404 6.74404C3.9186 7.06947 3.9186 7.59711 4.24404 7.92255L8.41011 12.0886L8.41617 12.0946C8.49479 12.1718 8.58492 12.2303 8.68097 12.2701C8.77923 12.3108 8.88697 12.3333 8.99996 12.3333C9.22731 12.3333 9.4334 12.2422 9.58375 12.0946L9.58981 12.0886L13.7559 7.92255C14.0813 7.59711 14.0813 7.06947 13.7559 6.74404C13.4304 6.4186 12.9028 6.4186 12.5774 6.74404Z" fill="white"/>
<path d="M16.5 11.5C16.0397 11.5 15.6666 11.8731 15.6666 12.3333V15.25C15.6666 15.4801 15.4801 15.6666 15.25 15.6666H2.74996C2.51984 15.6666 2.33329 15.4801 2.33329 15.25V12.3333C2.33329 11.8731 1.9602 11.5 1.49996 11.5C1.03972 11.5 0.666626 11.8731 0.666626 12.3333V15.25C0.666626 16.4006 1.59937 17.3333 2.74996 17.3333H15.25C16.4006 17.3333 17.3333 16.4006 17.3333 15.25V12.3333C17.3333 11.8731 16.9602 11.5 16.5 11.5Z" fill="white"/>
</svg>
