<svg width="187" height="37" viewBox="0 0 187 37" fill="none" xmlns="http://www.w3.org/2000/svg">
<g clip-path="url(#clip0_3543_6520)">
<path d="M46.5 9.79993H47.5L50 16.3999H49.1L48.5 14.6999H45.5L44.9 16.3999H44L46.5 9.79993ZM47 10.6999L45.8 13.9999H48.2L47 10.6999Z" fill="black"/>
<path d="M51 9.79993H56.2V10.4999L52 15.5999H56.2V16.2999H50.8V15.5999L54.9 10.4999H50.9V9.79993H51Z" fill="black"/>
<path d="M57.6 12.9H62.7C62.7 12.1 62.5 11.5 62.1 11C61.7 10.5 61.1 10.3 60.3 10.3C59.9 10.3 59.5 10.4 59.1 10.5C58.7 10.6 58.4 10.9 58.1 11.1V10.2C58.4 10 58.8 9.8 59.2 9.7C59.6 9.6 60 9.5 60.4 9.5C61.4 9.5 62.2 9.8 62.8 10.4C63.4 11 63.7 11.8 63.7 12.9C63.7 13.9 63.4 14.8 62.9 15.4C62.3 16 61.6 16.3 60.7 16.3C59.7 16.3 59 16 58.5 15.3C57.9 14.9 57.6 14 57.6 12.9ZM58.6 13.7C58.6 14.3 58.8 14.8 59.2 15.2C59.6 15.6 60.1 15.8 60.6 15.8C61.1 15.8 61.7 15.6 62 15.2C62.4 14.8 62.6 14.3 62.6 13.7H58.6Z" fill="black"/>
<path d="M68.6 13.2999C68.8 13.3999 69 13.4999 69.2 13.6999C69.4 13.8999 69.6 14.1999 69.7 14.5999L70.6 16.3999H69.6L68.8 14.6999C68.6 14.2999 68.4 13.9999 68.2 13.7999C68 13.5999 67.7 13.5999 67.4 13.5999H66.4V16.3999H65.5V9.79993H67.5C68.3 9.79993 68.8 9.99993 69.2 10.2999C69.6 10.5999 69.8 11.0999 69.8 11.6999C69.8 12.0999 69.7 12.4999 69.5 12.6999C69.3 12.9999 69 13.1999 68.6 13.2999ZM66.4 10.4999V12.7999H67.5C67.9 12.7999 68.3 12.6999 68.5 12.4999C68.7 12.2999 68.8 11.9999 68.8 11.5999C68.8 11.1999 68.7 10.8999 68.5 10.6999C68.3 10.4999 68 10.3999 67.5 10.3999H66.4V10.4999Z" fill="black"/>
<path d="M72.2 9.79993H74.5C75.2 9.79993 75.7 9.89993 76.1 10.1999C76.5 10.4999 76.6 10.8999 76.6 11.3999C76.6 11.7999 76.5 12.0999 76.3 12.3999C76.1 12.6999 75.8 12.7999 75.5 12.7999C75.9 12.8999 76.3 13.0999 76.5 13.3999C76.7 13.6999 76.9 14.0999 76.9 14.4999C76.9 15.0999 76.7 15.4999 76.3 15.8999C75.9 16.1999 75.3 16.3999 74.6 16.3999H72.2V9.79993ZM73.1 10.4999V12.4999H74.4C74.8 12.4999 75.2 12.3999 75.4 12.2999C75.6 12.0999 75.7 11.8999 75.7 11.5999C75.7 11.2999 75.6 10.9999 75.4 10.8999C75.2 10.7999 74.9 10.6999 74.4 10.6999H73.1V10.4999ZM73.1 13.1999V15.5999H74.5C75 15.5999 75.3 15.4999 75.6 15.2999C75.8 15.0999 75.9 14.7999 75.9 14.3999C75.9 13.9999 75.8 13.6999 75.6 13.4999C75.4 13.2999 75 13.1999 74.5 13.1999H73.1V13.1999Z" fill="black"/>
<path d="M80.6 9.79993H81.6L84.1 16.3999H83.2L82.6 14.6999H79.6L79 16.3999H78L80.6 9.79993ZM81.1 10.6999L79.9 13.9999H82.3L81.1 10.6999Z" fill="black"/>
<path d="M83.9 9.79993H84.9L86.7 12.4999L88.5 9.79993H89.5L87.2 13.1999V16.2999H86.3V13.1999L83.9 9.79993Z" fill="black"/>
<path d="M95.1 10.2999V11.1999C94.8 10.8999 94.5 10.6999 94.1 10.5999C93.8 10.4999 93.4 10.3999 93 10.3999C92.2 10.3999 91.7 10.5999 91.3 11.0999C90.9 11.5999 90.7 12.1999 90.7 13.0999C90.7 13.9999 90.9 14.5999 91.3 15.0999C91.7 15.5999 92.3 15.7999 93 15.7999C93.4 15.7999 93.7 15.6999 94.1 15.5999C94.4 15.4999 94.8 15.2999 95.1 14.9999V15.8999C94.8 16.0999 94.5 16.2999 94.1 16.3999C93.8 16.4999 93.4 16.5999 93 16.5999C92 16.5999 91.2 16.2999 90.7 15.6999C90.1 15.0999 89.8 14.2999 89.8 13.1999C89.8 12.0999 90.1 11.2999 90.7 10.6999C91.3 10.0999 92.1 9.79993 93 9.79993C93.4 9.79993 93.8 9.89993 94.1 9.99993C94.5 9.89993 94.8 10.0999 95.1 10.2999Z" fill="black"/>
<path d="M98.6 9.79993H99.6L102.1 16.3999H101.2L100.6 14.6999H97.6L97 16.3999H96.1L98.6 9.79993ZM99.2 10.6999L98 13.9999H100.4L99.2 10.6999Z" fill="black"/>
<path d="M103.6 9.79993H104.8L107.7 15.2999V9.79993H108.6V16.3999H107.4L104.5 10.8999V16.3999H103.6V9.79993Z" fill="black"/>
<path d="M117.2 13.2999C117.4 13.3999 117.6 13.4999 117.8 13.6999C118 13.8999 118.2 14.1999 118.3 14.5999L119.2 16.3999H118.2L117.4 14.6999C117.2 14.2999 117 13.9999 116.8 13.7999C116.6 13.6999 116.3 13.5999 116 13.5999H115V16.3999H114.1V9.79993H116.1C116.9 9.79993 117.4 9.99993 117.8 10.2999C118.2 10.5999 118.4 11.0999 118.4 11.6999C118.4 12.0999 118.3 12.4999 118.1 12.6999C117.8 12.9999 117.5 13.1999 117.2 13.2999ZM114.9 10.4999V12.7999H116C116.4 12.7999 116.8 12.6999 117 12.4999C117.2 12.2999 117.3 11.9999 117.3 11.5999C117.3 11.1999 117.2 10.8999 117 10.6999C116.8 10.4999 116.5 10.3999 116 10.3999H114.9V10.4999Z" fill="black"/>
<path d="M120.8 9.79993H124.9V10.4999H121.6V12.3999H124.7V13.0999H121.6V15.4999H124.9V16.1999H120.7V9.79993H120.8Z" fill="black"/>
<path d="M130.8 9.99993V10.8999C130.5 10.6999 130.1 10.5999 129.8 10.4999C129.5 10.3999 129.2 10.3999 128.9 10.3999C128.4 10.3999 128 10.4999 127.8 10.6999C127.5 10.8999 127.4 11.1999 127.4 11.4999C127.4 11.7999 127.5 11.9999 127.7 12.1999C127.9 12.2999 128.2 12.4999 128.7 12.5999L129.2 12.6999C129.9 12.7999 130.4 12.9999 130.7 13.3999C131 13.6999 131.2 14.0999 131.2 14.6999C131.2 15.2999 131 15.7999 130.6 16.0999C130.2 16.3999 129.5 16.5999 128.7 16.5999C128.4 16.5999 128.1 16.5999 127.7 16.4999C127.4 16.3999 127 16.2999 126.6 16.1999V15.2999C127 15.4999 127.3 15.6999 127.7 15.7999C128.1 15.8999 128.4 15.9999 128.7 15.9999C129.2 15.9999 129.6 15.8999 129.9 15.6999C130.2 15.4999 130.3 15.1999 130.3 14.7999C130.3 14.4999 130.2 14.1999 130 13.9999C129.8 13.7999 129.5 13.6999 129 13.5999L128.5 13.4999C127.8 13.3999 127.4 13.1999 127.1 12.8999C126.8 12.5999 126.7 12.1999 126.7 11.6999C126.7 11.0999 126.9 10.6999 127.3 10.2999C127.7 9.99993 128.3 9.79993 129 9.79993C129.3 9.79993 129.6 9.79993 129.9 9.89993C130.2 9.99993 130.5 9.89993 130.8 9.99993Z" fill="black"/>
<path d="M133.1 9.79993H135.1C135.8 9.79993 136.4 9.99993 136.8 10.2999C137.2 10.5999 137.4 11.0999 137.4 11.7999C137.4 12.3999 137.2 12.8999 136.8 13.2999C136.4 13.5999 135.9 13.7999 135.1 13.7999H134V16.3999H133.1V9.79993ZM133.9 10.4999V12.9999H135C135.4 12.9999 135.7 12.8999 136 12.6999C136.2 12.4999 136.3 12.1999 136.3 11.7999C136.3 11.3999 136.2 11.0999 136 10.8999C135.8 10.6999 135.5 10.5999 135 10.5999H133.9V10.4999Z" fill="black"/>
<path d="M138.8 9.79993H139.7V13.7999C139.7 14.4999 139.8 14.9999 140.1 15.2999C140.4 15.5999 140.8 15.7999 141.3 15.7999C141.9 15.7999 142.3 15.5999 142.5 15.2999C142.8 14.9999 142.9 14.4999 142.9 13.7999V9.79993H143.8V13.8999C143.8 14.7999 143.6 15.3999 143.2 15.7999C142.8 16.1999 142.2 16.4999 141.3 16.4999C140.5 16.4999 139.8 16.2999 139.4 15.7999C139 15.3999 138.8 14.6999 138.8 13.8999V9.79993Z" fill="black"/>
<path d="M146 9.79993H148.3C149 9.79993 149.5 9.89993 149.9 10.1999C150.3 10.4999 150.4 10.8999 150.4 11.3999C150.4 11.7999 150.3 12.0999 150.1 12.3999C149.9 12.6999 149.6 12.7999 149.3 12.7999C149.7 12.8999 150.1 13.0999 150.3 13.3999C150.5 13.6999 150.7 14.0999 150.7 14.4999C150.7 15.0999 150.5 15.4999 150.1 15.8999C149.7 16.1999 149.1 16.3999 148.4 16.3999H146V9.79993ZM146.9 10.4999V12.4999H148.2C148.6 12.4999 149 12.3999 149.2 12.2999C149.4 12.0999 149.5 11.8999 149.5 11.5999C149.5 11.2999 149.4 10.9999 149.2 10.8999C149 10.6999 148.7 10.6999 148.2 10.6999H146.9V10.4999ZM146.9 13.1999V15.5999H148.3C148.8 15.5999 149.1 15.4999 149.4 15.2999C149.6 15.0999 149.7 14.7999 149.7 14.3999C149.7 13.9999 149.6 13.6999 149.4 13.4999C149.2 13.2999 148.8 13.1999 148.3 13.1999H146.9V13.1999Z" fill="black"/>
<path d="M152.6 9.79993H153.5V15.5999H156.7V16.2999H152.6V9.79993Z" fill="black"/>
<path d="M158.1 8.09998H159V8.99998H158.1V8.09998ZM158.1 9.79998H159V16.4H158.1V9.79998Z" fill="black"/>
<path d="M161.2 9.79993H162.1V12.5999L165 9.79993H166.1L162.8 12.8999L166.3 16.3999H165.1L161.9 13.1999V16.3999H161V9.79993H161.2Z" fill="black"/>
<path d="M169.1 9.79993H170.1L172.6 16.3999H171.7L171.1 14.6999H168.1L167.5 16.3999H166.6L169.1 9.79993ZM169.6 10.6999L168.4 13.9999H170.8L169.6 10.6999Z" fill="black"/>
<path d="M177.9 9.99993V10.8999C177.6 10.6999 177.2 10.5999 176.9 10.4999C176.6 10.3999 176.3 10.3999 176 10.3999C175.5 10.3999 175.1 10.4999 174.9 10.6999C174.6 10.8999 174.5 11.1999 174.5 11.4999C174.5 11.7999 174.6 11.9999 174.8 12.1999C175 12.2999 175.3 12.4999 175.8 12.5999L176.3 12.6999C177 12.7999 177.5 12.9999 177.8 13.3999C178.1 13.6999 178.3 14.0999 178.3 14.6999C178.3 15.2999 178.1 15.7999 177.7 16.0999C177.3 16.3999 176.6 16.5999 175.8 16.5999C175.5 16.5999 175.2 16.5999 174.8 16.4999C174.5 16.3999 174.1 16.2999 173.7 16.1999V15.2999C174.1 15.4999 174.4 15.6999 174.8 15.7999C175.2 15.8999 175.5 15.9999 175.8 15.9999C176.3 15.9999 176.7 15.8999 177 15.6999C177.3 15.4999 177.4 15.1999 177.4 14.7999C177.4 14.4999 177.3 14.1999 177.1 13.9999C176.9 13.7999 176.6 13.6999 176.1 13.5999L175.6 13.4999C174.9 13.3999 174.5 13.1999 174.2 12.8999C173.9 12.5999 173.8 12.1999 173.8 11.6999C173.8 11.0999 174 10.6999 174.4 10.2999C174.8 9.99993 175.4 9.79993 176.1 9.79993C176.4 9.79993 176.7 9.79993 177 9.89993C177.3 9.99993 177.6 9.89993 177.9 9.99993Z" fill="black"/>
<path d="M180.1 9.79993H181V16.3999H180.1V9.79993Z" fill="black"/>
<path d="M38.5 23.7999H44V24.4999H41.7V30.2999H40.8V24.4999H38.5V23.7999V23.7999Z" fill="black"/>
<path d="M45.3 23.7999H46.2V26.4999H49.4V23.7999H50.3V30.3999H49.4V27.2999H46.2V30.3999H45.3V23.7999Z" fill="black"/>
<path d="M52.6 23.7999H56.7V24.4999H53.4V26.3999H56.5V27.0999H53.4V29.4999H56.7V30.1999H52.5V23.7999H52.6Z" fill="black"/>
<path d="M65.1 27.2999C65.3 27.3999 65.5 27.4999 65.7 27.6999C65.9 27.8999 66.1 28.1999 66.2 28.5999L67.1 30.3999H66.1L65.3 28.6999C65.1 28.2999 64.9 27.9999 64.7 27.7999C64.5 27.5999 64.2 27.5999 63.9 27.5999H62.9V30.3999H62V23.7999H64C64.8 23.7999 65.3 23.9999 65.7 24.2999C66.1 24.5999 66.3 25.0999 66.3 25.6999C66.3 26.0999 66.2 26.4999 66 26.6999C65.8 26.9999 65.5 27.1999 65.1 27.2999ZM62.9 24.4999V26.7999H64C64.4 26.7999 64.8 26.6999 65 26.4999C65.2 26.2999 65.3 25.9999 65.3 25.5999C65.3 25.1999 65.2 24.9999 65 24.7999C64.8 24.5999 64.5 24.4999 64 24.4999H62.9Z" fill="black"/>
<path d="M68.7 23.7999H72.8V24.4999H69.5V26.3999H72.6V27.0999H69.5V29.4999H72.8V30.1999H68.6V23.7999H68.7Z" fill="black"/>
<path d="M74.9 23.7999H76.9C77.6 23.7999 78.2 23.9999 78.6 24.2999C79 24.5999 79.2 25.0999 79.2 25.7999C79.2 26.3999 79 26.8999 78.6 27.2999C78.2 27.6999 77.7 27.7999 76.9 27.7999H75.8V30.3999H74.9V23.7999ZM75.7 24.4999V26.9999H76.8C77.2 26.9999 77.5 26.8999 77.8 26.6999C78.1 26.4999 78.1 26.1999 78.1 25.7999C78.1 25.3999 78 25.0999 77.8 24.8999C77.6 24.6999 77.3 24.5999 76.8 24.5999H75.7V24.4999Z" fill="black"/>
<path d="M80.6 23.7999H81.5V27.7999C81.5 28.4999 81.6 28.9999 81.9 29.2999C82.2 29.5999 82.6 29.7999 83.1 29.7999C83.7 29.7999 84.1 29.5999 84.3 29.2999C84.5 28.9999 84.7 28.4999 84.7 27.7999V23.7999H85.6V27.8999C85.6 28.7999 85.4 29.3999 85 29.7999C84.6 30.1999 84 30.4999 83.1 30.4999C82.3 30.4999 81.6 30.2999 81.2 29.7999C80.8 29.2999 80.6 28.6999 80.6 27.8999V23.7999V23.7999Z" fill="black"/>
<path d="M87.8 23.7999H90C90.7 23.7999 91.2 23.8999 91.6 24.1999C92 24.4999 92.1 24.8999 92.1 25.3999C92.1 25.7999 92 26.0999 91.8 26.3999C91.6 26.6999 91.3 26.7999 91 26.7999C91.4 26.8999 91.8 27.0999 92 27.3999C92.2 27.6999 92.4 28.0999 92.4 28.4999C92.4 29.0999 92.2 29.4999 91.8 29.8999C91.4 30.2999 90.8 30.3999 90.1 30.3999H87.7V23.7999H87.8ZM88.7 24.4999V26.4999H90C90.4 26.4999 90.8 26.3999 91 26.2999C91.2 26.0999 91.3 25.8999 91.3 25.5999C91.3 25.2999 91.2 24.9999 91 24.8999C90.8 24.7999 90.5 24.6999 90 24.6999H88.7V24.4999ZM88.7 27.1999V29.5999H90.1C90.6 29.5999 90.9 29.4999 91.2 29.2999C91.4 29.0999 91.5 28.7999 91.5 28.3999C91.5 27.9999 91.4 27.6999 91.2 27.4999C91 27.2999 90.6 27.1999 90.1 27.1999H88.7Z" fill="black"/>
<path d="M94.4 23.7999H95.3V29.5999H98.5V30.2999H94.4V23.7999V23.7999Z" fill="black"/>
<path d="M99.9 23.7999H100.8V30.3999H99.9V23.7999Z" fill="black"/>
<path d="M107.9 24.2999V25.1999C107.6 24.8999 107.3 24.6999 106.9 24.5999C106.6 24.4999 106.2 24.3999 105.8 24.3999C105 24.3999 104.5 24.5999 104.1 25.0999C103.7 25.5999 103.5 26.1999 103.5 27.0999C103.5 27.9999 103.7 28.5999 104.1 29.0999C104.5 29.5999 105.1 29.7999 105.8 29.7999C106.2 29.7999 106.5 29.6999 106.9 29.5999C107.2 29.4999 107.6 29.2999 107.9 28.9999V29.8999C107.6 30.0999 107.3 30.2999 106.9 30.3999C106.6 30.4999 106.2 30.5999 105.8 30.5999C104.8 30.5999 104 30.2999 103.5 29.6999C103 29.0999 102.6 28.2999 102.6 27.1999C102.6 26.0999 102.9 25.2999 103.5 24.6999C104.1 24.0999 104.9 23.7999 105.8 23.7999C106.2 23.7999 106.6 23.8999 106.9 23.9999C107.2 23.8999 107.6 24.0999 107.9 24.2999Z" fill="black"/>
<path d="M115.7 23.7C116.6 23.7 117.4 24 117.9 24.6C118.5 25.2 118.7 26 118.7 27.1C118.7 28.1 118.4 29 117.9 29.6C117.3 30.2 116.6 30.5 115.7 30.5C114.8 30.5 114 30.2 113.5 29.6C112.9 29 112.7 28.2 112.7 27.1C112.7 26 113 25.2 113.5 24.6C114 24 114.7 23.7 115.7 23.7ZM115.7 24.4C115.1 24.4 114.5 24.6 114.2 25.1C113.8 25.6 113.6 26.2 113.6 27.1C113.6 27.9 113.8 28.6 114.2 29.1C114.6 29.6 115.1 29.7999 115.7 29.7999C116.3 29.7999 116.9 29.6 117.2 29.1C117.6 28.6 117.8 28 117.8 27.1C117.8 26.3 117.6 25.6 117.2 25.1C116.8 24.6 116.3 24.4 115.7 24.4Z" fill="black"/>
<path d="M120.5 23.7999H124.3V24.4999H121.4V26.3999H124V27.0999H121.4V30.1999H120.5V23.7999V23.7999Z" fill="black"/>
<path d="M131.2 23.7999H132.2L134.7 30.3999H133.8L133.2 28.6999H130.2L129.6 30.3999H128.7L131.2 23.7999ZM131.7 24.6999L130.5 27.9999H132.9L131.7 24.6999Z" fill="black"/>
<path d="M135.7 23.7999H140.9V24.4999L136.8 29.5999H141V30.2999H135.6V29.5999L139.7 24.4999H135.7V23.7999V23.7999Z" fill="black"/>
<path d="M142.7 23.7999H146.8V24.4999H143.5V26.3999H146.6V27.0999H143.5V29.4999H146.8V30.1999H142.6V23.7999H142.7Z" fill="black"/>
<path d="M151.9 27.2999C152.1 27.3999 152.3 27.4999 152.5 27.6999C152.7 27.8999 152.9 28.1999 153 28.5999L153.9 30.3999H152.9L152.1 28.6999C151.9 28.2999 151.7 27.9999 151.5 27.7999C151.3 27.6999 151 27.5999 150.7 27.5999H149.7V30.3999H148.8V23.7999H150.8C151.6 23.7999 152.1 23.9999 152.5 24.2999C152.9 24.5999 153.1 25.0999 153.1 25.6999C153.1 26.0999 153 26.4999 152.8 26.6999C152.6 26.9999 152.3 27.1999 151.9 27.2999ZM149.7 24.4999V26.7999H150.8C151.2 26.7999 151.6 26.6999 151.8 26.4999C152 26.2999 152.1 25.9999 152.1 25.5999C152.1 25.1999 152 24.8999 151.8 24.6999C151.6 24.4999 151.3 24.3999 150.8 24.3999H149.7V24.4999Z" fill="black"/>
<path d="M155.5 23.7999H157.8C158.5 23.7999 159 23.8999 159.4 24.1999C159.8 24.4999 159.9 24.8999 159.9 25.3999C159.9 25.7999 159.8 26.0999 159.6 26.3999C159.4 26.6999 159.1 26.7999 158.8 26.7999C159.2 26.8999 159.6 27.0999 159.8 27.3999C160 27.6999 160.2 28.0999 160.2 28.4999C160.2 29.0999 160 29.4999 159.6 29.8999C159.2 30.2999 158.6 30.3999 157.9 30.3999H155.5V23.7999ZM156.4 24.4999V26.4999H157.7C158.1 26.4999 158.5 26.3999 158.7 26.2999C158.9 26.0999 159 25.8999 159 25.5999C159 25.2999 158.9 24.9999 158.7 24.8999C158.5 24.6999 158.2 24.6999 157.7 24.6999H156.4V24.4999ZM156.4 27.1999V29.5999H157.8C158.3 29.5999 158.6 29.4999 158.9 29.2999C159.1 29.0999 159.2 28.7999 159.2 28.3999C159.2 27.9999 159.1 27.6999 158.9 27.4999C158.7 27.2999 158.3 27.1999 157.8 27.1999H156.4Z" fill="black"/>
<path d="M163.9 23.7999H164.9L167.4 30.3999H166.5L165.9 28.6999H162.9L162.3 30.3999H161.4L163.9 23.7999ZM164.4 24.6999L163.2 27.9999H165.6L164.4 24.6999Z" fill="black"/>
<path d="M168.8 23.7999H169.7V30.3999H168.8V23.7999Z" fill="black"/>
<path d="M171.9 23.7999H172.8V29.8999C172.8 30.6999 172.6 31.2999 172.3 31.5999C172 31.9999 171.5 32.0999 170.9 32.0999H170.6V31.3999H170.9C171.3 31.3999 171.6 31.2999 171.7 31.0999C171.8 30.8999 171.9 30.4999 171.9 29.8999V23.7999Z" fill="black"/>
<path d="M176.5 23.7999H177.5L180 30.3999H179.1L178.5 28.6999H175.5L174.9 30.3999H174L176.5 23.7999ZM177 24.6999L175.8 27.9999H178.2L177 24.6999Z" fill="black"/>
<path d="M181.4 23.7999H182.6L185.5 29.2999V23.7999H186.4V30.3999H185.2L182.3 24.8999V30.3999H181.4V23.7999Z" fill="black"/>
</g>
<path fill-rule="evenodd" clip-rule="evenodd" d="M14.9359 37C15.8385 37 16.3121 36.1538 17.0792 35.9738C17.4966 36.0751 17.7447 36.1538 18.0381 36.4476C18.7487 36.8195 19.5725 37 20.1137 36.6393C20.2942 36.5038 20.3504 36.3909 20.3504 36.1538C20.3504 36.075 20.3504 36.075 20.3504 36.075C19.753 35.8385 18.9855 35.6017 18.5682 35.2972C19.5724 35.2972 20.2942 36.3909 21.2417 36.075C21.3544 36.075 21.535 35.9737 21.535 35.8385C21.535 35.7142 21.535 35.6017 21.535 35.6017C20.7676 35.2293 19.933 35.0493 19.3354 34.7557C20.1137 34.7557 20.9482 35.2293 21.7154 35.4775C22.0653 35.6017 22.4939 35.7142 22.7872 35.8385C22.3809 36.075 21.7154 36.3909 21.2417 36.4476C21.2417 36.4476 21.2417 36.4476 21.2417 36.5038C21.6592 36.7517 22.2004 36.7517 22.7872 36.6393C23.3848 36.5714 23.8587 36.3909 24.2651 36.075L24.5692 34.9924H24.9304C24.9304 34.9924 24.9304 34.9924 24.9867 35.0493L24.6934 35.4776C24.6934 35.6018 24.7497 35.6018 24.806 35.6018C25.3479 35.4098 25.7539 35.0494 26.2951 34.8125L26.7693 33.775C26.7693 33.775 26.7693 33.7073 26.7125 33.7073L26.5323 33.4708C25.7539 33.7073 24.9305 33.8876 23.9714 33.8876H23.9264C25.641 33.7074 27.6041 32.9855 28.9687 32.2529C28.9687 32.2529 28.9687 32.1962 28.9007 32.072C27.9535 32.6245 26.8367 33.2228 25.6409 32.9856C26.4756 32.8615 27.2428 32.4332 27.9535 32.1963C28.7207 31.7565 29.4986 31.2827 30.0967 30.9108V30.7979C30.0967 30.73 30.0967 30.73 30.0967 30.73C29.4422 31.2153 28.4272 31.5874 27.4796 31.5874C27.3667 31.5874 27.4796 31.5874 27.4796 31.5874C28.382 31.2826 29.0812 30.9671 29.8033 30.5497C30.2771 30.0086 30.751 29.8843 31.2925 29.2755C31.2925 29.2192 31.2925 29.2192 31.2244 29.2192C30.751 29.5124 30.4465 29.8843 29.9839 30.0085C29.7471 30.3016 29.2618 30.426 28.9006 30.426C28.9006 30.426 28.8444 30.426 28.9006 30.426C29.4985 30.3017 29.9159 29.8843 30.4465 29.4556C30.9876 28.9036 31.5854 28.4862 32.0593 27.9336L31.9919 27.8774C31.405 28.2944 30.7509 28.9035 29.9159 29.1514C30.8749 28.6667 31.7659 27.7533 32.4202 26.7721L32.3527 26.5921C32.0592 26.8959 31.5853 27.4487 31.2242 27.7533C32.1721 26.5921 32.8938 25.6893 33.5368 24.5277C33.5368 24.4038 33.4918 24.4038 33.4918 24.4038C32.8938 25.1368 32.5895 26.1629 31.5853 26.4111C32.3527 25.8023 32.657 24.9564 33.2548 24.2236C33.3565 23.851 33.6612 23.7387 33.6612 23.31C33.6612 23.31 33.6612 23.2537 33.5368 23.2537C33.3566 23.7386 33.0182 24.2236 32.5896 24.6403C32.7701 24.2235 33.0182 23.7386 33.2549 23.2537C33.3566 22.8249 33.7177 22.577 33.7854 22.1599C33.7177 22.1599 33.7177 22.1599 33.6612 22.1599L33.0181 23.1859V23.1293L33.8419 20.4567H33.7855C33.6613 20.9528 33.3567 21.5504 33.1194 21.9117C33.0182 21.9117 33.1194 21.8437 33.1194 21.731L33.7178 19.9039H33.6613L33.1194 21.1334L33.6613 19.2389H33.5369L33.255 20.2652C33.0183 19.5434 33.492 18.6301 33.5369 18.0206L33.3567 17.9644C33.255 18.63 33.255 19.667 32.7702 20.4002C32.6572 20.4002 32.6572 20.4002 32.6572 20.4002L32.894 18.9455L32.8379 18.8778L32.0594 21.6633C31.992 21.6633 31.992 21.731 31.992 21.6633C31.992 20.761 32.4204 19.9039 32.4204 19.2387C32.3529 19.667 32.0594 20.0844 31.992 20.6368C31.7661 21.2458 31.5291 21.7309 31.2925 22.272C17.7447 39.6728 4.71607 26.8955 1.92955 19.3628C1.86213 19.3628 1.92955 19.3628 1.86213 19.3628C1.68161 19.2386 1.68161 18.9453 1.56878 18.8777C1.26411 18.6299 0.914649 18.9454 0.858186 19.0583C0.677578 19.4865 0.56492 20.0843 0.858186 20.4C0.858186 20.4565 0.858186 20.4565 0.858186 20.4565L1.09499 20.7609C1.09499 20.8286 1.09499 20.8286 1.09499 20.9526C0.914737 21.1331 0.80208 21.1331 0.677489 21.4264C0.564831 21.5503 0.677489 21.7308 0.677489 21.9677L0.0233615 22.1595C-0.0331009 22.2719 0.0233612 22.5766 0.0796455 22.7683C0.316716 23.005 0.497147 23.1289 0.734218 23.2532V23.5574L1.26411 23.7381C1.26411 24.223 1.38843 24.8205 1.92955 25.1924C2.1554 25.3843 2.44866 25.3843 2.62918 25.3843C2.51635 25.869 2.69704 26.3542 2.99022 26.7714C2.99022 26.8501 2.99022 26.8501 3.11437 26.8501C2.99022 27.2002 2.58394 27.2002 2.51644 27.5719C2.51644 27.8088 2.51644 28.2372 2.69704 28.2937C2.99022 28.6659 3.58798 28.2937 4.00521 28.6659C4.06176 28.6659 4.06176 28.6659 4.06176 28.6659C4.00521 28.9028 3.58797 28.9028 3.58797 29.1507C3.47532 29.4549 3.71221 29.7487 3.82478 29.8836C4.00521 29.94 4.06176 30.0079 4.29848 30.0079L3.82478 30.3685L3.93762 30.7294C4.29857 30.9101 4.65969 31.2147 5.20116 31.2147V31.282H5.4947C5.55089 31.5868 5.78761 31.9472 5.96804 32.0713C6.02423 32.0713 6.02423 32.0713 6.02423 32.0713C6.02423 32.1956 6.02423 32.1956 6.02423 32.1956C5.96804 32.1956 5.78761 32.3085 5.60726 32.3085C5.42683 32.4325 5.20107 32.6238 5.07702 32.9171C5.07702 33.2222 5.20116 33.4702 5.42683 33.5264C5.78761 33.887 6.02423 33.887 6.56606 33.7068C6.80286 33.8869 6.74649 34.3154 6.98347 34.3834C7.08491 34.3834 7.08491 34.3834 7.26534 34.5073C7.26534 34.8121 7.08491 35.2968 7.26534 35.714C7.44603 35.714 7.44603 35.8382 7.57 35.8382C7.98733 35.6015 8.33705 35.229 8.57386 34.9248C8.75438 34.7554 9.11515 34.8121 9.35231 34.9921C9.4085 35.0491 9.4085 35.049 9.4085 35.229C9.29576 35.4094 9.11515 35.9735 9.17188 36.1535C9.29585 36.5711 9.4085 36.7514 9.6568 36.8192C10.0064 36.9998 10.5366 36.9435 10.7168 36.6838C10.9538 36.5036 10.9538 36.1536 10.8976 36.0748C10.8976 35.9736 10.8976 35.8383 10.9538 35.8383C11.3825 35.6016 11.913 36.0748 12.1498 35.6016C12.2061 35.6016 12.2061 35.4773 12.2626 35.4773C12.4431 35.6016 12.7476 35.714 12.8606 35.6016C12.928 35.6016 13.0407 35.6016 13.1651 35.4773C13.1651 35.4773 13.1651 35.4773 13.2666 35.4773C13.2666 35.714 13.4471 35.8383 13.5712 35.9736C13.5712 36.0748 13.3453 36.0748 13.3904 36.3907C13.4472 36.4474 13.6278 36.5036 13.6953 36.5712C15.173 36.4473 15.8385 35.2969 17.3163 35.0491C17.4966 35.0491 17.5641 35.0491 17.666 35.0491C17.666 35.0491 17.666 35.049 17.666 35.229H17.4967C17.4403 35.229 17.4967 35.229 17.4967 35.2969L17.1355 35.229C17.3163 35.2969 17.3163 35.229 17.3163 35.2969C17.1355 35.4095 17.1355 35.2969 17.0793 35.2969C17.0793 35.2969 17.0793 35.2969 17.0793 35.4095H17.1355C17.1355 35.4773 17.0228 35.4095 17.0228 35.4095L16.9665 35.4773C16.8423 35.4773 16.7862 35.6016 16.7862 35.4773C16.7862 35.6016 16.7862 35.6016 16.7862 35.6016H16.7183C16.7183 35.6016 16.7183 35.7141 16.7183 35.8383H16.6053L16.3121 35.9736H16.256C16.256 35.9736 16.256 35.9736 16.1882 35.9736C16.256 35.9736 16.256 35.9736 16.1882 36.0749C16.1882 36.0749 16.0189 36.0749 15.9396 36.0749H16.0189C15.9396 36.1537 15.8385 36.0749 15.8385 36.0749V36.1537H15.5904C15.7143 36.1537 15.7709 36.1537 15.7143 36.1537C15.4211 36.3908 14.9923 36.1537 14.7555 36.3908L14.5298 36.6839C14.5298 36.8193 14.6991 36.8193 14.7555 36.9999C14.8231 37 14.8231 37 14.9359 37ZM2.87721 24.7191C2.87721 24.7191 2.93376 24.7191 2.93376 24.6401C2.93376 24.7191 2.99031 24.7191 2.99031 24.6401C2.99031 24.6401 2.99031 24.6401 2.99031 24.5839L2.75351 24.4036C2.69713 24.5274 2.75351 24.5839 2.75351 24.6401C2.75342 24.6402 2.75342 24.6402 2.87721 24.7191Z" fill="#221F20"/>
<path fill-rule="evenodd" clip-rule="evenodd" d="M3.27227 23.4111C3.27227 23.4111 3.27227 23.4111 3.27227 23.3662H3.23834V23.4111H3.27227Z" fill="#221F20"/>
<path fill-rule="evenodd" clip-rule="evenodd" d="M0.869434 23.1743L1.23065 22.4978C0.937207 22.2611 0.81306 22.2611 0.508751 22.2611C0.508751 22.2611 0.407047 22.2611 0.272125 22.3171C0.272125 22.4414 0.339453 22.6221 0.407136 22.7458C0.508662 22.859 0.700314 23.0502 0.869434 23.1743ZM5.09966 30.9557H5.21232C5.21232 30.5947 5.44948 30.3465 5.21232 30.0533C4.97552 30.0533 4.55819 30.2221 4.32157 30.4706L4.37776 30.5948C4.55819 30.8426 4.8625 30.9557 5.09966 30.9557ZM7.59265 35.6468C7.95342 35.4551 8.19058 35.094 8.49516 34.7896C8.12272 34.6659 7.82945 34.5418 7.59265 34.5418C7.46841 34.7896 7.46841 35.094 7.46841 35.4552C7.46841 35.4552 7.53592 35.5227 7.59265 35.6468ZM12.646 35.3309C12.646 35.3309 12.646 35.3309 12.7589 35.3309V35.2745H12.8154L12.8833 35.094C12.8833 35.094 12.8833 35.094 12.9506 35.2745C12.9506 35.094 12.9506 35.094 12.8833 35.094C12.9506 35.094 13.0524 35.094 13.0524 35.094C13.0524 35.094 12.9505 35.094 12.9505 35.0378C13.0524 35.0378 13.0524 35.0378 13.0524 35.0378C13.1199 34.9703 13.0524 34.9703 13.0524 34.8573C13.0524 34.7896 13.0524 34.7896 13.1199 34.7896C12.7589 34.8573 12.4656 34.429 11.992 34.3612V34.429C12.0487 34.7331 12.2854 35.0378 12.353 35.2745L12.646 35.3309ZM13.5937 35.6468C13.65 35.6468 13.7178 35.6468 13.7178 35.6468H13.8307C13.8307 35.6468 13.8307 35.6468 13.8307 35.5226V35.4551C13.8982 35.4551 13.8982 35.5226 13.8982 35.5226C13.9549 35.5226 13.9549 35.4551 13.9549 35.4551C13.9549 35.4551 13.9549 35.4551 13.8982 35.4551L13.9549 35.3308L13.8982 35.0939C13.8982 35.0939 13.8982 35.0939 13.8307 35.0939L13.6501 35.0377C13.6501 35.0377 13.6501 35.0377 13.6501 35.0939C13.4696 35.094 13.4696 35.4551 13.5937 35.6468Z" fill="#D1AB66"/>
<path fill-rule="evenodd" clip-rule="evenodd" d="M13.8306 36.4926L14.3605 36.4248V36.188C14.1237 36.1204 13.7063 36.1204 13.5937 36.188H13.4581C13.5937 36.4248 13.7063 36.4248 13.8306 36.4926ZM14.8345 36.8536C15.3082 36.8536 15.7256 36.8536 15.9625 36.6729C15.7821 36.4927 15.4321 36.4248 15.1843 36.4248C15.015 36.4927 14.9473 36.4927 14.8345 36.4927C14.8345 36.5374 14.7781 36.6164 14.7781 36.7294L14.8345 36.7971V36.8536ZM18.76 36.7294C19.1771 36.7294 19.7638 36.7294 20.0011 36.4248V36.1881C19.719 36.1204 19.1771 36.1881 18.8161 36.4248C18.76 36.5374 18.6923 36.6163 18.636 36.6163C18.6924 36.6729 18.76 36.6729 18.76 36.7294ZM20.5988 36.1204L21.2531 36.0073C21.2531 35.8722 21.2531 35.8722 21.2531 35.748C21.0725 35.5113 20.7793 35.6354 20.5988 35.6354C20.4858 35.8722 20.3618 35.8722 20.3052 35.8722L20.5988 36.1204Z" fill="#BCA589"/>
<path fill-rule="evenodd" clip-rule="evenodd" d="M18.3426 36.188L18.6924 36.1203L18.5682 36.188L18.9855 36.1203H19.1098H19.6399C19.166 35.8721 18.636 35.5112 17.9816 35.455C17.9141 35.455 17.7448 35.5112 17.6773 35.6353H17.8015C17.8579 35.6353 17.8579 35.6353 17.8579 35.6353L17.7448 35.872L17.9141 35.7478C17.9141 35.7478 17.9816 35.7478 17.9141 35.872C17.9141 35.872 17.9141 35.872 17.8578 35.872C17.8014 35.872 17.8014 35.872 17.7447 36.0072L18.0945 35.872H18.2188L17.9816 36.1202C18.0946 36.1202 18.3426 36.0071 18.5119 36.0071L18.0945 36.1878L18.7486 36.0071C18.7486 36.0071 18.7486 36.0071 18.7486 36.1202C18.5682 36.1202 18.3425 36.1202 18.2188 36.1879H18.3426V36.188ZM20.4745 35.6354L20.7676 35.4551C20.2942 35.2746 19.7077 35.0828 19.166 34.9703C18.9855 34.9703 18.9294 34.9703 18.805 35.0264V35.0829H18.9854H19.1097C19.1097 35.0829 18.9854 35.0829 18.9854 35.2746L19.2904 35.0829C19.2904 35.0829 19.166 35.0829 19.2904 35.2746C19.3465 35.2746 19.3465 35.0829 19.3465 35.0829C19.403 35.2746 19.403 35.2746 19.3465 35.2746H19.5836L19.4593 35.3309H19.5836C19.5836 35.3309 19.5836 35.3309 19.5836 35.4552C19.5836 35.4552 19.6399 35.3309 19.6399 35.4552C19.7077 35.4552 19.7077 35.4552 19.7077 35.4552L19.8879 35.3309L19.9447 35.4552H19.9897C19.9897 35.4552 19.9447 35.4552 19.9447 35.5114H20.1704H20.3617C20.3617 35.5114 20.3617 35.5114 20.3617 35.6356L20.4745 35.5114C20.4745 35.6356 20.4745 35.6356 20.407 35.6356H20.4745V35.6354ZM18.3989 34.1694C18.512 34.1694 18.512 34.0564 18.5682 34.0564C18.5682 33.9324 18.636 33.9324 18.7486 33.9324C18.805 33.9324 18.805 33.9324 18.805 33.9324L18.9293 33.8198C18.9854 33.8198 19.1097 33.5605 19.2904 33.7406L19.3465 33.8198L19.403 33.7406C19.403 33.7406 19.403 33.7406 19.403 33.5605L19.5836 33.4474C19.5836 33.3235 19.403 33.3235 19.2904 33.3235C18.9293 33.5036 18.7486 33.7406 18.5682 33.9323H18.3426L18.3989 34.1694ZM15.5905 34.7895C15.5905 34.7895 15.7257 34.7895 15.7709 34.7895L15.5905 34.1693C15.4322 34.0563 15.1844 33.9324 14.8232 33.9324V34.0564C14.767 34.0564 14.767 34.0564 14.8232 34.1694V34.0564C14.9474 34.1694 14.8232 34.1694 14.8232 34.2371C14.9474 34.3497 14.9474 34.2371 14.9474 34.2371C15.0039 34.2371 15.0039 34.2371 15.0039 34.2371L14.9474 34.429L15.0039 34.3496C15.0039 34.3496 15.0039 34.237 15.1844 34.237V34.5416C15.1844 34.4289 15.1844 34.4289 15.2971 34.4289C15.2971 34.4289 15.2971 34.4289 15.3534 34.4289C15.3534 34.5416 15.3534 34.5416 15.3534 34.5416V34.4289C15.3534 34.4289 15.3534 34.4289 15.4323 34.4289L15.3534 34.5416C15.4323 34.6089 15.4323 34.4289 15.4889 34.5416C15.4889 34.5416 15.4889 34.6089 15.4322 34.6089L15.4889 34.5416L15.5905 34.6089L15.4323 34.7221C15.489 34.7895 15.489 34.6658 15.5905 34.6658L15.4889 34.7895L15.5905 34.8458V34.7895H15.5905ZM14.3494 36.1204C14.3494 36.1204 14.3494 36.1204 14.4736 36.1204H14.5299C14.5299 36.0073 14.4736 36.0073 14.4736 36.0073L14.8232 35.8721C14.9474 35.8721 14.9474 35.8721 14.9474 35.7479H15.0039C15.0039 35.7479 15.0039 35.7479 15.0039 35.6353C15.1844 35.6353 15.1844 35.7479 15.2971 35.6353C15.2971 35.6353 15.1844 35.6353 15.2971 35.5111H15.3534C15.3534 35.5111 15.3534 35.5111 15.3534 35.4549H15.4889C15.4889 35.3307 15.5905 35.4549 15.5905 35.4549C15.5905 35.4549 15.5905 35.4549 15.5905 35.3307H15.771C15.771 35.2743 15.771 35.2743 15.8386 35.2743C15.8386 35.2743 15.8386 35.2743 15.9516 35.2743V35.0826C15.9516 35.0826 15.9516 35.0826 16.0191 35.0826C16.1995 35.0826 16.1995 35.0826 16.1995 35.0826H16.2563L16.3124 35.0261H16.4929V34.9701L16.7863 34.8457C16.7863 34.7894 16.7863 34.7894 16.7863 34.7894C16.8536 34.7894 16.9667 34.7894 17.0229 34.7894C17.0229 34.7894 16.9667 34.6657 16.7863 34.6089C16.7297 34.6089 16.617 34.6658 16.4929 34.722C16.3124 34.8457 16.2563 35.0261 15.9516 35.0261C15.8386 34.9701 15.8386 35.0261 15.7711 35.0261V35.0826L13.8759 36.1202C13.8759 36.1202 13.8195 36.1202 13.8759 36.1202H14.3494V36.1204Z" fill="#7F6B64"/>
<path fill-rule="evenodd" clip-rule="evenodd" d="M17.6321 35.9738C17.6321 35.9738 17.6321 35.9738 17.6773 35.895C17.6321 35.895 17.6321 35.9738 17.598 35.9738H17.6321Z" fill="#FEFEFE"/>
<path fill-rule="evenodd" clip-rule="evenodd" d="M17.6885 35.0492C17.6885 35.0492 17.6885 35.0492 17.7787 34.9591C17.7787 34.9592 17.6545 35.0492 17.6885 35.0492Z" fill="#FEFEFE"/>
<path fill-rule="evenodd" clip-rule="evenodd" d="M15.5565 34.7784C15.5565 34.7784 15.5904 34.7785 15.5904 34.733L15.5565 34.7784Z" fill="#FEFEFE"/>
<path fill-rule="evenodd" clip-rule="evenodd" d="M20.6211 34.3274H20.6663C20.6663 34.3274 20.6211 34.2826 20.6211 34.3274Z" fill="#FEFEFE"/>
<path fill-rule="evenodd" clip-rule="evenodd" d="M13.5034 33.7634C13.5485 33.7634 13.5485 33.7634 13.5485 33.7634L13.5034 33.6281V33.7634Z" fill="#221F20"/>
<path fill-rule="evenodd" clip-rule="evenodd" d="M13.7627 33.673C13.7627 33.673 13.7627 33.673 13.7627 33.628C13.7627 33.628 13.6838 33.5378 13.6389 33.5378C13.5598 33.628 13.6838 33.628 13.7627 33.673Z" fill="#221F20"/>
<path fill-rule="evenodd" clip-rule="evenodd" d="M8.93491 33.1883C8.96866 33.1883 8.96866 33.1883 8.93491 33.1434C8.93491 33.1434 8.93491 33.2337 8.93491 33.1883Z" fill="#221F20"/>
<path fill-rule="evenodd" clip-rule="evenodd" d="M9.25061 33.1319V33.0416C9.25061 32.9968 9.17189 33.1319 9.12656 33.0416L9.25061 33.1319Z" fill="#221F20"/>
<path fill-rule="evenodd" clip-rule="evenodd" d="M9.87118 32.9516H9.95026V32.8613L9.8262 32.9516C9.87118 32.9516 9.87118 32.9516 9.87118 32.9516Z" fill="#FEFEFE"/>
<path fill-rule="evenodd" clip-rule="evenodd" d="M9.43103 32.8613H9.47636V32.8162C9.47636 32.7261 9.47636 32.7261 9.55509 32.7261C9.60042 32.7261 9.47636 32.7261 9.55509 32.6807V32.6356C9.55509 32.6356 9.55509 32.6356 9.47636 32.6356L9.43103 32.8613Z" fill="#221F20"/>
<path fill-rule="evenodd" clip-rule="evenodd" d="M9.75834 32.7375V32.6924C9.75834 32.6924 9.71301 32.6473 9.71301 32.6924L9.75834 32.7375Z" fill="#221F20"/>
<path fill-rule="evenodd" clip-rule="evenodd" d="M9.10403 32.5341H9.19452C9.19443 32.4439 9.10403 32.5341 9.10403 32.5341Z" fill="#221F20"/>
<path fill-rule="evenodd" clip-rule="evenodd" d="M10.6945 32.3764H10.7287C10.7287 32.3309 10.6945 32.3309 10.6945 32.3309V32.3764Z" fill="#221F20"/>
<path fill-rule="evenodd" clip-rule="evenodd" d="M11.1569 32.3764V32.3309C11.1569 32.3309 11.0781 32.3309 11.0329 32.3309C11.033 32.3309 11.0782 32.3764 11.1569 32.3764Z" fill="#FEFEFE"/>
<path fill-rule="evenodd" clip-rule="evenodd" d="M13.9772 32.3763C13.9772 32.3763 13.9772 32.3308 14.0562 32.3308C14.0562 32.3308 14.0562 32.3763 14.0898 32.3763C14.0562 32.3308 14.0562 32.2526 13.9772 32.2526C13.932 32.3308 13.932 32.3308 13.932 32.3763H13.9772Z" fill="#221F20"/>
<path fill-rule="evenodd" clip-rule="evenodd" d="M25.0205 31.8691L26.1261 31.5642C26.1261 31.4741 26.0811 31.4288 26.047 31.4288C25.5506 31.6094 25.0996 31.6542 24.6484 31.7336L25.0205 31.8691Z" fill="#FFF100"/>
<path fill-rule="evenodd" clip-rule="evenodd" d="M14.1237 31.6321L14.1577 31.587C14.1577 31.587 14.1577 31.587 14.1237 31.587V31.6321Z" fill="#221F20"/>
<path fill-rule="evenodd" clip-rule="evenodd" d="M16.8763 31.4517H16.9098C16.9551 31.4517 16.9551 31.4064 16.9551 31.3163H16.8763C16.7861 31.3163 16.8763 31.4064 16.7861 31.4517H16.8763Z" fill="#FEFEFE"/>
<path fill-rule="evenodd" clip-rule="evenodd" d="M5.21222 30.9669H5.33628C5.37021 30.9669 5.33628 30.9219 5.33628 30.9219L5.21222 30.9669Z" fill="#FEFEFE"/>
<path fill-rule="evenodd" clip-rule="evenodd" d="M9.66791 31.0004V30.8204H9.54421L9.48748 30.7639L9.54421 30.5724C9.66791 30.5724 9.66791 30.5724 9.66791 30.5724C9.66791 30.5724 9.66791 30.5724 9.54421 30.5724C9.54421 30.5724 9.54421 30.5724 9.48748 30.5724C9.48748 30.7639 9.48748 30.7639 9.48748 30.7639C9.48748 30.7639 9.48748 30.7639 9.4198 30.7639C9.4198 30.7639 9.4198 30.8204 9.4198 30.9438C9.48748 30.9438 9.48748 30.9438 9.54412 30.9438C9.66791 30.9439 9.54421 31.0004 9.66791 31.0004ZM9.72446 31.1808C9.72446 31.0681 9.84852 31.1808 9.72446 31.0681C9.66791 31.0681 9.72446 31.1808 9.72446 31.1808ZM10.0178 30.9439V30.8204C10.0178 30.8204 10.0178 30.7639 9.90481 30.7639H9.84843C9.84843 30.7639 9.84843 30.7639 9.84843 30.5724C9.84843 30.5724 9.84843 30.5724 9.72438 30.5724V30.7639H9.90472L10.0178 30.9439Z" fill="#FEFEFE"/>
<path fill-rule="evenodd" clip-rule="evenodd" d="M9.75833 30.9439L9.66785 30.7639C9.66785 30.7639 9.66785 30.8093 9.58939 30.8093C9.58939 30.8539 9.66785 30.8093 9.66785 30.8093C9.713 30.8539 9.713 30.944 9.713 30.944C9.713 30.9892 9.713 30.9439 9.75833 30.9439Z" fill="#FEFEFE"/>
<path fill-rule="evenodd" clip-rule="evenodd" d="M26.2502 30.7862C26.6563 30.8311 27.1075 30.6172 27.4347 30.3464L27.2766 30.222C26.8595 30.437 26.5771 30.6626 26.2049 30.7863H26.2502V30.7862Z" fill="#FFF100"/>
<path fill-rule="evenodd" clip-rule="evenodd" d="M27.5699 29.8278L28.5965 29.3883V29.3428C28.3032 29.2525 28.1 29.5686 27.818 29.6587C27.6938 29.704 27.5699 29.704 27.5247 29.7492C27.5247 29.7492 27.5248 29.8278 27.5699 29.8278Z" fill="#FFF100"/>
<path fill-rule="evenodd" clip-rule="evenodd" d="M4.53556 25.7793C4.53556 25.7793 4.53556 25.7793 4.53556 25.7231H4.35495V25.5988C4.35495 25.5426 4.53556 25.5426 4.53556 25.5426V25.4187C4.53556 25.4187 4.53556 25.4187 4.65979 25.4187C4.65979 25.4187 4.65979 25.4187 4.71616 25.4187C4.71616 25.4187 4.71617 25.3618 4.84022 25.3618L4.95306 25.4187C4.95306 25.3618 4.84022 25.3618 4.84022 25.2267C4.84022 25.182 4.84022 25.182 4.84022 25.182C4.84022 25.114 4.65988 25.114 4.65988 24.99C4.65988 24.866 4.65988 24.99 4.71625 24.99C4.53573 24.6289 4.29875 24.2571 4.00549 23.7722C3.9492 23.8958 3.76868 23.8958 3.76868 24.0766C3.76868 24.3247 3.82506 24.5614 4.06204 24.6853C4.18609 24.7533 4.29875 24.7533 4.35513 24.8095C4.35513 25.1821 4.06204 25.4188 4.35513 25.7232L4.53556 25.7793ZM2.58395 25.2266C2.62928 25.2266 2.62928 25.2266 2.70819 25.2266C2.70819 25.1819 2.76465 25.1819 2.70819 25.1819H2.62928C2.46016 25.1819 2.34715 24.8659 2.16672 24.7532C2.16672 24.7532 2.16672 24.7532 2.29095 24.7532C2.34724 24.7532 2.34724 24.8094 2.34724 24.866C2.34724 24.866 2.46025 24.866 2.52793 24.866C2.52793 24.866 2.52793 24.8094 2.52793 24.7532H2.58404C2.62937 24.7532 2.70828 24.7532 2.76465 24.7532C2.70819 24.7532 2.70819 24.8094 2.70819 24.8094L2.58395 24.9899C2.58395 24.9899 2.58395 24.9899 2.62928 24.9899L2.76465 25.114C2.87731 24.9899 2.76465 24.9899 2.76465 24.866C2.76465 24.8094 2.76465 24.8094 2.76465 24.8094C2.87731 24.7532 2.87731 24.8094 2.93377 24.8094C3.00145 24.8094 3.00145 24.7532 3.00145 24.7532V24.8094H3.11447L3.00145 24.7532L3.11447 24.6289H3.00145C3.00145 24.5614 3.00145 24.4374 3.00145 24.381C3.00145 24.3247 2.87722 24.381 2.76465 24.3247C2.76465 24.257 2.87731 24.257 2.87731 24.1443L3.00154 24.2571C3.00154 24.2571 3.00154 24.2571 3.00154 24.3248C3.00154 24.3248 3.00154 24.3248 3.00154 24.3811C3.11456 24.3811 3.11456 24.3248 3.2273 24.3248C3.2273 24.3248 3.2273 24.3248 3.2273 24.3811C3.40782 24.3811 3.40782 24.3811 3.40782 24.4375C3.40782 24.3811 3.2273 24.3248 3.2273 24.2572C3.11447 24.2572 3.11447 24.2572 3.00154 24.3248C3.00154 24.2572 3.00154 24.2572 3.00154 24.2572C3.00154 24.2572 3.00154 24.2572 3.00154 24.1444L2.76474 23.7723L3.00154 23.8959L3.2273 23.7723C3.2273 23.7723 3.2273 23.7723 3.11447 23.7723C3.00145 23.7723 3.00145 23.7723 3.00145 23.7158C3.00145 23.7158 3.00145 23.7158 3.00145 23.5917H3.22721C3.00145 22.8024 2.58395 22.1934 1.92965 21.7646H1.9862C2.34724 21.8889 2.58404 22.1933 2.76465 22.4303C2.70819 22.013 2.52793 21.7646 2.34715 21.4719C2.11052 20.9868 1.86223 20.6709 1.68162 20.1972C1.68162 20.1972 1.68162 20.1293 1.68162 20.1972C2.29086 20.806 2.62928 21.7086 3.00136 22.4977V22.2499C2.7081 21.5281 2.34706 20.6709 2.04257 19.7688C1.98602 19.7688 1.98602 19.7688 1.92947 19.7688C1.68153 19.7012 1.68153 19.2836 1.33189 19.2836C1.27543 19.2836 1.09491 19.2836 0.914569 19.2836C0.858017 19.5205 0.801911 19.7688 0.914569 20.1294C0.914569 20.3101 1.20775 20.4904 1.33189 20.6257C1.38844 20.6709 1.51241 20.8626 1.33189 21.1671C1.20775 21.2914 0.914569 21.2914 0.858107 21.5281C0.858107 21.5281 0.858106 21.7646 0.914658 21.7646C1.27552 22.2499 1.98602 22.4977 1.86214 23.1742C1.68162 23.5917 1.33198 23.7722 1.5125 24.1443C1.68153 24.4374 1.68153 24.7533 1.98602 24.866H2.04257C2.11043 24.866 2.11043 24.866 2.16663 24.866C2.29086 24.866 2.16663 24.9901 2.16663 25.1141C2.29086 25.1141 2.29086 25.1141 2.34706 25.1141C2.34706 25.1141 2.34706 25.1141 2.34706 25.1821L2.58395 25.2266ZM4.71608 29.9853H5.07712C5.20126 29.918 5.20126 29.918 5.20126 29.8618L5.07712 29.7938L5.43806 29.3653C5.43806 29.3653 5.43807 29.3653 5.4948 29.3653C5.4948 29.3653 5.4948 29.3653 5.4948 29.3204C5.43807 29.3204 5.43807 29.3653 5.20126 29.3653C5.20126 29.3653 5.20126 29.2524 5.20126 29.1852C5.43807 29.2525 5.20126 29.1852 5.43806 29.1852C5.20126 29.1288 5.20126 29.1288 5.20126 28.9481H5.07712V28.8804H5.20126C5.20126 28.8804 5.20126 28.8804 5.20126 28.6999H5.07712V28.5195L5.20126 28.3394C5.20126 28.3394 5.43807 28.3394 5.20126 28.3394C5.20126 28.3394 5.20126 28.3394 5.07712 28.3394L5.20126 28.283C5.20126 28.1023 5.07712 28.283 5.07712 28.283V28.035L4.84013 27.8432C4.65979 27.8432 4.53556 27.7868 4.35495 27.8432C4.06186 27.7868 3.71222 27.7868 3.47542 27.6063C3.47542 27.6063 3.47542 27.6063 3.47542 27.4937L4.65979 27.6063C4.06186 26.8844 3.47542 26.3319 3.22721 25.5988C3.71222 26.2078 4.06186 26.8844 4.65979 27.4144C4.65979 26.8844 4.65979 26.6366 4.71616 26.2078C4.71616 26.2078 4.71617 26.2078 4.84022 26.2078V27.1212L4.95306 27.7308L5.07729 27.8432L5.20144 27.7869C5.20144 27.7308 5.20144 27.8432 5.07729 27.8432C5.07729 27.7869 5.07729 27.7308 4.95306 27.6063C4.95306 27.4938 5.07729 27.4938 5.07729 27.4938V27.6063C5.07729 27.6063 5.07729 27.6063 5.07729 27.4938L5.20144 27.2343C5.20144 27.2343 5.20144 27.2343 5.20144 27.1777H5.43824C5.43824 27.1212 5.43824 27.1212 5.49497 27.1212L5.55117 27.1777L5.49497 27.1212L5.61876 26.8844C5.78788 26.8844 5.78788 26.941 5.78788 26.941V26.8844C5.84426 26.8844 5.84426 26.8844 5.96831 26.8844H6.02451V26.3886C5.96831 26.332 5.84426 26.2079 5.78788 26.0274C5.55117 25.8475 5.20144 25.7232 5.07729 25.7232C4.95306 25.7794 4.95306 25.7794 4.95306 25.7794C4.84022 25.8475 4.65988 26.0274 4.35504 26.0274C4.29866 26.0274 4.29866 26.0274 4.29866 26.0274C4.0054 25.7794 3.94911 25.3619 3.58807 25.1821C3.40782 25.1821 3.11447 25.1821 3.00145 25.362C2.76465 25.5427 2.76465 25.8475 2.76465 26.0275C3.00145 26.3887 3.40782 26.4449 3.47542 26.8845C3.40773 27.2344 3.22721 27.2344 3.00145 27.4145C2.93377 27.4145 2.76465 27.4939 2.76465 27.6063C2.76465 27.8432 2.76465 27.9786 2.76465 28.1024C3.00145 28.2831 3.22721 28.2831 3.40782 28.2831C3.58807 28.2831 3.82497 28.2831 4.18592 28.3395C4.29866 28.5196 4.35495 28.7001 4.35495 28.7001C4.35495 28.8806 4.29857 28.8806 4.29857 28.9483L3.7685 29.1853C3.7685 29.2527 3.7685 29.3655 3.7685 29.5007C4.06177 29.7939 4.35486 29.918 4.71608 29.9853ZM6.44192 31.9816C6.44192 31.8011 6.56616 31.553 6.74659 31.4971C6.80296 31.3164 6.80296 31.3164 6.80296 31.3164C6.80296 31.3164 6.80296 31.4971 6.85933 31.4971H6.98357C7.09614 31.4971 7.09614 31.4971 7.09614 31.4971C7.09614 31.4971 7.09614 31.4971 7.09614 31.3164C7.16391 31.3164 7.26544 31.3164 7.26544 31.3164C7.26544 31.3164 7.26544 31.3164 7.26544 31.2602C7.26544 31.1925 7.45727 31.3164 7.45727 31.2602V31.1925H7.26544L6.85933 31.0118C6.85933 31.0118 6.85933 31.0118 6.85933 30.9556C6.85933 30.9556 6.85933 30.9556 6.98357 30.9556L7.69416 31.0118H7.75071C7.80699 31.0118 7.80699 31.0118 7.80699 30.9556C7.75071 30.9556 7.80699 30.9556 7.75071 30.9556C7.75071 30.9556 7.75071 30.9556 7.80699 30.9556H7.93123L7.80699 30.764H7.69416C7.69416 30.764 7.69416 30.764 7.69416 30.5834C7.69416 30.5834 7.69416 30.5834 7.75071 30.5834C7.69416 30.3466 7.45735 29.9854 7.26552 29.7376L6.02442 29.3655C6.44201 29.2526 6.80305 29.5007 7.16391 29.5007C6.80305 28.8806 6.2614 28.3395 5.96822 27.7869V27.7308C6.02442 27.7869 6.02442 27.8432 6.2614 27.9785C6.6789 28.3395 6.98357 28.9483 7.26544 29.3655C7.45727 28.9482 7.26544 28.5196 7.51355 28.2831C7.26544 29.129 7.45726 29.9181 7.93105 30.5834C7.93105 30.5834 8.1113 30.5834 8.16803 30.5834H8.34802C8.34802 30.4031 8.34802 30.5834 8.16803 30.5834C8.16803 30.5834 8.16803 30.5834 8.16803 30.4705C8.16803 30.4705 8.16803 30.403 8.34802 30.403C8.34802 30.403 8.34802 30.403 8.47252 30.403L8.58536 29.7939V30.1659C8.58536 30.2221 8.58536 30.2221 8.58536 30.2221C8.58536 30.3465 8.58536 30.3465 8.58536 30.3465V30.4705V30.403C8.58536 30.403 8.58536 30.403 8.58536 30.3465C8.58536 30.3465 8.58536 30.3465 8.64191 30.3465H8.935C8.935 30.3465 8.935 30.3465 8.935 30.403C8.935 30.403 8.88984 30.403 8.82234 30.4705L8.75448 30.403L9.29586 30.764C9.29586 30.5834 9.29586 30.5834 9.17189 30.5834H8.99119C8.99119 30.4705 8.99119 30.4705 8.99119 30.4705C8.99119 30.403 9.12665 30.403 9.17189 30.403L9.29586 30.3465C9.35241 30.403 9.29586 30.403 9.29586 30.4705C9.29586 30.4705 9.29586 30.4705 9.29586 30.5834C9.29586 30.5834 9.35241 30.5834 9.4086 30.5834C9.4086 30.5834 9.4086 30.5834 9.4086 30.4705C9.4086 30.403 9.4086 30.403 9.4086 30.3465C9.35241 30.2221 9.35241 30.1659 9.29586 30.1659V30.2221L9.17189 30.1659C9.17189 30.0421 9.17189 30.0421 9.17189 30.0421C9.29586 30.0421 9.29586 30.0421 9.29586 30.0421C9.29586 29.9853 9.29586 29.9853 9.17189 29.9853C9.17189 29.9853 9.17189 29.9853 9.17189 29.918H9.29586L9.35241 29.5005C9.35241 29.2525 9.29586 29.1852 9.17198 28.9481C8.82234 28.6999 8.51767 28.9481 8.16812 28.9481C7.93114 28.6999 7.93114 28.1022 7.69416 27.9107L7.51364 27.8431C7.26552 27.9107 7.16391 28.1022 6.85942 28.0349C6.62235 27.8431 6.74668 27.2341 6.44201 27.1775C6.02442 27.121 5.78771 27.121 5.61859 27.2341C5.4948 27.4142 5.43815 27.8431 5.43815 28.0349C5.49488 28.2829 5.55108 28.3393 5.78779 28.3393C5.84417 28.5195 6.02442 28.6999 6.02442 28.6999C6.02442 28.9481 6.02442 29.1288 5.84417 29.1852H5.78779L5.61867 29.3653C5.61867 29.9179 6.56633 30.042 6.31813 30.5833C6.26149 30.9555 5.96831 31.0117 5.78788 31.0795C5.78788 31.1924 5.61876 31.3162 5.61876 31.3162C5.78788 31.6321 6.0246 31.801 6.26158 31.9816C6.31786 31.9817 6.44192 31.9816 6.44192 31.9816ZM8.58527 34.7222C8.64182 34.4289 8.58527 34.1693 8.75439 33.9324C8.82225 33.9324 8.82225 33.9324 8.82225 33.9324C8.82225 33.8198 8.88975 33.8198 8.93491 33.8198V33.5605C8.99119 33.5037 8.99119 33.5037 8.99119 33.5037L9.17189 33.3236C9.17189 33.3236 9.17189 33.3236 9.17189 33.4474V33.5038C9.17189 33.5038 9.17189 33.5038 9.29586 33.5038V33.4474L9.4086 33.5038L9.47647 33.4474C9.4086 33.3236 9.4086 33.4474 9.35241 33.3236L9.29586 33.2674H9.35241H9.47647C9.53284 33.2674 9.6569 33.1433 9.6569 33.1433H9.83715C9.83715 33.2674 9.83715 33.2674 9.83715 33.2674H9.89388V33.1433H9.83715C9.83715 33.0191 9.83715 33.0191 9.83715 33.0191C9.83715 33.0191 9.83715 33.0191 9.89388 33.0191C9.83715 33.0191 9.83715 33.0191 9.83715 32.9627C9.89388 32.9627 10.0178 32.895 10.0178 32.7707L9.89379 32.6581H9.83706L9.65681 32.4776L9.89379 32.4214C9.89379 32.3539 9.713 32.3539 9.65681 32.3539C9.47638 32.2972 9.29577 32.2972 9.17189 32.4214C8.99119 32.6581 8.75439 32.895 8.58527 33.0191C8.58527 33.0191 8.58527 32.895 8.58527 32.7707C8.75439 32.6581 8.93491 32.4776 9.12656 32.3539C8.75439 32.2972 8.51758 32.4214 8.1113 32.4776C7.75053 32.7707 7.69398 33.2673 7.26535 33.4474C7.26535 33.3235 7.26535 33.3235 7.26535 33.2674C7.57001 33.0192 7.69398 32.8951 7.75053 32.6582C7.45718 32.8951 6.85924 32.7708 6.44192 32.8951C6.44192 32.8951 6.31786 32.8951 6.26131 32.8951C6.62226 32.4776 7.16382 32.7708 7.69407 32.4776L6.85933 32.2296C6.85933 32.2296 6.85933 32.2296 6.85933 32.1053C7.16382 32.1053 7.51355 32.4214 7.75062 32.4776C8.16812 32.3539 8.58536 32.1053 8.99128 32.1053L8.51776 31.6321C8.51776 31.6321 8.51776 31.6321 8.51776 31.5529C8.88993 31.801 9.17207 32.2296 9.65699 32.1053C9.71318 32.1053 9.65698 32.1053 9.71318 32.1053C9.71318 31.9815 9.65699 32.1053 9.53293 32.1053C9.53293 32.0493 9.47655 32.0493 9.47655 31.9815C9.53293 31.9815 9.65699 31.9815 9.65699 31.9815C9.65699 31.9815 9.65698 31.9815 9.71318 31.9815C9.83733 31.9815 9.71318 32.0493 9.83733 32.0493V31.9815C9.83733 31.9815 9.83733 31.9815 9.71318 31.9815L9.65699 31.801C9.65699 31.801 9.65699 31.869 9.53284 31.801C9.53284 31.801 9.53284 31.6321 9.65699 31.6321L9.53284 31.4969L9.65699 31.3162C9.40869 31.0116 8.99128 30.5833 8.58545 30.5833C8.34811 30.7638 8.11148 30.8311 8.11148 31.0795C8.11148 31.3162 7.98743 31.497 7.80699 31.6321C7.51364 31.869 7.09623 31.6321 6.80314 31.6321C6.6789 31.6321 6.62244 31.801 6.62244 31.9816C6.62244 32.0494 6.62244 32.2973 6.56633 32.4214C6.4421 32.4776 6.26149 32.4776 6.02451 32.4776C5.84426 32.4776 5.55117 32.4776 5.49497 32.6581C5.43824 32.895 5.20144 33.1432 5.43824 33.3235C5.49497 33.5036 5.61867 33.5036 5.96831 33.5604C6.26149 33.5604 6.56634 33.3235 6.74677 33.5036C6.80314 33.5604 6.85951 33.8197 6.85951 33.9323L6.98375 34.1692C7.09632 34.1692 7.26561 34.237 7.45744 34.1692C7.69425 34.0562 7.80708 33.5604 8.16821 33.5036C8.51785 33.5604 8.58553 33.9323 8.75465 34.0562C8.642 34.0562 8.642 34.0562 8.58554 34.1692C8.58554 34.1692 8.58554 34.1692 8.58554 34.0562V33.9322C8.51785 33.9322 8.51785 33.9322 8.51785 34.0562V34.1692H8.58554C8.64209 34.1692 8.58554 34.237 8.58554 34.3495C8.58554 34.3495 8.58554 34.3495 8.58554 34.4289V34.7222H8.58527ZM9.89388 36.6728C10.1305 36.6728 10.3112 36.6728 10.5367 36.4927C10.7169 36.1204 10.5367 35.6355 10.8415 35.4552C11.2589 35.3309 11.6195 35.8838 11.9695 35.5114C12.1499 35.331 11.9695 35.094 11.9131 34.9704C11.8563 34.7897 11.6761 34.666 11.6761 34.4291C11.7214 34.2373 11.8563 34.1694 11.9131 34.0565C12.037 34.0565 12.3302 34.1694 12.4432 34.1694C12.6235 34.4291 12.804 34.5419 12.928 34.5419C13.0408 34.4291 13.0408 34.4291 13.1086 34.4291L13.1651 34.2373L13.0408 34.0566L12.8607 33.9325L12.7477 34.0566H12.6235L12.7477 33.9325C12.6235 33.9325 12.6235 33.9325 12.6235 33.9325H12.4994C12.4431 33.9325 12.3864 33.9325 12.3301 33.9325L11.9694 34.0566C11.913 34.0566 11.913 33.9325 11.913 33.9325C11.913 33.9325 11.913 34.0566 11.8563 34.0566L11.676 33.9325C11.5632 34.0566 11.3826 33.9325 11.3826 33.9325C11.2587 33.9325 11.2587 33.9325 11.2587 33.82H11.0781C10.8414 33.9325 10.9538 34.3498 11.0781 34.666C11.1344 34.7897 11.1344 35.0941 11.2587 35.2746C11.0781 35.0264 10.8976 34.7224 10.8414 34.2373C10.4801 34.7224 10.2433 35.4552 10.0741 36.1205C10.0178 35.4552 10.311 34.846 10.6042 34.3498L10.5365 34.2372C10.311 34.429 10.1869 34.6091 10.0178 34.6659V34.609C10.2433 34.2371 10.7846 34.1693 11.0216 33.7524C11.0216 33.5605 11.0216 33.5605 11.0216 33.5605H11.078L10.9538 33.3237H10.8413V33.2675C10.9538 33.2675 10.8413 33.0193 10.8976 33.0193H10.9538L10.8976 32.8952C10.9538 32.7709 11.0216 32.8952 11.0216 32.7709C11.078 32.7149 10.9538 32.7149 10.9538 32.6583L11.1342 32.4778H11.0779C11.0779 32.4216 11.0779 32.4216 11.0779 32.4216L11.1342 32.2974H10.9538C10.9538 32.2974 10.9538 32.2974 10.8976 32.2297L10.3109 32.354C10.2433 32.4777 10.3109 32.4777 10.3109 32.6582L10.7168 33.0192V33.2674C10.5365 33.3236 10.4801 33.4474 10.2433 33.5037C10.0741 33.5605 9.83697 33.5605 9.47629 33.8198C9.1718 33.8198 8.93482 33.9324 8.82216 34.1693C8.7543 34.4289 8.82216 34.5417 8.88967 34.609C9.1718 34.7222 9.47629 34.6659 9.65672 34.8459C9.83697 35.0939 9.71291 35.2745 9.65672 35.4551C9.40843 35.6354 9.35223 36.0073 9.40843 36.188C9.40843 36.436 9.47629 36.6163 9.71291 36.6727C9.83715 36.6728 9.83715 36.6728 9.89388 36.6728ZM11.7213 33.8199L13.2778 33.5605L13.0408 32.9629C12.804 32.7149 12.4432 32.7709 12.037 32.7709C12.037 32.7709 12.037 32.7709 11.9695 32.7149C11.9695 32.7149 12.037 32.7149 12.037 32.6583C12.3866 32.6583 12.7477 32.6583 12.8607 32.6583C12.804 32.2297 12.3302 31.8011 11.9695 31.4971C11.5633 31.3164 11.1344 31.5531 10.7848 31.4971C10.7848 31.4971 10.7169 31.4971 10.7848 31.4971C10.9539 31.3164 11.3827 31.3164 11.5633 31.3164C11.0218 30.9556 10.4803 30.4705 10.1305 29.8619C10.1305 29.7939 10.1305 29.7939 10.1305 29.7939C10.1305 29.7939 10.1305 29.7939 10.1871 29.7375C10.6044 30.3465 11.0782 30.9556 11.7214 31.1925L11.5633 30.3465C11.5633 30.3465 11.5634 30.3465 11.6196 30.3465C11.6196 30.2221 11.6762 30.2221 11.6762 30.3465L11.9132 31.2602C12.2628 31.5531 12.7478 31.8011 12.8608 32.2298V31.4971C12.8608 31.3164 12.8608 31.3164 12.8608 31.3164C12.9282 31.3164 12.9282 31.3164 12.9282 31.4971C13.041 31.9817 13.1088 32.4778 13.3455 33.0193C13.4474 32.6583 13.628 32.2974 13.8194 31.8011C13.8759 31.4971 13.8759 31.1925 13.6954 31.0118C13.6279 30.8313 13.3905 30.764 13.1088 30.8313C12.8608 30.9556 12.7478 31.0118 12.4433 30.9556C12.3302 30.8313 12.2628 30.764 12.2628 30.5834C12.3303 30.4704 12.3303 30.3465 12.2628 30.3465L11.439 29.9853C11.3827 30.0421 11.0783 30.0421 10.9541 30.0421C10.7171 29.5455 10.2436 29.5006 9.83733 29.1852C9.65707 29.2526 9.47656 29.3206 9.40869 29.5006V29.5455L9.3525 29.7375C9.40869 29.918 9.40869 30.1659 9.65699 30.3465C10.018 30.4705 10.5368 30.5834 10.6045 30.9556C10.6045 31.0797 10.5368 31.2602 10.3113 31.3164C10.1871 31.4971 9.89397 31.3164 9.71318 31.4971C9.71318 31.6323 9.83733 31.8011 9.89397 31.8011C10.018 31.8692 10.018 31.9816 10.0743 31.9816C10.1871 31.9816 10.3112 32.1055 10.4804 32.0495C10.8416 31.9817 11.3827 31.8011 11.6762 31.9816C11.8564 32.1055 11.9132 32.3541 11.9132 32.4215C11.7215 32.7148 11.3827 32.8951 11.1345 33.0192L11.0783 33.2674C11.1345 33.3236 11.3827 33.5037 11.5633 33.5605C11.5633 33.7524 11.6195 33.8199 11.7213 33.8199ZM17.5641 35.0263L17.9816 34.846C18.0835 34.7223 18.3316 34.429 18.0835 34.1693C18.0835 34.0564 17.9816 33.9325 17.9816 33.9325C17.8016 33.7525 17.5641 33.5606 17.4967 33.3237C17.4967 33.0193 17.9142 32.9629 17.8467 32.4778C17.7448 32.3541 17.4967 32.3541 17.3164 32.2298C17.0229 32.1055 16.9666 32.2298 16.7297 32.2298C16.6054 32.2298 16.4929 32.2298 16.3123 32.2298C16.2561 32.2298 16.1994 32.0496 16.019 31.9817C15.9515 31.6323 16.019 31.3164 15.8386 31.1926C15.7143 31.0119 15.4211 30.9557 15.173 31.0119C14.7105 31.1926 14.4736 31.4972 13.9321 31.8693H14.1127C14.3493 31.9818 14.1127 31.9818 14.1127 31.9818C14.1127 32.0497 14.1691 32.0497 14.1127 32.1057C14.1127 32.1057 14.1127 32.1057 13.9321 32.1057L13.8757 32.2975C13.8757 32.3543 13.9321 32.2299 13.9321 32.2975C14.1127 32.3543 13.9321 32.3543 13.9321 32.4218C13.9321 32.4218 13.8757 32.4218 13.8193 32.3543V32.4218L13.9321 32.478H13.8757C13.8757 32.478 13.9321 32.478 13.9321 32.6585V32.715C14.7104 32.478 15.0038 32.0497 15.5904 31.8013L15.3533 32.1057L14.767 32.478C15.0038 32.6585 15.3533 32.478 15.7143 32.6585C15.9515 32.715 16.2561 32.7711 16.4928 32.715C16.8424 32.715 17.1355 32.8954 17.4966 32.715C17.4966 32.8954 17.3163 32.9631 17.1354 33.0194C16.9666 33.0194 16.7295 32.9631 16.4927 32.9631C16.8423 33.2676 17.0792 33.8201 17.4965 34.1695C17.4965 34.1695 17.4965 34.2374 17.4965 34.1695C17.0228 34.0566 16.786 33.3238 16.3121 33.0194C16.3121 33.2676 16.4926 33.504 16.3121 33.9326C16.3121 33.9326 16.3121 33.9326 16.256 33.9326C16.3121 33.504 16.256 33.0194 15.9513 32.9631C15.4773 32.6585 14.9359 32.6585 14.4734 32.7711C14.5864 32.9631 14.823 33.0194 14.823 33.2676C14.823 33.3238 14.7668 33.3238 14.7668 33.2676C14.5864 33.0194 14.4734 32.9631 14.1689 32.9631L14.1125 33.0194H13.9319C13.9319 33.0194 13.9319 33.0194 13.8755 33.0194H13.6951C13.6951 33.0194 13.6951 33.0194 13.6951 33.1437C13.6951 33.1437 13.6951 33.1437 13.6951 33.2677C13.6951 33.2677 13.8192 33.2677 13.8192 33.1437C13.8756 33.1437 13.8756 33.2677 13.932 33.2677C13.932 33.3239 13.8756 33.3239 13.8756 33.3239C13.8192 33.3239 13.8192 33.3239 13.8192 33.3239H13.6951L13.6276 33.2677C13.6276 33.2677 13.6276 33.2677 13.6276 33.3239C13.6276 33.3239 13.6951 33.4478 13.6276 33.5041C13.5823 33.5041 13.5823 33.7526 13.5823 33.8202V33.9327H13.6276C13.6951 33.9327 13.6276 33.9327 13.6276 34.0568L13.8191 33.9327V34.0568H13.695L13.9318 34.1697C14.3492 34.2376 14.5863 34.0568 14.8229 33.9328C15.0035 33.7528 15.2967 33.5042 15.4209 33.7528C15.4772 33.7528 15.4772 33.8203 15.4772 33.8203C15.7707 33.9329 15.7707 34.5421 15.9512 34.7901C15.9512 34.7901 16.1991 34.7901 16.2559 34.7901C16.4925 34.6664 16.6052 34.3502 16.8421 34.4295C17.079 34.6095 17.1352 34.9708 17.4964 34.9708C17.4966 35.0263 17.5641 35.0263 17.5641 35.0263Z" fill="#00AE65"/>
<path fill-rule="evenodd" clip-rule="evenodd" d="M4.24232 25.3396C4.24232 25.3396 4.24232 25.3396 4.24232 25.2946C4.24232 25.2946 4.24232 25.2946 4.16306 25.2946C4.16306 25.3396 4.16306 25.3396 4.16306 25.3396H4.24232Z" fill="#221F20"/>
<path fill-rule="evenodd" clip-rule="evenodd" d="M30.6383 24.6179C30.7619 24.6179 30.7619 24.6179 30.7619 24.55L30.9992 24.2454C30.9992 24.2454 30.9992 24.2454 30.9992 24.3133C31.2362 24.0085 31.1231 23.7722 30.9992 23.3439C30.886 23.039 30.9992 22.6103 30.9992 22.1818C30.7619 22.7344 30.6383 23.2197 30.2885 23.7721C30.2885 24.0654 30.2885 24.3132 30.4127 24.5499C30.469 24.6179 30.6383 24.55 30.6383 24.6179ZM31.5404 23.3439L31.5968 23.2757C32.0709 22.7908 31.5968 22.0577 31.7773 21.5166C31.5968 22.0015 31.2362 22.6102 31.4165 23.1631C31.4166 23.2757 31.4166 23.3439 31.5404 23.3439ZM32.3641 22.7344C32.7815 22.4865 32.8489 22.0015 32.9056 21.6967C33.0294 21.1558 32.9056 20.6598 32.9056 20.2986C32.6008 20.7952 32.3641 21.28 32.0709 21.9453C32.0142 22.1818 32.0709 22.4302 32.1948 22.6102L32.3641 22.7344ZM32.0709 24.0085C32.3641 23.8847 32.6008 23.5801 32.7815 23.2198C32.9057 22.8473 33.0294 22.6102 33.1424 22.1819C32.7815 22.6103 32.3642 22.8474 32.0143 23.2198C31.9579 23.344 31.7774 23.7043 31.7774 23.7722C31.9579 23.8847 31.9579 23.8847 32.0709 24.0085ZM31.5404 25.1701C31.7773 25.1701 31.9579 24.99 32.0709 24.8546C32.3641 24.55 32.6008 24.2454 32.7815 23.8847C32.3641 24.3133 31.5968 24.1329 31.3035 24.6178C31.2362 24.742 31.2362 24.7983 31.2362 24.9899C31.3035 25.1139 31.4166 25.1701 31.5404 25.1701ZM27.7388 28.937C28.45 28.937 28.9909 28.6888 29.634 28.2715C29.2847 28.0909 28.8559 28.328 28.45 28.2715H28.8559C29.4537 27.8317 29.8147 26.9295 30.3452 26.6251L30.582 26.3773C30.762 26.6251 30.9993 26.6251 31.4166 26.3773C31.9579 26.0163 32.1948 25.4072 32.4315 24.8546C32.0709 25.2154 31.5404 25.4072 30.886 25.5877C30.7618 25.7792 30.5819 25.8354 30.5819 26.1965C30.5819 26.3772 30.0516 26.6929 29.8711 26.9294C29.3974 27.4821 28.45 27.2229 28.0888 27.9673C28.0888 28.0235 28.0888 28.0908 28.0888 28.0908L28.3935 28.2714C28.3935 28.2714 28.2693 28.2714 28.213 28.2714C27.9646 28.2714 27.7388 28.3279 27.5022 28.5084L27.3216 28.6886C27.3216 28.8803 27.3783 28.8803 27.3783 28.9368H27.7388V28.937ZM28.9235 27.2229C29.0928 27.2229 29.2847 27.1663 29.4536 26.8731C29.8711 26.1964 30.2884 25.4071 30.7618 24.7419C30.2884 25.4071 29.8145 26.0163 28.9234 26.3771C28.6867 26.625 28.5737 26.8054 28.6304 26.9294C28.6304 27.1208 28.6304 27.1663 28.6867 27.1663C28.6868 27.2229 28.8559 27.2229 28.9235 27.2229ZM27.7955 27.9674C27.9645 28.0236 28.0888 27.8318 28.213 27.7189C28.45 26.8055 28.6868 26.0163 29.2847 25.5312L29.3974 25.7119C29.7586 25.5312 29.9389 25.1701 30.0517 24.8546C30.0517 24.55 30.0517 24.1329 30.1194 23.7722C29.939 23.8847 29.8147 24.2454 29.6341 24.55C29.5214 24.742 29.3975 24.8546 29.3975 25.1701L29.6341 24.8546C29.7586 24.8546 29.7586 24.8546 29.8147 24.99L29.2848 25.4073C28.6306 26.0164 28.1454 26.6931 27.7389 27.2231C27.7389 27.4822 27.7389 27.7757 27.7389 27.8997C27.7388 27.8996 27.7388 27.9674 27.7955 27.9674ZM27.0847 28.6887C27.2653 28.6887 27.3782 28.5085 27.5022 28.3279C27.5589 27.8995 27.5022 27.2229 27.7956 26.8731C27.5022 27.1209 27.1414 27.482 26.961 27.8317C26.9045 28.0235 26.7803 28.3279 26.9045 28.5085C26.9045 28.6887 26.9609 28.6887 27.0847 28.6887ZM25.9457 29.354L26.3632 29.2413C26.5436 28.8803 26.5436 28.2714 26.7803 27.7188C26.307 28.0235 25.8894 28.5084 25.8327 29.1171C25.8327 29.1738 25.8894 29.2413 25.8894 29.3539H25.9457V29.354ZM24.9977 30.155C25.1784 30.155 25.3589 30.0307 25.4829 29.9743C25.6522 29.7263 25.6522 29.1739 25.6522 28.8804C25.7763 28.6888 25.8325 28.5085 25.8325 28.328C25.5394 28.6888 25.1219 29.1739 24.8286 29.5454C24.8286 29.8505 24.8286 29.9743 24.9413 30.0307L24.9977 30.155ZM23.8699 31.0004C23.9379 30.9438 24.231 30.9438 24.2872 30.7638C24.592 30.155 24.592 29.3086 24.9977 28.9369H25.1221C25.1221 28.9369 25.1221 28.9369 24.9977 28.9369C24.5354 29.2413 23.87 29.9066 23.5767 30.5723C23.6894 30.7637 23.6894 30.8203 23.6894 30.9438L23.8699 31.0004ZM22.5614 31.6206C22.8662 31.6206 23.0352 31.4854 23.1029 31.2486C23.4527 30.7638 23.5767 29.9742 23.8699 29.5453C23.3961 29.7824 22.9788 30.155 22.505 30.5723C22.392 30.8203 22.2116 31.0679 22.392 31.4854C22.4487 31.553 22.505 31.6206 22.5614 31.6206ZM20.9597 32.4667C21.2531 32.4667 21.3771 32.4101 21.6705 32.1054C22.0315 31.6206 22.0315 30.7638 22.505 30.2111C21.7829 30.5723 21.253 31.1807 20.7792 31.7901C20.5987 31.9703 20.5987 32.2858 20.7792 32.41C20.7792 32.4667 20.903 32.4667 20.9597 32.4667ZM19.719 33.3126C20.1251 33.2556 20.1814 32.7707 20.3618 32.4667C20.5987 31.6206 20.9597 31.0004 21.377 30.5723C20.5988 31.0004 19.6509 31.7903 19.3578 32.7708C19.3578 32.9515 19.3578 33.0192 19.4143 33.1319C19.471 33.2557 19.5945 33.2557 19.719 33.3126ZM18.3426 33.8085C18.5793 33.7407 18.7601 33.4363 18.8161 33.2557C19.3578 32.4102 19.5945 31.553 20.3617 30.9439C19.3578 31.305 18.4103 32.0381 17.8687 33.1319C17.8126 33.3126 17.8687 33.4363 17.9252 33.4926C17.9933 33.5605 18.1058 33.7407 18.3426 33.8085ZM28.9908 29.1739C29.2847 29.1739 29.2847 29.1739 29.5777 29.1739C30.1193 28.8804 30.6383 28.328 31.1231 27.9674C30.7619 28.0236 30.2885 28.2715 29.9389 28.2715C29.8146 28.0909 29.9389 28.0909 29.9389 28.0909C29.9952 28.0236 30.1193 27.8996 30.1193 27.8318V27.7756L30.886 27.223L30.2884 27.8318C30.6383 27.8318 30.9543 27.5951 31.3035 27.223C31.5967 27.121 31.7772 26.8055 32.0141 26.3773C31.9577 26.3773 31.9577 26.6251 31.7772 26.6251C31.1229 26.8055 30.4125 26.6251 29.9387 27.1664C29.9387 27.223 29.9387 27.223 29.9387 27.223L30.4124 26.8732H30.4688C30.4124 27.223 29.995 27.4143 29.871 27.7189C29.871 27.7756 29.9387 27.7756 29.995 27.8318C29.995 27.9674 29.9387 28.0236 29.8145 28.0909V28.2715C29.5776 28.5085 29.0928 28.6888 28.9234 28.8804C28.9234 28.8804 28.9234 28.8804 28.9234 28.937L29.8145 28.5085C29.7584 28.6887 29.5212 28.6887 29.3972 28.8804C29.2845 28.937 29.0927 28.937 28.9234 29.1739H28.9908ZM28.213 30.3917C28.5738 30.3352 28.9236 30.2112 29.2847 30.0306C29.7585 29.9066 29.9952 29.7262 30.4126 29.1738C29.9389 29.3539 29.4536 29.5453 28.9235 29.4893C28.5738 29.8504 27.9645 29.9066 27.7388 30.2111C27.7388 30.3352 27.8519 30.3352 27.9645 30.3352C28.0888 30.2111 28.1452 30.0306 28.2129 30.0306C28.2693 30.0306 28.3934 30.0306 28.3934 30.0306L28.0887 30.3352C28.0887 30.3917 28.1453 30.3353 28.213 30.3917ZM26.9045 31.553C27.2654 31.4855 27.5589 31.305 27.9082 31.305C28.2694 31.0004 28.7433 30.9439 29.093 30.5723C28.9909 30.5723 28.9237 30.7638 28.6869 30.5723C28.3936 30.7638 28.0888 30.5723 27.7388 30.5723L26.3069 31.305C26.3632 31.4855 26.4871 31.553 26.5436 31.4855C26.9045 31.4855 27.2653 31.1808 27.5589 31.068C27.5589 31.068 27.5589 31.068 27.6152 31.1808L26.9045 31.553ZM25.483 32.7035C26.3632 32.7035 27.3216 32.2297 28.0888 31.7903C28.1454 31.7903 28.2131 31.7903 28.2131 31.7903C28.1454 31.7903 27.9647 31.7903 27.9082 31.7903C26.6674 31.7903 25.6524 31.9705 24.5354 32.4668C24.5921 32.6473 24.8288 32.6473 24.9415 32.6473C25.5397 32.4668 25.8895 32.4102 26.3633 32.2297C26.4196 32.2297 26.4196 32.2297 26.4873 32.2297C26.4873 32.3426 26.3633 32.3426 26.3633 32.4102C25.9458 32.4668 25.6525 32.6473 25.359 32.7035H25.483V32.7035ZM24.7047 33.4926C25.122 33.4926 25.8326 33.3126 26.3631 33.1319C25.5958 33.2557 24.7047 32.6473 23.8699 33.2557C23.8136 33.2557 23.5767 33.2557 23.4526 33.3126C23.9378 33.4926 24.5919 33.2557 25.1784 33.1319L25.3025 33.2558C24.9977 33.4363 24.7047 33.3127 24.4114 33.4927H24.7047V33.4926ZM23.4527 34.7108C23.9942 34.7108 24.7047 34.7108 25.483 34.7108C25.6523 34.7108 25.8327 34.7108 26.0131 34.654L26.4871 33.9212C25.7764 33.9212 24.9414 34.0454 24.1746 34.0454C24.0504 34.0454 24.1746 34.1582 24.0504 34.1582C23.9941 34.2371 23.9941 34.1582 23.9941 34.1582H23.9378C23.8698 34.1582 23.9378 34.1582 23.9378 34.2371L23.8698 34.1582C23.8135 34.1582 23.8135 34.1582 23.8135 34.1582H23.6893V34.2371C23.6893 34.2371 23.6893 34.2371 23.6893 34.3388L23.5767 34.1582H23.4526C23.396 34.1582 23.396 34.2372 23.396 34.3388L23.0351 34.4174H22.9787C22.8661 34.4174 22.9787 34.4174 22.8661 34.4174L22.6853 34.5979L23.4527 34.7108ZM23.9942 35.8722C23.9942 35.8722 23.9942 35.8722 24.0505 35.8722L24.4115 34.9591C23.3287 34.8349 22.2117 34.7108 21.2531 34.5304C21.0838 34.5304 21.0838 34.4173 21.0838 34.4173C21.0838 34.5304 21.0163 34.5304 21.0163 34.5304C20.9597 34.5979 20.7793 34.5304 20.7793 34.5979L20.4859 34.4174C20.4859 34.5305 20.4182 34.5305 20.3618 34.5305C20.3052 34.4174 20.1815 34.4174 20.1251 34.4174H20.0011C20.0011 34.4174 20.0011 34.4174 19.9558 34.4174C19.9558 34.4174 20.0011 34.4174 19.9558 34.4174C19.8993 34.4174 19.8993 34.2372 19.7639 34.2372C19.7639 34.3389 19.7639 34.3389 19.7639 34.4174C19.719 34.4174 19.6509 34.4174 19.5946 34.4174V34.3388C19.471 34.2371 19.471 34.2371 19.471 34.2371C19.4143 34.2371 19.4143 34.2371 19.3578 34.2371L19.3016 34.1582L19.121 34.0454L18.3426 34.5978V34.7108V34.7784C18.4104 34.7784 18.3426 34.7108 18.4104 34.6541C18.4104 34.6541 18.5231 34.6541 18.5793 34.6541L18.636 34.4174C18.7038 34.4174 18.7038 34.4174 18.7601 34.4174L18.8162 34.3388L18.9967 34.4174L19.5946 34.5305C20.0011 34.7108 20.4859 34.8351 21.0163 35.0829C22.0315 35.4437 23.0352 35.6238 23.9942 35.8722ZM20.4182 34.2371C21.2531 34.2371 22.0315 34.1581 22.9789 33.9212C23.272 33.9212 23.4527 33.8084 23.8137 33.5604C22.5614 33.9212 21.3771 33.3126 20.1815 33.2556C19.9558 33.2556 19.764 33.3126 19.764 33.5604C19.764 33.9212 19.764 34.0453 19.8995 34.1581C20.0011 34.1582 20.3052 34.1582 20.4182 34.2371ZM21.7829 33.3126C22.505 33.3126 23.1029 33.2556 23.87 33.0191C23.9942 33.0191 24.2873 33.0191 24.5354 32.8951C24.2873 32.8951 23.938 32.8951 23.87 32.7707C22.9789 32.6472 22.0315 32.2296 21.2531 32.4667C21.0838 32.6472 21.0838 32.8951 21.0838 33.0191C21.2531 33.1319 21.3771 33.2556 21.5461 33.2556C21.6253 33.3126 21.6705 33.3126 21.7829 33.3126ZM23.1029 32.4667C23.5767 32.4667 23.9379 32.4667 24.4114 32.4101C24.7047 32.3424 24.9977 32.2296 25.3025 32.0381C24.7047 32.0381 24.0504 31.6205 23.5767 31.553C23.2719 31.553 22.9788 31.6206 22.8095 31.7902C22.5614 31.7902 22.505 32.0381 22.5614 32.3424C22.6855 32.3424 22.6855 32.4101 22.6855 32.4101L23.1029 32.4667ZM24.592 31.6206C25.3026 31.6206 25.9457 31.4855 26.5436 31.0004C25.8327 31.0004 24.9977 30.5723 24.231 30.9438C24.0505 31.0004 23.9379 31.2486 23.9942 31.3049C24.0505 31.553 24.231 31.6206 24.4115 31.6206C24.5353 31.6206 24.5353 31.6206 24.592 31.6206ZM25.8326 30.7638C25.9457 30.7638 26.3068 30.7638 26.3631 30.7638C26.7802 30.5723 27.0847 30.3352 27.3781 30.155C26.9044 30.2112 26.3068 30.0307 25.6522 30.0307C25.5957 30.0307 25.5957 30.0307 25.4829 30.0307C25.3588 30.155 25.3025 30.3353 25.3588 30.4592C25.3588 30.5723 25.4829 30.5723 25.4829 30.5723C25.5958 30.7638 25.6523 30.7638 25.8326 30.7638ZM26.6673 29.9066C27.0847 29.9066 27.5589 29.8504 27.9645 29.5453C28.0888 29.4893 28.2129 29.3086 28.4499 29.2413L28.5738 29.1738H28.6868C28.5738 29.1738 28.45 29.1738 28.2693 29.1738C27.9645 29.2413 27.6151 29.1738 27.3214 29.1738C26.9608 29.1738 26.6672 29.1171 26.4194 29.2413C26.3067 29.354 26.2501 29.5453 26.3067 29.7824C26.3067 29.8504 26.3067 29.8504 26.3067 29.9066H26.6673ZM22.2116 36.481C22.6854 36.4247 23.0352 36.4247 23.5767 36.1768C23.5767 36.109 23.5767 36.109 23.5767 36.109C23.5767 36.109 23.4526 36.109 23.5767 36.109H23.2719C23.2719 36.1768 23.0352 36.109 23.0352 36.109C23.1029 36.109 23.0352 36.109 23.0352 36.109H22.9788L22.2116 36.481ZM25.122 35.2632L25.483 35.0828C25.483 35.0828 25.3589 35.0263 25.3589 35.0828C25.3589 35.0828 25.3025 35.0828 25.1785 35.0828C25.122 35.0828 25.122 35.0828 24.9977 35.2632H25.122ZM17.9933 32.4102C18.4104 31.9705 18.76 31.4855 19.1771 31.0004C18.5793 31.2486 18.0495 31.6207 17.6884 32.0381L17.8687 32.286C17.9252 32.286 17.9252 32.4102 17.9933 32.4102ZM17.5759 31.7903C17.7561 31.7903 17.8127 31.6207 17.9252 31.553C17.9934 31.4855 17.9934 31.305 18.0496 31.0681C18.0496 31.0681 18.0496 31.0681 17.9934 31.0004C17.8128 30.9439 17.508 31.0004 17.3273 31.0681C17.1469 31.0681 17.1469 31.0681 17.1469 31.0681C17.3273 31.305 17.508 31.4856 17.508 31.6207C17.5079 31.7903 17.5079 31.7903 17.5759 31.7903Z" fill="#FCEE21"/>
<path fill-rule="evenodd" clip-rule="evenodd" d="M4.7388 28.1474H4.8291L4.8625 28.1141C4.8625 28.1141 4.7388 28.1141 4.70486 28.1474H4.7388Z" fill="#221F20"/>
<path fill-rule="evenodd" clip-rule="evenodd" d="M4.7388 28.035H4.8291C4.7388 27.9897 4.7388 27.9897 4.70486 27.9897L4.7388 28.035Z" fill="#221F20"/>
<path fill-rule="evenodd" clip-rule="evenodd" d="M6.79157 27.5271C6.79157 27.4822 6.75764 27.4375 6.75764 27.3471C6.75764 27.3019 6.79157 27.3019 6.79157 27.3019C6.79157 27.2116 6.87083 27.2116 6.79157 27.1665L6.63385 27.3019C6.63385 27.3471 6.75764 27.3471 6.75764 27.4822C6.75764 27.4822 6.75764 27.4822 6.66751 27.5271H6.63385C6.66751 27.6062 6.75764 27.4822 6.79157 27.5271C6.79157 27.6062 6.79157 27.5271 6.79157 27.5271Z" fill="#FEFEFE"/>
<path fill-rule="evenodd" clip-rule="evenodd" d="M6.88196 27.4375H6.92711C6.92711 27.347 6.92711 27.3019 6.92711 27.3019L6.88196 27.3471V27.4375Z" fill="#FEFEFE"/>
<path fill-rule="evenodd" clip-rule="evenodd" d="M6.23895 26.9185C6.23895 26.8844 6.19371 26.8844 6.19371 26.8844C6.11463 26.8844 6.11463 26.8844 6.19371 26.8844C6.19371 26.8844 6.19371 26.9185 6.23895 26.9185Z" fill="#FEFEFE"/>
<path fill-rule="evenodd" clip-rule="evenodd" d="M1.23056 23.3549C1.23056 23.3549 1.23056 23.3549 1.28685 23.3549L1.23056 23.2308L1.10651 23.1741V23.3548H1.23056V23.3549ZM1.3995 23.3549C1.52392 23.3549 1.52392 23.3549 1.52392 23.2869C1.52392 23.2869 1.52392 23.2869 1.52392 23.2308C1.39951 23.2308 1.39951 23.2308 1.34322 23.2308C1.34322 23.2308 1.34322 23.2869 1.34322 23.3549C1.39951 23.3549 1.3995 23.3549 1.3995 23.3549ZM1.34322 23.0501V22.8588C1.34322 22.8588 1.34322 22.8588 1.28685 22.8588L1.34322 23.0501ZM1.63658 23.0501V22.8588C1.63658 22.8588 1.5802 22.8588 1.52392 22.8588L1.5802 23.0501C1.5802 23.0501 1.5802 23.0501 1.63658 23.0501ZM1.28685 22.7457H1.34322V22.6219C1.28685 22.6219 1.28685 22.6219 1.28685 22.7457ZM3.24976 24.0765L3.41862 23.8956V23.7834H3.24976V23.8956C3.24976 24.0202 3.1258 24.0202 3.24976 24.0765ZM3.4187 23.7834L3.48648 23.5916V23.3549C3.4187 23.3549 3.4187 23.2308 3.4187 23.1742V23.0501V22.8588C3.4187 22.8588 3.4187 22.8588 3.4187 22.8023L3.24985 22.4412C3.01269 22.8023 3.24985 23.0501 3.4187 23.2869C3.4187 23.2869 3.4187 23.2869 3.4187 23.3549C3.4187 23.3549 3.4187 23.3549 3.4187 23.5354V23.7834ZM10.0855 30.7752C10.0855 30.7752 10.0855 30.5833 10.029 30.5833C10.029 30.5833 10.029 30.5833 10.029 30.7752H10.0855ZM8.17918 34.3611L8.3597 34.2484C8.48367 34.1692 8.3597 34.1692 8.3597 34.0564H8.17918C8.12272 34.1693 8.17918 34.1693 8.17918 34.3611ZM16.3236 31.9816H16.504V31.8011V31.8691C16.3236 31.9817 16.3236 31.8691 16.267 31.9817C16.3236 31.9816 16.3236 31.9816 16.3236 31.9816ZM17.0342 31.8691V31.801C17.0342 31.6322 17.0342 31.6322 16.978 31.801C16.978 31.801 16.978 31.801 16.978 31.8691C16.9781 31.8691 16.9781 31.8691 17.0342 31.8691ZM16.7409 31.9816C16.7409 31.9816 16.7409 31.9816 16.7973 31.8691V31.801C16.7973 31.801 16.7409 31.801 16.6283 31.801V31.8691L16.7409 31.9816ZM16.7409 31.6322C16.7409 31.6322 16.7409 31.6322 16.7973 31.6322V31.497C16.7973 31.497 16.7409 31.497 16.6283 31.497C16.6283 31.497 16.6283 31.5641 16.6283 31.6322H16.7409ZM17.0342 31.3163H17.0903C17.0903 31.2601 17.0342 31.1924 17.0342 31.1924C17.0342 31.1924 17.0342 31.1924 16.978 31.1924V31.3163C17.0342 31.3163 17.0342 31.3163 17.0342 31.3163ZM17.1468 31.8691C17.3273 31.8691 17.3273 31.8691 17.3273 31.801C17.3273 31.6322 17.3273 31.6322 17.1468 31.801V31.8691ZM14.1801 34.609C14.3606 34.609 14.3606 34.609 14.3606 34.609C14.3606 34.609 14.3606 34.609 14.3606 34.5417V34.4289C14.3606 34.4289 14.1801 34.4289 14.1801 34.5417V34.609ZM14.3606 34.8459C14.3606 34.8459 14.3606 34.8459 14.3606 34.7895C14.4845 34.7895 14.3606 34.7895 14.3606 34.7222C14.1801 34.7222 14.1801 34.7222 14.1801 34.7895C14.3606 34.7895 14.3606 34.7895 14.3606 34.8459ZM14.7782 35.2745L15.1955 35.0378L14.7782 34.7223L14.7217 35.2745H14.7782ZM7.70531 34.429C7.70531 34.429 7.76177 34.429 7.76177 34.3611L7.70531 34.1693C7.70531 34.1693 7.70531 34.2485 7.70531 34.3611C7.70531 34.3611 7.70531 34.3611 7.70531 34.429ZM7.94247 34.429H7.99875C8.12281 34.3611 7.99875 34.2485 7.99875 34.1693H7.94247C7.81841 34.1693 7.94247 34.2484 7.94247 34.429ZM7.81841 34.0564C7.94247 34.0564 7.94247 34.0564 7.94247 33.9323C7.94247 33.9323 7.81841 33.9323 7.81841 34.0564ZM8.12272 33.9323C8.12272 33.9323 8.12272 33.9323 8.17918 33.9323C8.3597 33.9323 8.17918 33.9323 8.17918 33.8198H8.12272C8.12272 33.9323 8.12272 33.9323 8.12272 33.9323ZM8.54031 34.6659V34.429H8.3597C8.3597 34.609 8.48367 34.609 8.54031 34.7223V34.6659ZM5.81017 31.0117L5.86689 30.9555C5.86689 30.9555 5.81017 30.9555 5.81017 30.8312C5.81017 30.8312 5.62974 30.8312 5.62974 30.9555C5.62974 30.9556 5.62974 30.9556 5.81017 31.0117ZM6.03602 30.8312V30.7752C6.03602 30.7752 6.03602 30.5833 5.97946 30.5833V30.7752C5.97955 30.7752 5.97955 30.8312 6.03602 30.8312ZM6.27291 30.5833V30.4704C6.27291 30.4704 6.27291 30.4704 6.0361 30.4704L6.27291 30.5833ZM6.03602 30.3464C6.03602 30.2221 6.03602 30.2221 5.97946 30.1659C5.97946 30.1659 5.97946 30.1659 5.97946 30.2221C5.97955 30.3464 5.97955 30.3464 6.03602 30.3464ZM5.81017 30.5833C5.8669 30.5833 5.8669 30.5833 5.97946 30.4704C5.97946 30.4029 5.86681 30.4029 5.81017 30.3463L5.62974 30.4029L5.81017 30.5833ZM5.56205 30.3464C5.62973 30.3464 5.62974 30.3464 5.62974 30.3464C5.62974 30.1659 5.56205 30.042 5.50568 30.042H5.44939V30.1659C5.50568 30.2221 5.50568 30.3464 5.50568 30.3464H5.56205ZM5.50568 30.7752H5.62974C5.62974 30.5833 5.56205 30.5833 5.50568 30.5833H5.44939L5.50568 30.7752ZM7.59265 31.2601C7.70531 31.2601 7.70531 31.2601 7.70531 31.2601C7.70531 31.1925 7.59265 31.1925 7.59265 31.2601ZM6.87075 27.2341C6.81411 27.1775 6.81411 27.1324 6.75756 26.9408L6.63377 26.8842H6.57722C6.57722 26.8842 6.57722 26.8842 6.57722 26.9408C6.57722 26.9408 6.57722 26.9408 6.57722 27.1324C6.63377 27.2341 6.75747 27.1324 6.81402 27.1324C6.81402 27.1775 6.81402 27.1775 6.81402 27.2341H6.87075ZM24.0506 32.6583H24.4115C24.2873 32.4778 23.938 32.4778 23.87 32.6583H24.0506ZM22.6855 33.5038H23.34C23.272 33.3236 22.9789 33.3236 22.8096 33.4474C22.6855 33.4474 22.6855 33.4474 22.5051 33.4474C22.5614 33.5038 22.6855 33.5038 22.6855 33.5038ZM29.0929 28.1023L29.8146 27.7307V27.4937L29.0929 28.1023ZM29.9389 26.3884L30.8862 25.1819C30.6493 25.5425 30.0516 25.9146 29.9389 26.3884ZM29.5777 25.8473C29.8146 25.7905 29.939 25.5425 29.9952 25.4186C29.939 25.3617 29.9952 25.2379 29.9952 25.2379L29.5214 25.8473H29.5777ZM28.9235 26.3319L28.9908 26.2077L29.2847 25.8473L28.8559 26.3318H28.9235V26.3319Z" fill="#FEFEFE"/>
<path fill-rule="evenodd" clip-rule="evenodd" d="M17.0792 0C25.6749 0 32.6914 7.02583 32.6914 15.6185C32.6914 24.2006 25.6749 31.226 17.0792 31.226C8.47245 31.226 1.45615 24.2005 1.45615 15.6185C1.45624 7.02583 8.47254 0 17.0792 0ZM17.0903 1.10529C25.0769 1.10529 31.5968 7.62323 31.5968 15.6076C31.5968 23.5916 25.0769 30.1209 17.0903 30.1209C9.0816 30.1209 2.57266 23.5916 2.57266 15.6076C2.57275 7.62332 9.08169 1.10529 17.0903 1.10529Z" fill="#D1AB66"/>
<path fill-rule="evenodd" clip-rule="evenodd" d="M17.102 2.88733C24.0957 2.88733 29.8146 8.59297 29.8146 15.596C29.8146 22.5991 24.0957 28.328 17.102 28.328C10.0855 28.328 4.35486 22.5991 4.35486 15.596C4.35486 8.59297 10.0855 2.88733 17.102 2.88733Z" fill="#0054A6"/>
<path fill-rule="evenodd" clip-rule="evenodd" d="M17.113 0.598145C25.3589 0.598145 32.0931 7.34175 32.0931 15.6077C32.0931 23.8738 25.3589 30.6059 17.113 30.6059C8.82225 30.6059 2.07632 23.8738 2.07632 15.6077C2.07632 7.34175 8.82234 0.598145 17.113 0.598145Z" fill="#0097C3"/>
<path fill-rule="evenodd" clip-rule="evenodd" d="M17.0902 5.4248C22.6969 5.4248 27.2653 9.99185 27.2653 15.6077C27.2653 21.2122 22.6969 25.7793 17.0902 25.7793C11.4729 25.7793 6.90448 21.2122 6.90448 15.6077C6.90448 9.99185 11.4729 5.4248 17.0902 5.4248Z" fill="#ED1B23"/>
<path fill-rule="evenodd" clip-rule="evenodd" d="M17.0792 3.14636C23.949 3.14636 29.5439 8.72857 29.5439 15.6186C29.5439 22.4754 23.949 28.0687 17.0792 28.0687C10.2093 28.0687 4.61447 22.4753 4.61447 15.6186C4.61447 8.72857 10.2094 3.14636 17.0792 3.14636Z" fill="#E00034"/>
<path fill-rule="evenodd" clip-rule="evenodd" d="M17.0903 5.62769C22.6065 5.62769 27.0735 10.0931 27.0735 15.6077C27.0735 21.1219 22.6066 25.5879 17.0903 25.5879C11.5743 25.5879 7.10736 21.122 7.10736 15.6077C7.10745 10.093 11.5744 5.62769 17.0903 5.62769Z" fill="#00AE65"/>
<path fill-rule="evenodd" clip-rule="evenodd" d="M20.1814 8.10845L27.6715 5.01842L24.5692 12.5289L32.0931 15.6076L24.5692 18.7203L27.6715 26.219L20.1704 23.1178L17.0792 30.6173L13.9772 23.1178L6.46453 26.219L9.56658 18.7203L2.06509 15.6076L9.56658 12.5289L6.46453 5.01842L13.9547 8.10845L17.0792 0.598145L20.1814 8.10845Z" fill="#D1AB66"/>
<path fill-rule="evenodd" clip-rule="evenodd" d="M19.6737 9.37148L25.8893 6.81197L23.3059 13.0479L29.5554 15.6077L23.3059 18.1897L25.8893 24.4152L19.6509 21.8438L17.0902 28.0688L14.5072 21.8438L8.28059 24.4152L10.8524 18.1897L4.62576 15.6077L10.8524 13.0479L8.28059 6.81197L14.4962 9.37148L17.0902 3.14636L19.6737 9.37148Z" fill="#FEFEFE"/>
<path fill-rule="evenodd" clip-rule="evenodd" d="M19.5607 9.61919L25.5283 7.17225L23.0462 13.1493L29.0478 15.6077L23.0462 18.0771L25.5283 24.054L19.5498 21.5844L17.0903 27.561L14.609 21.5844L8.63026 24.054L11.112 18.0771L5.12228 15.6077L11.112 13.1493L8.63026 7.17225L14.5976 9.61919L17.0903 3.64246L19.5607 9.61919Z" fill="#FEFEFE"/>
<path fill-rule="evenodd" clip-rule="evenodd" d="M19.087 20.4792C20.0573 19.5767 20.6778 18.6069 20.9257 17.4457C21.5237 14.5251 19.3354 12.6418 18.2411 10.8151C18.4217 12.9458 19.9557 14.6489 19.8201 16.8366C19.8764 18.111 19.7638 19.3287 19.1548 20.2423C19.087 20.3666 19.087 20.4792 19.087 20.4792ZM16.6053 21.1558C17.0228 21.2235 17.271 20.8514 17.6885 20.8514C17.7561 21.0885 18.1169 21.0885 18.4218 21.0321C18.8503 20.6708 19.087 20.2423 19.2787 19.6335C19.8202 18.1789 19.6399 16.5997 19.1549 14.9535C18.6693 12.9459 17.2709 11.4238 17.3272 9.22498C15.5564 12.6418 18.6693 16.2279 17.7561 19.6335C17.7561 19.6899 17.7561 19.7577 17.7561 19.9381C17.6884 19.9381 17.4512 19.9381 17.3272 19.7577C17.0228 18.9682 17.7561 17.6825 17.4513 16.5998C17.4513 16.228 17.3272 15.9795 17.271 15.6756C17.0793 14.9536 16.8423 14.2321 16.7184 13.4312C16.7184 13.2505 16.7184 12.9459 16.6053 12.6418C16.4813 12.3373 16.4813 11.6608 16.4813 11.1758C16.4813 11.1194 16.4813 10.9387 16.4813 10.8152C15.5001 12.0216 14.9472 13.7923 15.0712 15.6186C15.2068 16.1601 15.2631 16.5998 15.5001 17.2654C15.6243 18.0546 16.109 18.6069 16.109 19.3287C16.109 19.3968 15.9963 19.3968 15.9288 19.3968C14.7103 18.2354 14.891 16.2279 14.7103 14.649C14.7103 14.333 14.7103 14.0962 14.7103 13.7357V13.7923C14.0449 14.8295 13.6838 16.2844 13.8078 17.5588C14.0449 18.1789 14.1012 18.7876 14.5297 19.3288C14.3493 18.6636 14.1575 18.111 14.2816 17.4458C14.3493 17.4458 14.3493 17.4458 14.4058 17.4458C14.5975 18.7877 14.9472 20.2424 15.9963 20.9753C16.2335 21.0321 16.3573 21.0885 16.6053 21.1558Z" fill="#E00034"/>
<path fill-rule="evenodd" clip-rule="evenodd" d="M23.1342 28.3281C23.1342 28.6502 22.8728 28.9119 22.5504 28.9119C22.2279 28.9119 21.9662 28.6502 21.9662 28.3281C21.9662 28.0052 22.2279 27.7438 22.5504 27.7438C22.8728 27.7438 23.1342 28.0052 23.1342 28.3281Z" fill="#D1AB66"/>
<path d="M29.8147 21.4664C30.1372 21.4664 30.3986 21.2049 30.3986 20.8824C30.3986 20.5599 30.1372 20.2985 29.8147 20.2985C29.4922 20.2985 29.2307 20.5599 29.2307 20.8824C29.2307 21.2049 29.4922 21.4664 29.8147 21.4664Z" fill="#D1AB66"/>
<path fill-rule="evenodd" clip-rule="evenodd" d="M30.3986 10.4658C30.3986 10.7882 30.1372 11.0496 29.8146 11.0496C29.492 11.0496 29.2307 10.7881 29.2307 10.4658C29.2307 10.1431 29.492 9.88171 29.8146 9.88171C30.1372 9.88171 30.3986 10.1431 30.3986 10.4658Z" fill="#D1AB66"/>
<path fill-rule="evenodd" clip-rule="evenodd" d="M22.9634 2.8873C22.9634 3.20968 22.7018 3.47089 22.3793 3.47089C22.0567 3.47089 21.7954 3.20968 21.7954 2.8873C21.7954 2.56455 22.0567 2.30334 22.3793 2.30334C22.7018 2.30334 22.9634 2.56455 22.9634 2.8873Z" fill="#D1AB66"/>
<path fill-rule="evenodd" clip-rule="evenodd" d="M12.2377 2.8873C12.2377 3.20968 11.9762 3.47089 11.6539 3.47089C11.3313 3.47089 11.0699 3.20968 11.0699 2.8873C11.0699 2.56455 11.3313 2.30334 11.6539 2.30334C11.9763 2.30334 12.2377 2.56455 12.2377 2.8873Z" fill="#D1AB66"/>
<path fill-rule="evenodd" clip-rule="evenodd" d="M4.93908 10.4658C4.93908 10.7882 4.6776 11.0496 4.35522 11.0496C4.03247 11.0496 3.77109 10.7881 3.77109 10.4658C3.77109 10.1431 4.03247 9.88171 4.35522 9.88171C4.6776 9.88171 4.93908 10.1431 4.93908 10.4658Z" fill="#D1AB66"/>
<path d="M4.35513 21.4664C4.67763 21.4664 4.93908 21.2049 4.93908 20.8824C4.93908 20.5599 4.67763 20.2985 4.35513 20.2985C4.03262 20.2985 3.77118 20.5599 3.77118 20.8824C3.77118 21.2049 4.03262 21.4664 4.35513 21.4664Z" fill="#D1AB66"/>
<path fill-rule="evenodd" clip-rule="evenodd" d="M12.2377 28.3281C12.2377 28.6502 11.9762 28.9119 11.6539 28.9119C11.3313 28.9119 11.0699 28.6502 11.0699 28.3281C11.0699 28.0052 11.3313 27.7438 11.6539 27.7438C11.9763 27.7438 12.2377 28.0052 12.2377 28.3281Z" fill="#D1AB66"/>
<defs>
<clipPath id="clip0_3543_6520">
<rect width="186.4" height="36.7" fill="white"/>
</clipPath>
</defs>
</svg>
