<?xml version="1.0" encoding="UTF-8"?>
<svg width="30px" height="29px" viewBox="0 0 30 29" version="1.1" xmlns="http://www.w3.org/2000/svg" xmlns:xlink="http://www.w3.org/1999/xlink">
    <!-- Generator: Sketch 51.3 (57544) - http://www.bohemiancoding.com/sketch -->
    <title>Group 22</title>
    <desc>Created with Sketch.</desc>
    <defs>
        <linearGradient x1="107.984628%" y1="142.084015%" x2="0%" y2="-55.5654707%" id="linearGradient-1">
            <stop stop-color="#FAD784" offset="0%"></stop>
            <stop stop-color="#ED8342" offset="28.9784846%"></stop>
            <stop stop-color="#C74478" offset="57.901371%"></stop>
            <stop stop-color="#8A4ABA" offset="78.3253794%"></stop>
            <stop stop-color="#4C67CE" offset="100%"></stop>
        </linearGradient>
        <polygon id="path-2" points="0 0.0791942359 28.911122 0.0791942359 28.911122 28.6617548 0 28.6617548"></polygon>
    </defs>
    <g id="Page-1" stroke="none" stroke-width="1" fill="none" fill-rule="evenodd">
        <g id="Desktop-HD-Copy-2" transform="translate(-1401.000000, -4607.000000)">
            <g id="Group-22" transform="translate(1401.376552, 4607.000000)">
                <path d="M19.078781,10.9035168 C18.4937506,10.9035168 18.0184134,10.4335673 18.0184134,9.85602864 C18.0184134,9.27848998 18.4937506,8.80854048 19.078781,8.80854048 C19.6629408,8.80854048 20.138278,9.27848998 20.138278,9.85602864 C20.138278,10.4335673 19.6629408,10.9035168 19.078781,10.9035168 M14.4551257,18.8444582 C11.9861582,18.8444582 9.97685741,16.8579318 9.97685741,14.416088 C9.97685741,11.9742442 11.9861582,9.98771778 14.4551257,9.98771778 C16.9249638,9.98771778 18.9342646,11.9742442 18.9342646,14.416088 C18.9342646,16.8579318 16.9249638,18.8444582 14.4551257,18.8444582 M18.7636307,7.69047383 L10.1474913,7.69047383 C8.77197341,7.69047383 7.65240634,8.7964905 7.65240634,10.1564176 L7.65240634,18.6757584 C7.65240634,20.0356855 8.77197341,21.1417022 10.1474913,21.1417022 L18.7636307,21.1417022 C20.1391486,21.1417022 21.2587156,20.0356855 21.2587156,18.6757584 L21.2587156,10.1564176 C21.2587156,8.7964905 20.1391486,7.69047383 18.7636307,7.69047383" id="Fill-1" fill="url(#linearGradient-1)"></path>
                <path d="M17.0416303,14.4160966 C17.0416303,15.8259451 15.8820165,16.973276 14.4551344,16.973276 C13.0299934,16.973276 11.869509,15.8259451 11.869509,14.4160966 C11.869509,13.0062481 13.0299934,11.8589172 14.4551344,11.8589172 C15.881146,11.8589172 17.0416303,13.0062481 17.0416303,14.4160966" id="Fill-3" fill="url(#linearGradient-1)"></path>
                <g id="Group-7" transform="translate(0.000000, 0.006886)">
                    <mask id="mask-3" fill="white">
                        <use xlink:href="#path-2"></use>
                    </mask>
                    <g id="Clip-6"></g>
                    <path d="M23.150488,18.6688813 C23.150488,21.0608037 21.1829751,23.0060159 18.7636307,23.0060159 L10.1474913,23.0060159 C7.72814688,23.0060159 5.7597634,21.0608037 5.7597634,18.6688813 L5.7597634,10.1495405 C5.7597634,7.7584788 7.72814688,5.8124059 10.1474913,5.8124059 L18.7636307,5.8124059 C21.1829751,5.8124059 23.150488,7.7584788 23.150488,10.1495405 L23.150488,18.6688813 Z M14.4551257,0.0791942359 C6.4718986,0.0791942359 0,6.47773732 0,14.3704788 C0,22.2632203 6.4718986,28.6617634 14.4551257,28.6617634 C22.4383528,28.6617634 28.911122,22.2632203 28.911122,14.3704788 C28.911122,6.47773732 22.4383528,0.0791942359 14.4551257,0.0791942359 Z" id="Fill-5" fill="url(#linearGradient-1)" mask="url(#mask-3)"></path>
                </g>
            </g>
        </g>
    </g>
</svg>