<svg width="84" height="53" viewBox="0 0 84 53" fill="none" xmlns="http://www.w3.org/2000/svg">
<path d="M51.6283 19.7578C52.7283 18.0578 53.3283 16.0578 53.3283 13.9578C53.3283 9.35784 50.4283 5.35784 46.3283 3.75784C47.0283 4.65784 47.4283 5.75784 47.4283 6.95784C47.4283 9.85784 45.1283 12.1578 42.2283 12.1578C39.3283 12.1578 37.0283 9.85784 37.0283 6.95784C37.0283 5.75784 37.4283 4.65784 38.1283 3.75784C34.0283 5.35784 31.1283 9.35784 31.1283 13.9578C31.1283 16.0578 31.7283 18.0578 32.8283 19.7578C31.1283 17.6578 30.1283 15.0578 30.1283 12.1578C30.1283 5.55784 35.5283 0.157837 42.3283 0.157837C49.0283 0.157837 54.5283 5.55784 54.5283 12.1578C54.3283 15.0578 53.3283 17.6578 51.6283 19.7578Z" fill="#3BC3DE"/>
<path d="M30.9283 5.45776C29.6283 7.45776 28.9283 9.85776 28.9283 12.3578C28.9283 17.9578 32.4283 22.6578 37.3283 24.5578C36.4283 23.4578 35.9283 22.1578 35.9283 20.6578C35.9283 17.2578 38.7283 14.4578 42.2283 14.4578C45.7283 14.4578 48.5283 17.2578 48.5283 20.6578C48.5283 22.1578 48.0283 23.4578 47.1283 24.5578C52.0283 22.6578 55.5283 17.8578 55.5283 12.3578C55.5283 9.85776 54.8283 7.45776 53.5283 5.45776C55.6283 7.95776 56.8283 11.1578 56.8283 14.5578C56.8283 22.5578 50.3283 28.9578 42.2283 28.9578C34.1283 28.9578 27.6283 22.4578 27.6283 14.5578C27.6283 11.1578 28.8283 7.95776 30.9283 5.45776Z" fill="#289ED9"/>
<path d="M25.4283 32.3578C25.2283 32.3578 25.1283 32.2578 25.0283 32.1578C24.9283 32.0578 24.8283 31.9578 24.8283 31.7578C24.8283 31.5578 24.9283 31.4578 25.0283 31.3578C25.1283 31.2578 25.3283 31.1578 25.4283 31.1578C25.6283 31.1578 25.7283 31.2578 25.8283 31.3578C25.9283 31.4578 26.0283 31.5578 26.0283 31.7578C26.0283 31.9578 25.9283 32.0578 25.8283 32.1578C25.7283 32.2578 25.6283 32.3578 25.4283 32.3578ZM23.9283 33.2578H24.5283C24.9283 33.2578 25.2283 33.2578 25.3283 33.2578C25.4283 33.2578 25.9283 33.2578 26.8283 33.2578V33.5578C26.6283 33.5578 26.4283 33.5578 26.2283 33.5578C26.1283 33.5578 26.0283 33.5578 25.9283 33.6578C25.8283 33.6578 25.8283 33.7578 25.8283 33.9578C25.8283 34.0578 25.8283 34.2578 25.8283 34.5578V35.7578V38.1578V39.1578C25.8283 39.5578 25.8283 39.7578 25.8283 39.8578C25.8283 39.9578 25.8283 40.0578 25.9283 40.0578C25.9283 40.0578 26.0283 40.1578 26.1283 40.1578C26.2283 40.1578 26.4283 40.1578 26.8283 40.2578V40.5578C26.8283 40.5578 26.5283 40.5578 25.9283 40.5578C25.7283 40.5578 25.5283 40.5578 25.3283 40.5578C25.2283 40.5578 24.7283 40.5578 23.8283 40.5578V40.2578C24.1283 40.2578 24.3283 40.2578 24.4283 40.1578C24.5283 40.1578 24.6283 40.1578 24.6283 40.0578C24.6283 40.0578 24.7283 39.9578 24.7283 39.8578C24.7283 39.7578 24.7283 39.5578 24.7283 39.1578V38.0578V35.6578V34.6578C24.7283 34.2578 24.7283 34.0578 24.7283 33.8578C24.7283 33.7578 24.7283 33.6578 24.6283 33.6578C24.6283 33.6578 24.5283 33.5578 24.4283 33.5578C24.3283 33.5578 24.1283 33.5578 23.7283 33.4578L23.9283 33.2578Z" fill="#214695"/>
<path d="M34.5283 39.6578L34.3283 40.1578C33.5283 40.5578 32.7283 40.7578 31.8283 40.7578C30.6283 40.7578 29.5283 40.3578 28.8283 39.6578C28.0283 38.9578 27.6283 38.0578 27.6283 36.8578C27.6283 36.0578 27.8283 35.3578 28.2283 34.8578C28.6283 34.2578 29.1283 33.8578 29.7283 33.5578C30.3283 33.2578 31.1283 33.1578 31.9283 33.1578C32.4283 33.1578 32.8283 33.1578 33.3283 33.2578C33.8283 33.3578 34.1283 33.4578 34.4283 33.5578V33.6578C34.3283 33.8578 34.2283 34.3578 34.2283 35.0578H34.0283L33.9283 34.1578C33.6283 33.9578 33.3283 33.7578 33.0283 33.6578C32.6283 33.5578 32.3283 33.4578 31.9283 33.4578C31.3283 33.4578 30.8283 33.5578 30.3283 33.8578C29.8283 34.0578 29.5283 34.4578 29.2283 34.9578C28.9283 35.4578 28.8283 35.9578 28.8283 36.6578C28.8283 37.3578 29.0283 37.9578 29.3283 38.4578C29.6283 38.9578 30.0283 39.3578 30.5283 39.6578C31.0283 39.9578 31.6283 40.0578 32.3283 40.0578C32.6283 40.0578 32.9283 40.0578 33.2283 39.9578C33.5283 39.8578 33.7283 39.8578 33.9283 39.7578C34.1283 39.6578 34.3283 39.5578 34.4283 39.4578L34.5283 39.6578Z" fill="#214695"/>
<path d="M37.0283 40.0579C37.3283 40.1579 37.5283 40.1579 37.8283 40.1579C38.3283 40.1579 38.7283 40.0579 39.0283 39.9579C39.3283 39.7579 39.5283 39.5579 39.6283 39.2579C39.7283 38.9579 39.8283 38.6579 39.8283 38.3579C39.8283 37.8579 39.7283 37.4579 39.4283 37.1579C39.1283 36.8579 38.5283 36.7579 37.6283 36.7579C37.4283 36.7579 37.3283 36.7579 37.0283 36.7579V38.4579V40.0579ZM37.0283 36.3579C37.2283 36.3579 37.4283 36.3579 37.6283 36.3579C38.3283 36.3579 38.8283 36.2579 39.1283 35.9579C39.4283 35.6579 39.5283 35.3579 39.5283 34.9579C39.5283 34.6579 39.4283 34.4579 39.3283 34.2579C39.2283 34.0579 39.0283 33.9579 38.8283 33.8579C38.6283 33.7579 38.3283 33.7579 37.9283 33.7579C37.6283 33.7579 37.3283 33.7579 37.0283 33.8579C37.0283 34.1579 37.0283 34.6579 37.0283 35.4579V36.3579ZM35.1283 33.6579V33.3579C35.7283 33.3579 36.1283 33.3579 36.5283 33.3579C36.6283 33.3579 37.1283 33.3579 37.9283 33.3579C38.2283 33.3579 38.4283 33.3579 38.5283 33.3579C39.0283 33.3579 39.3283 33.3579 39.6283 33.4579C39.9283 33.5579 40.1283 33.7579 40.3283 33.9579C40.5283 34.1579 40.5283 34.4579 40.5283 34.7579C40.5283 35.1579 40.4283 35.4579 40.1283 35.8579C39.8283 36.1579 39.4283 36.4579 38.7283 36.5579C39.1283 36.5579 39.4283 36.6579 39.6283 36.6579C39.8283 36.7579 40.1283 36.8579 40.2283 36.9579C40.4283 37.0579 40.5283 37.2579 40.6283 37.4579C40.7283 37.6579 40.8283 37.9579 40.8283 38.1579C40.8283 38.3579 40.8283 38.5579 40.7283 38.8579C40.6283 39.0579 40.5283 39.3579 40.3283 39.5579C40.1283 39.7579 39.9283 39.9579 39.6283 40.1579C39.3283 40.3579 39.1283 40.4579 38.8283 40.4579C38.5283 40.5579 38.2283 40.5579 37.8283 40.5579C37.7283 40.5579 37.5283 40.5579 37.1283 40.5579C36.6283 40.5579 36.4283 40.5579 36.4283 40.5579C36.2283 40.5579 35.9283 40.5579 35.5283 40.5579V40.3579V40.2579C35.7283 40.1579 35.8283 40.0579 35.8283 40.0579C35.8283 40.0579 35.9283 39.7579 35.9283 39.1579C35.9283 38.5579 35.9283 38.1579 35.9283 37.8579V35.9579V34.7579C35.9283 34.4579 35.9283 34.2579 35.9283 34.1579C35.9283 33.9579 35.9283 33.8579 35.9283 33.8579C35.9283 33.7579 35.9283 33.7579 35.8283 33.7579L35.7283 33.6579C35.6283 33.6579 35.6283 33.6579 35.4283 33.6579H35.1283Z" fill="#214695"/>
<path d="M44.1282 37.7578H46.7282L45.4282 34.6578L44.1282 37.7578ZM41.8282 40.5578V40.2578C42.1282 40.2578 42.2282 40.2578 42.3282 40.2578C42.4282 40.2578 42.4282 40.1578 42.5282 40.1578C42.6282 40.0578 42.7282 39.8578 42.8282 39.4578L43.3282 38.2578L44.7282 35.0578C45.0282 34.4578 45.2282 33.8578 45.5282 33.1578H45.8282L48.0282 38.3578L48.3282 39.0578C48.4282 39.2578 48.5282 39.4578 48.6282 39.6578C48.7282 39.8578 48.8282 40.0578 48.8282 40.0578C48.8282 40.0578 48.9282 40.1578 49.0282 40.1578C49.1282 40.1578 49.2282 40.1578 49.4282 40.1578V40.4578C49.0282 40.4578 48.7282 40.4578 48.4282 40.4578C47.8282 40.4578 47.3282 40.4578 46.7282 40.4578V40.1578C47.1282 40.1578 47.3282 40.1578 47.4282 40.1578C47.5282 40.1578 47.5282 40.0578 47.5282 39.9578C47.5282 39.8578 47.5282 39.7578 47.4282 39.6578L47.0282 38.1578H44.0282L43.4282 39.4578C43.3282 39.6578 43.2282 39.8578 43.2282 39.9578C43.2282 40.0578 43.2282 40.0578 43.3282 40.1578C43.4282 40.1578 43.6282 40.2578 44.0282 40.2578V40.5578C43.6282 40.5578 43.2282 40.5578 42.8282 40.5578C42.6282 40.5578 42.2282 40.5578 41.8282 40.5578Z" fill="#214695"/>
<path d="M50.2283 33.3579C50.9283 33.3579 51.4283 33.3579 51.7283 33.3579C52.1283 33.3579 52.6283 33.3579 53.3283 33.3579C53.5283 33.3579 53.7283 33.3579 53.8283 33.3579C54.7283 33.3579 55.3283 33.5579 55.6283 33.8579C55.9283 34.1579 56.1283 34.5579 56.1283 34.9579C56.1283 35.2579 56.0283 35.5579 55.9283 35.7579C55.7283 36.0579 55.5283 36.2579 55.2283 36.4579C54.9283 36.6579 54.5283 36.7579 54.0283 36.8579C54.1283 36.9579 54.3283 37.2579 54.5283 37.5579L55.2283 38.5579C55.4283 38.8579 55.7283 39.2579 56.0283 39.5579C56.3283 39.9579 56.4283 40.1579 56.5283 40.1579C56.6283 40.1579 56.6283 40.2579 56.7283 40.2579C56.8283 40.2579 56.8283 40.2579 57.0283 40.2579V40.4579C56.8283 40.4579 56.6283 40.4579 56.4283 40.4579C56.2283 40.4579 55.9283 40.4579 55.6283 40.4579C55.4283 40.1579 55.0283 39.6579 54.5283 38.9579C53.9283 38.1579 53.3283 37.3579 52.7283 36.6579L52.8283 36.4579C53.0283 36.4579 53.1283 36.4579 53.2283 36.4579C53.8283 36.4579 54.3283 36.3579 54.6283 36.0579C54.9283 35.7579 55.1283 35.3579 55.1283 34.8579C55.1283 34.3579 54.9283 34.0579 54.6283 33.8579C54.3283 33.6579 53.9283 33.5579 53.4283 33.5579C53.0283 33.5579 52.7283 33.5579 52.4283 33.6579C52.3283 33.7579 52.3283 34.3579 52.3283 35.5579V38.1579V39.1579C52.3283 39.5579 52.3283 39.7579 52.3283 39.8579C52.3283 39.9579 52.3283 40.0579 52.4283 40.0579C52.4283 40.0579 52.5283 40.1579 52.6283 40.1579C52.7283 40.1579 52.9283 40.1579 53.3283 40.2579V40.5579C53.3283 40.5579 53.0283 40.5579 52.4283 40.5579C52.2283 40.5579 52.0283 40.5579 51.8283 40.5579C51.7283 40.5579 51.2283 40.5579 50.3283 40.5579V40.2579C50.6283 40.2579 50.8283 40.2579 50.9283 40.1579C51.0283 40.1579 51.1283 40.1579 51.1283 40.0579C51.1283 40.0579 51.2283 39.9579 51.2283 39.8579C51.2283 39.7579 51.2283 39.5579 51.2283 39.1579V38.0579V35.6579V34.6579C51.2283 34.2579 51.2283 34.0579 51.2283 33.8579C51.2283 33.7579 51.2283 33.6579 51.1283 33.6579C51.1283 33.6579 51.0283 33.5579 50.9283 33.5579C50.8283 33.5579 50.6283 33.5579 50.2283 33.4579V33.3579Z" fill="#214695"/>
<path d="M59.0282 32.3578C58.8282 32.3578 58.7282 32.2578 58.6282 32.1578C58.5282 32.0578 58.4282 31.9578 58.4282 31.7578C58.4282 31.5578 58.5282 31.4578 58.6282 31.3578C58.7282 31.2578 58.9282 31.1578 59.0282 31.1578C59.2282 31.1578 59.3282 31.2578 59.4282 31.3578C59.5282 31.4578 59.6282 31.5578 59.6282 31.7578C59.6282 31.9578 59.5282 32.0578 59.4282 32.1578C59.3282 32.2578 59.1282 32.3578 59.0282 32.3578ZM57.5282 33.2578H58.1282C58.5282 33.2578 58.8282 33.2578 58.9282 33.2578C59.0282 33.2578 59.5282 33.2578 60.4282 33.2578V33.5578C60.2282 33.5578 60.0282 33.5578 59.8282 33.5578C59.7282 33.5578 59.6282 33.5578 59.5282 33.6578C59.4282 33.6578 59.4282 33.7578 59.4282 33.9578C59.4282 34.0578 59.4282 34.2578 59.4282 34.5578V35.7578V38.1578V39.1578C59.4282 39.5578 59.4282 39.7578 59.4282 39.8578C59.4282 39.9578 59.4282 40.0578 59.5282 40.0578C59.5282 40.0578 59.6282 40.1578 59.7282 40.1578C59.8282 40.1578 60.0282 40.1578 60.4282 40.2578V40.5578C60.4282 40.5578 60.1282 40.5578 59.5282 40.5578C59.3282 40.5578 59.1282 40.5578 58.9282 40.5578C58.8282 40.5578 58.3282 40.5578 57.4282 40.5578V40.2578C57.7282 40.2578 57.9282 40.2578 58.0282 40.1578C58.1282 40.1578 58.2282 40.1578 58.2282 40.0578C58.2282 40.0578 58.3282 39.9578 58.3282 39.8578C58.3282 39.7578 58.3282 39.5578 58.3282 39.1578V38.0578V35.6578V34.6578C58.3282 34.2578 58.3282 34.0578 58.3282 33.8578C58.3282 33.7578 58.3282 33.6578 58.2282 33.6578C58.2282 33.6578 58.1282 33.5578 58.0282 33.5578C57.9282 33.5578 57.7282 33.5578 57.3282 33.4578L57.5282 33.2578Z" fill="#214695"/>
<path d="M6.72827 45.2578C6.72827 45.6578 6.72827 46.1578 6.72827 46.9578H6.42827L6.32827 46.4578C6.32827 46.1578 6.32827 46.0578 6.22827 45.9578C6.22827 45.8578 6.22827 45.8578 6.12827 45.8578C6.12827 45.8578 6.02827 45.8578 5.82827 45.7578C5.62827 45.7578 5.42827 45.7578 5.22827 45.7578H4.22827C4.22827 46.5578 4.22827 46.9578 4.22827 47.0578V50.0578V51.0578C4.22827 51.4578 4.22827 51.6578 4.22827 51.8578C4.22827 51.9578 4.22827 52.0578 4.32827 52.0578C4.32827 52.0578 4.42827 52.1578 4.52827 52.1578C4.62827 52.1578 4.82827 52.1578 5.22827 52.2578V52.5578C4.32827 52.5578 3.82827 52.5578 3.72827 52.5578C3.62827 52.5578 3.12827 52.5578 2.22827 52.5578V52.2578C2.52827 52.2578 2.72827 52.2578 2.82827 52.1578C2.92827 52.1578 3.02827 52.1578 3.02827 52.0578C3.02827 52.0578 3.12827 51.9578 3.12827 51.8578C3.12827 51.7578 3.12827 51.5578 3.12827 51.1578V50.0578V47.0578C3.12827 46.9578 3.12827 46.5578 3.12827 45.7578H2.42827C2.12827 45.7578 1.82827 45.7578 1.62827 45.7578C1.42827 45.7578 1.22827 45.7578 1.22827 45.8578C1.22827 45.9578 1.12827 46.0578 1.12827 46.4578L1.02827 46.9578H0.728271C0.728271 46.1578 0.728271 45.5578 0.728271 45.3578C1.32827 45.3578 2.32827 45.3578 3.72827 45.3578C5.12827 45.2578 6.12827 45.2578 6.72827 45.2578Z" fill="#214695"/>
<path d="M9.4283 44.2578C9.2283 44.2578 9.1283 44.1578 9.0283 44.0578C8.9283 43.9578 8.8283 43.8578 8.8283 43.6578C8.8283 43.4578 8.9283 43.3578 9.0283 43.2578C9.1283 43.1578 9.2283 43.1578 9.4283 43.1578C9.6283 43.1578 9.7283 43.2578 9.8283 43.3578C9.9283 43.4578 10.0283 43.6578 10.0283 43.7578C10.0283 43.9578 9.9283 44.0578 9.8283 44.1578C9.7283 44.2578 9.5283 44.2578 9.4283 44.2578ZM7.8283 45.2578H8.4283C8.8283 45.2578 9.1283 45.2578 9.2283 45.2578C9.3283 45.2578 9.8283 45.2578 10.7283 45.2578V45.5578C10.5283 45.5578 10.3283 45.5578 10.1283 45.5578C10.0283 45.5578 9.9283 45.5578 9.8283 45.6578C9.7283 45.6578 9.7283 45.7578 9.7283 45.9578C9.7283 46.0578 9.7283 46.2578 9.7283 46.5578V47.7578V50.1578V51.1578C9.7283 51.5578 9.7283 51.7578 9.7283 51.8578C9.7283 51.9578 9.7283 52.0578 9.8283 52.0578C9.8283 52.0578 9.9283 52.1578 10.0283 52.1578C10.1283 52.1578 10.3283 52.1578 10.7283 52.2578V52.5578C10.7283 52.5578 10.4283 52.5578 9.8283 52.5578C9.6283 52.5578 9.4283 52.5578 9.2283 52.5578C9.1283 52.5578 8.6283 52.5578 7.7283 52.5578V52.2578C8.0283 52.2578 8.2283 52.2578 8.3283 52.1578C8.4283 52.1578 8.5283 52.1578 8.5283 52.0578C8.5283 52.0578 8.6283 51.9578 8.6283 51.8578C8.6283 51.7578 8.6283 51.5578 8.6283 51.1578V50.0578V47.6578V46.6578C8.6283 46.2578 8.6283 46.0578 8.6283 45.8578C8.6283 45.7578 8.6283 45.6578 8.5283 45.6578C8.5283 45.6578 8.4283 45.5578 8.3283 45.5578C8.2283 45.5578 8.0283 45.5578 7.6283 45.4578L7.8283 45.2578Z" fill="#214695"/>
<path d="M13.8283 52.0578C14.1283 52.1578 14.3283 52.1578 14.6283 52.1578C15.1283 52.1578 15.5283 52.0578 15.8283 51.9578C16.1283 51.7578 16.3283 51.5578 16.4283 51.2578C16.5283 50.9578 16.6283 50.6578 16.6283 50.3578C16.6283 49.8578 16.5283 49.4578 16.2283 49.1578C15.9283 48.8578 15.3283 48.7578 14.4283 48.7578C14.2283 48.7578 14.1283 48.7578 13.8283 48.7578V50.5578V52.0578ZM13.8283 48.2578C14.0283 48.2578 14.2283 48.2578 14.4283 48.2578C15.1283 48.2578 15.6283 48.1578 15.9283 47.8578C16.2283 47.5578 16.3283 47.2578 16.3283 46.8578C16.3283 46.5578 16.2283 46.3578 16.1283 46.1578C16.0283 45.9578 15.8283 45.8578 15.6283 45.7578C15.4283 45.6578 15.1283 45.6578 14.7283 45.6578C14.4283 45.6578 14.1283 45.6578 13.8283 45.7578C13.8283 46.0578 13.8283 46.5578 13.8283 47.3578V48.2578ZM11.9283 45.5578V45.2578C12.5283 45.2578 12.9283 45.2578 13.3283 45.2578C13.4283 45.2578 13.9283 45.2578 14.7283 45.2578C15.0283 45.2578 15.2283 45.2578 15.3283 45.2578C15.8283 45.2578 16.1283 45.2578 16.4283 45.3578C16.7283 45.4578 16.9283 45.6578 17.1283 45.8578C17.3283 46.0578 17.3283 46.3578 17.3283 46.6578C17.3283 47.0578 17.2283 47.3578 16.9283 47.7578C16.6283 48.0578 16.2283 48.3578 15.5283 48.4578C15.9283 48.4578 16.2283 48.5578 16.4283 48.5578C16.6283 48.6578 16.9283 48.7578 17.0283 48.8578C17.2283 48.9578 17.3283 49.1578 17.4283 49.3578C17.5283 49.5578 17.6283 49.8578 17.6283 50.0578C17.6283 50.2578 17.6283 50.4578 17.5283 50.7578C17.4283 50.9578 17.3283 51.2578 17.1283 51.4578C16.9283 51.6578 16.7283 51.8578 16.4283 52.0578C16.1283 52.2578 15.9283 52.3578 15.6283 52.3578C15.3283 52.4578 15.0283 52.4578 14.6283 52.4578C14.5283 52.4578 14.3283 52.4578 13.9283 52.4578C13.4283 52.4578 13.2283 52.4578 13.2283 52.4578C13.0283 52.4578 12.7283 52.4578 12.3283 52.4578V52.2578V52.1578C12.5283 52.0578 12.6283 51.9578 12.6283 51.9578C12.6283 51.9578 12.7283 51.6578 12.7283 51.0578C12.7283 50.4578 12.7283 50.0578 12.7283 49.7578V47.8578V46.6578C12.7283 46.3578 12.7283 46.1578 12.7283 46.0578C12.7283 45.8578 12.7283 45.7578 12.7283 45.7578C12.7283 45.6578 12.7283 45.6578 12.6283 45.6578C12.6283 45.6578 12.5283 45.6578 12.5283 45.5578C12.4283 45.5578 12.4283 45.5578 12.2283 45.5578H11.9283Z" fill="#214695"/>
<path d="M20.9283 52.0578C21.2283 52.1578 21.4283 52.1578 21.7283 52.1578C22.2283 52.1578 22.6283 52.0578 22.9283 51.9578C23.2283 51.7578 23.4283 51.5578 23.5283 51.2578C23.6283 50.9578 23.7283 50.6578 23.7283 50.3578C23.7283 49.8578 23.6283 49.4578 23.3283 49.1578C23.0283 48.8578 22.4283 48.7578 21.5283 48.7578C21.3283 48.7578 21.2283 48.7578 20.9283 48.7578V50.5578V52.0578ZM20.9283 48.2578C21.1283 48.2578 21.3283 48.2578 21.5283 48.2578C22.2283 48.2578 22.7283 48.1578 23.0283 47.8578C23.3283 47.5578 23.4283 47.2578 23.4283 46.8578C23.4283 46.5578 23.3283 46.3578 23.2283 46.1578C23.1283 45.9578 22.9283 45.8578 22.7283 45.7578C22.5283 45.6578 22.2283 45.6578 21.8283 45.6578C21.5283 45.6578 21.2283 45.6578 20.9283 45.7578C20.9283 46.0578 20.9283 46.5578 20.9283 47.3578V48.2578ZM19.0283 45.5578V45.2578C19.6283 45.2578 20.0283 45.2578 20.4283 45.2578C20.5283 45.2578 21.0283 45.2578 21.8283 45.2578C22.1283 45.2578 22.3283 45.2578 22.4283 45.2578C22.9283 45.2578 23.2283 45.2578 23.5283 45.3578C23.8283 45.4578 24.0283 45.6578 24.2283 45.8578C24.4283 46.0578 24.4283 46.3578 24.4283 46.6578C24.4283 47.0578 24.3283 47.3578 24.0283 47.7578C23.7283 48.0578 23.3283 48.3578 22.6283 48.4578C23.0283 48.4578 23.3283 48.5578 23.5283 48.5578C23.7283 48.6578 24.0283 48.7578 24.1283 48.8578C24.3283 48.9578 24.4283 49.1578 24.5283 49.3578C24.6283 49.5578 24.7283 49.8578 24.7283 50.0578C24.7283 50.2578 24.7283 50.4578 24.6283 50.7578C24.5283 50.9578 24.4283 51.2578 24.2283 51.4578C24.0283 51.6578 23.8283 51.8578 23.5283 52.0578C23.2283 52.2578 23.0283 52.3578 22.7283 52.3578C22.4283 52.4578 22.1283 52.4578 21.7283 52.4578C21.6283 52.4578 21.4283 52.4578 21.0283 52.4578C20.5283 52.4578 20.3283 52.4578 20.3283 52.4578C20.1283 52.4578 19.8283 52.4578 19.4283 52.4578V52.2578V52.1578C19.6283 52.0578 19.7283 51.9578 19.7283 51.9578C19.7283 51.9578 19.8283 51.6578 19.8283 51.0578C19.8283 50.4578 19.8283 50.0578 19.8283 49.7578V47.8578V46.6578C19.8283 46.3578 19.8283 46.1578 19.8283 46.0578C19.8283 45.8578 19.8283 45.7578 19.8283 45.7578C19.8283 45.6578 19.8283 45.6578 19.7283 45.6578C19.7283 45.6578 19.6283 45.6578 19.6283 45.5578C19.5283 45.5578 19.5283 45.5578 19.3283 45.5578H19.0283Z" fill="#214695"/>
<path d="M27.8283 44.2578C27.6283 44.2578 27.5283 44.1578 27.4283 44.0578C27.3283 43.9578 27.2283 43.8578 27.2283 43.6578C27.2283 43.4578 27.3283 43.3578 27.4283 43.2578C27.5283 43.1578 27.6283 43.1578 27.8283 43.1578C28.0283 43.1578 28.1283 43.2578 28.2283 43.3578C28.3283 43.4578 28.4283 43.6578 28.4283 43.7578C28.4283 43.9578 28.3283 44.0578 28.2283 44.1578C28.1283 44.2578 27.9283 44.2578 27.8283 44.2578ZM26.3283 45.2578H26.9283C27.3283 45.2578 27.6283 45.2578 27.7283 45.2578C27.8283 45.2578 28.3283 45.2578 29.2283 45.2578V45.5578C29.0283 45.5578 28.8283 45.5578 28.6283 45.5578C28.5283 45.5578 28.4283 45.5578 28.3283 45.6578C28.2283 45.6578 28.2283 45.7578 28.2283 45.9578C28.2283 46.0578 28.2283 46.2578 28.2283 46.5578V47.7578V50.1578V51.1578C28.2283 51.5578 28.2283 51.7578 28.2283 51.8578C28.2283 51.9578 28.2283 52.0578 28.3283 52.0578C28.3283 52.0578 28.4283 52.1578 28.5283 52.1578C28.6283 52.1578 28.8283 52.1578 29.2283 52.2578V52.5578C29.2283 52.5578 28.9283 52.5578 28.3283 52.5578C28.1283 52.5578 27.9283 52.5578 27.7283 52.5578C27.6283 52.5578 27.1283 52.5578 26.2283 52.5578V52.2578C26.5283 52.2578 26.7283 52.2578 26.8283 52.1578C26.9283 52.1578 27.0283 52.1578 27.0283 52.0578C27.0283 52.0578 27.1283 51.9578 27.1283 51.8578C27.1283 51.7578 27.1283 51.5578 27.1283 51.1578V50.0578V47.6578V46.6578C27.1283 46.2578 27.1283 46.0578 27.1283 45.8578C27.1283 45.7578 27.1283 45.6578 27.0283 45.6578C27.0283 45.6578 26.9283 45.5578 26.8283 45.5578C26.7283 45.5578 26.5283 45.5578 26.1283 45.4578L26.3283 45.2578Z" fill="#214695"/>
<path d="M33.8282 50.7579H34.1282C34.1282 51.1579 34.1282 51.4579 34.2282 51.5579C34.2282 51.6579 34.3282 51.7579 34.5282 51.8579C34.7282 51.9579 34.9282 52.0579 35.1282 52.1579C35.4282 52.2579 35.6282 52.2579 35.9282 52.2579C36.3282 52.2579 36.6282 52.1579 36.9282 52.0579C37.2282 51.9579 37.4282 51.7579 37.6282 51.4579C37.8282 51.1579 37.8282 50.9579 37.8282 50.5579C37.8282 50.3579 37.8282 50.1579 37.7282 49.9579C37.6282 49.7579 37.5282 49.6579 37.4282 49.5579C37.3282 49.4579 37.1282 49.3579 36.9282 49.3579C36.7282 49.3579 36.5282 49.2579 36.1282 49.1579C35.8282 49.0579 35.5282 49.0579 35.3282 49.0579C35.1282 49.0579 34.9282 48.9579 34.7282 48.8579C34.5282 48.7579 34.3282 48.6579 34.2282 48.4579C34.1282 48.3579 34.0282 48.1579 33.9282 47.9579C33.8282 47.7579 33.8282 47.5579 33.8282 47.2579C33.8282 46.6579 34.0282 46.0579 34.5282 45.6579C35.0282 45.2579 35.6282 45.0579 36.3282 45.0579C36.6282 45.0579 36.9282 45.0579 37.3282 45.1579C37.7282 45.2579 38.0282 45.3579 38.3282 45.4579V45.5579C38.2282 45.8579 38.2282 46.3579 38.2282 46.8579H37.9282C37.9282 46.4579 37.9282 46.1579 37.9282 46.0579C37.9282 45.9579 37.7282 45.8579 37.4282 45.6579C37.1282 45.4579 36.8282 45.4579 36.4282 45.4579C36.1282 45.4579 35.8282 45.5579 35.6282 45.6579C35.3282 45.7579 35.1282 45.9579 35.0282 46.1579C34.9282 46.4579 34.8282 46.6579 34.8282 46.9579C34.8282 47.1579 34.8282 47.3579 34.9282 47.4579C35.0282 47.6579 35.1282 47.7579 35.2282 47.8579C35.3282 47.9579 35.5282 48.0579 35.6282 48.0579C35.8282 48.0579 36.1282 48.1579 36.5282 48.2579C37.1282 48.3579 37.6282 48.4579 37.8282 48.5579C38.1282 48.6579 38.3282 48.8579 38.5282 49.1579C38.7282 49.4579 38.8282 49.7579 38.8282 50.1579C38.8282 50.8579 38.5282 51.4579 37.9282 51.9579C37.3282 52.4579 36.6282 52.6579 35.7282 52.6579C35.0282 52.6579 34.4282 52.5579 33.8282 52.2579V52.1579C33.8282 52.0579 33.8282 51.5579 33.8282 50.7579Z" fill="#214695"/>
<path d="M39.9283 45.2578H40.5283C40.9283 45.2578 41.2283 45.2578 41.3283 45.2578C41.4283 45.2578 41.9283 45.2578 42.8283 45.2578V45.5578C42.6283 45.5578 42.4283 45.5578 42.2283 45.5578C42.1283 45.5578 42.0283 45.5578 41.9283 45.6578C41.8283 45.6578 41.8283 45.7578 41.8283 45.9578C41.8283 46.0578 41.8283 46.2578 41.8283 46.5578V47.7578V50.1578V51.1578C41.8283 51.5578 41.8283 51.7578 41.8283 51.8578C41.8283 51.9578 41.8283 52.0578 41.9283 52.0578C41.9283 52.0578 42.0283 52.1578 42.1283 52.1578C42.2283 52.1578 42.4283 52.1578 42.8283 52.2578V52.5578C42.8283 52.5578 42.5283 52.5578 41.9283 52.5578C41.7283 52.5578 41.5283 52.5578 41.3283 52.5578C41.2283 52.5578 40.7283 52.5578 39.8283 52.5578V52.2578C40.1283 52.2578 40.3283 52.2578 40.4283 52.1578C40.5283 52.1578 40.6283 52.1578 40.6283 52.0578C40.6283 52.0578 40.7283 51.9578 40.7283 51.8578C40.7283 51.7578 40.7283 51.5578 40.7283 51.1578V50.0578V47.6578V46.6578C40.7283 46.2578 40.7283 46.0578 40.7283 45.8578C40.7283 45.7578 40.7283 45.6578 40.6283 45.6578C40.6283 45.6578 40.5283 45.5578 40.4283 45.5578C40.3283 45.5578 40.1283 45.5578 39.7283 45.4578L39.9283 45.2578Z" fill="#214695"/>
<path d="M49.9282 42.9578C49.9282 43.3578 49.8282 43.6578 49.6282 43.9578C49.3282 44.3578 48.9282 44.5578 48.4282 44.5578C47.8282 44.5578 47.4282 44.3578 47.1282 43.9578C46.9282 43.6578 46.8282 43.3578 46.8282 42.9578H47.1282C47.2282 43.6578 47.7282 43.9578 48.4282 43.9578C49.1282 43.9578 49.5282 43.6578 49.6282 42.9578H49.9282ZM51.6282 49.7578V49.9578V50.0578L51.3282 50.1578C51.2282 50.1578 51.2282 50.2578 51.2282 50.2578C51.2282 50.2578 51.2282 50.3578 51.2282 50.5578C51.2282 50.7578 51.2282 50.9578 51.2282 51.2578C51.2282 51.5578 51.2282 51.8578 51.3282 52.2578V52.3578C50.4282 52.7578 49.4282 52.8578 48.4282 52.8578C47.6282 52.8578 46.9282 52.7578 46.3282 52.4578C45.7282 52.1578 45.2282 51.7578 44.8282 51.1578C44.4282 50.5578 44.3282 49.9578 44.3282 49.1578C44.3282 47.9578 44.7282 47.0578 45.5282 46.3578C46.3282 45.6578 47.4282 45.3578 48.7282 45.3578C49.7282 45.3578 50.5282 45.5578 51.3282 45.8578V45.9578C51.2282 46.1578 51.2282 46.6578 51.1282 47.3578H50.9282V46.8578C50.9282 46.6578 50.9282 46.5578 50.9282 46.5578C50.9282 46.5578 50.9282 46.4578 50.8282 46.4578C50.7282 46.4578 50.6282 46.3578 50.3282 46.2578C50.0282 46.1578 49.8282 46.0578 49.5282 46.0578C49.2282 46.0578 49.0282 45.9578 48.7282 45.9578C48.1282 45.9578 47.5282 46.0578 47.0282 46.3578C46.5282 46.6578 46.1282 46.9578 45.9282 47.4578C45.7282 47.9578 45.5282 48.5578 45.5282 49.1578C45.5282 49.7578 45.6282 50.3578 45.9282 50.9578C46.2282 51.4578 46.5282 51.9578 47.0282 52.2578C47.5282 52.5578 48.1282 52.7578 48.7282 52.7578C49.0282 52.7578 49.3282 52.7578 49.6282 52.6578C49.9282 52.5578 50.1282 52.5578 50.3282 52.4578C50.3282 52.3578 50.3282 52.1578 50.3282 51.7578V51.1578C50.3282 50.8578 50.3282 50.7578 50.2282 50.6578C50.2282 50.5578 50.1282 50.5578 49.9282 50.5578C49.8282 50.5578 49.5282 50.5578 49.0282 50.4578V50.2578H49.3282C49.8282 50.2578 50.3282 50.2578 50.6282 50.2578C50.9282 49.6578 51.2282 49.6578 51.6282 49.7578Z" fill="#214695"/>
<path d="M53.9282 48.6578C53.9282 49.0578 54.0282 49.5578 54.1282 49.9578C54.2282 50.4578 54.4282 50.8578 54.7282 51.1578C55.0282 51.4578 55.3282 51.7578 55.6282 51.9578C56.0282 52.1578 56.4282 52.2578 56.8282 52.2578C57.3282 52.2578 57.8282 52.1578 58.2282 51.8578C58.6282 51.6578 58.9282 51.2578 59.2282 50.7578C59.4282 50.2578 59.5282 49.6578 59.5282 49.0578C59.5282 48.3578 59.4282 47.7578 59.1282 47.1578C58.9282 46.5578 58.5282 46.1578 58.0282 45.9578C57.5282 45.6578 57.0282 45.5578 56.5282 45.5578C55.7282 45.5578 55.0282 45.8578 54.5282 46.3578C54.1282 46.8578 53.9282 47.6578 53.9282 48.6578ZM52.8282 48.9578C52.8282 48.4578 52.9282 47.9578 53.0282 47.5578C53.1282 47.1578 53.4282 46.6578 53.8282 46.3578C54.2282 45.9578 54.6282 45.6578 55.1282 45.4578C55.6282 45.2578 56.2282 45.1578 56.8282 45.1578C58.0282 45.1578 58.9282 45.4578 59.6282 46.1578C60.3282 46.7578 60.6282 47.6578 60.6282 48.7578C60.6282 49.5578 60.4282 50.2578 60.1282 50.8578C59.8282 51.4578 59.3282 51.9578 58.6282 52.2578C58.0282 52.5578 57.2282 52.7578 56.4282 52.7578C55.8282 52.7578 55.3282 52.6578 54.8282 52.4578C54.3282 52.2578 53.9282 51.9578 53.6282 51.6578C53.3282 51.2578 53.0282 50.8578 52.9282 50.3578C52.9282 49.8578 52.8282 49.3578 52.8282 48.9578Z" fill="#214695"/>
<path d="M61.8282 45.2578C62.5282 45.2578 63.0282 45.2578 63.3282 45.2578C63.7282 45.2578 64.2282 45.2578 64.9282 45.2578C65.1282 45.2578 65.3282 45.2578 65.4282 45.2578C66.3282 45.2578 66.9282 45.4578 67.2282 45.7578C67.5282 46.0578 67.7282 46.4578 67.7282 46.8578C67.7282 47.1578 67.6282 47.4578 67.5282 47.6578C67.3282 47.9578 67.1282 48.1578 66.8282 48.3578C66.5282 48.5578 66.1282 48.6578 65.6282 48.7578C65.7282 48.8578 65.9282 49.1578 66.1282 49.4578L66.8282 50.4578C67.0282 50.7578 67.3282 51.1578 67.6282 51.4578C67.9282 51.8578 68.1282 52.0578 68.1282 52.0578C68.2282 52.0578 68.2282 52.1578 68.3282 52.1578C68.4282 52.1578 68.4282 52.1578 68.6282 52.1578V52.3578C68.4282 52.3578 68.2282 52.3578 68.0282 52.3578C67.8282 52.3578 67.5282 52.3578 67.2282 52.3578C67.0282 52.0578 66.6282 51.5578 66.1282 50.8578C65.5282 50.0578 64.9282 49.2578 64.3282 48.5578L64.4282 48.3578C64.6282 48.3578 64.7282 48.3578 64.8282 48.3578C65.4282 48.3578 65.9282 48.2578 66.2282 47.9578C66.5282 47.6578 66.7282 47.2578 66.7282 46.7578C66.7282 46.2578 66.5282 45.9578 66.2282 45.7578C65.9282 45.5578 65.5282 45.4578 65.0282 45.4578C64.6282 45.4578 64.3282 45.4578 64.0282 45.5578C63.9282 45.6578 63.9282 46.2578 63.9282 47.4578V49.8578V50.8578C63.9282 51.2578 63.9282 51.4578 63.9282 51.5578C63.9282 51.6578 63.9282 51.7578 64.0282 51.7578C64.0282 51.7578 64.1282 51.8578 64.2282 51.8578C64.3282 51.8578 64.5282 51.8578 64.9282 51.9578V52.2578C64.9282 52.2578 64.6282 52.2578 64.0282 52.2578C63.8282 52.2578 63.6282 52.2578 63.4282 52.2578C63.3282 52.2578 62.8282 52.2578 61.9282 52.2578V51.9578C62.2282 51.9578 62.4282 51.9578 62.5282 51.8578C62.6282 51.8578 62.7282 51.8578 62.7282 51.7578C62.7282 51.7578 62.8282 51.6578 62.8282 51.5578C62.8282 51.4578 62.8282 51.2578 62.8282 50.8578V49.7578V47.3578V46.3578C62.8282 45.9578 62.8282 45.7578 62.8282 45.5578C62.8282 45.4578 62.8282 45.3578 62.7282 45.3578C62.7282 45.3578 62.6282 45.2578 62.5282 45.2578C62.4282 45.2578 62.2282 45.2578 61.8282 45.1578V45.2578Z" fill="#214695"/>
<path d="M75.5283 45.2578C75.5283 45.6578 75.5283 46.1578 75.5283 46.9578H75.3283L75.2283 46.4578C75.2283 46.1578 75.2283 46.0578 75.1283 45.9578C75.1283 45.8578 75.1283 45.8578 75.0283 45.8578C75.0283 45.8578 74.9283 45.8578 74.7283 45.7578C74.5283 45.7578 74.3283 45.7578 74.1283 45.7578H73.1283C73.1283 46.5578 73.1283 46.9578 73.1283 47.0578V50.0578V51.0578C73.1283 51.4578 73.1283 51.6578 73.1283 51.8578C73.1283 51.9578 73.1283 52.0578 73.2283 52.0578C73.2283 52.0578 73.3283 52.1578 73.4283 52.1578C73.5283 52.1578 73.7283 52.1578 74.1283 52.2578V52.5578C73.2283 52.5578 72.7283 52.5578 72.6283 52.5578C72.5283 52.5578 72.0283 52.5578 71.1283 52.5578V52.2578C71.4283 52.2578 71.6283 52.2578 71.7283 52.1578C71.8283 52.1578 71.9283 52.1578 71.9283 52.0578C71.9283 52.0578 72.0283 51.9578 72.0283 51.8578C72.0283 51.7578 72.0283 51.5578 72.0283 51.1578V50.0578V47.0578C72.0283 46.9578 72.0283 46.5578 72.0283 45.7578H71.2283C70.9283 45.7578 70.6283 45.7578 70.4283 45.7578C70.2283 45.7578 70.0283 45.7578 70.0283 45.8578C70.0283 45.9578 69.9283 46.0578 69.9283 46.4578L69.8283 46.9578H69.6283C69.6283 46.1578 69.6283 45.5578 69.6283 45.3578C70.2283 45.3578 71.2283 45.3578 72.6283 45.3578C73.9283 45.2578 74.9283 45.2578 75.5283 45.2578Z" fill="#214695"/>
<path d="M78.3283 49.6578H80.9283L79.6283 46.5578L78.3283 49.6578ZM75.9283 52.5578V52.2578C76.2283 52.2578 76.3283 52.2578 76.4283 52.2578C76.5283 52.2578 76.5283 52.1578 76.6283 52.1578C76.7283 52.0578 76.8283 51.8578 76.9283 51.4578L77.4283 50.2578L78.8283 47.0578C79.1283 46.4578 79.3283 45.8578 79.6283 45.1578H79.9283L82.1283 50.3578L82.4283 51.0578C82.5283 51.2578 82.6283 51.4578 82.7283 51.6578C82.8283 51.8578 82.9283 52.0578 82.9283 52.0578C82.9283 52.0578 83.0283 52.1578 83.1283 52.1578C83.2283 52.1578 83.3283 52.1578 83.5283 52.1578V52.4578C83.1283 52.4578 82.8283 52.4578 82.5283 52.4578C81.9283 52.4578 81.4283 52.4578 80.8283 52.4578V52.1578C81.2283 52.1578 81.4283 52.1578 81.5283 52.1578C81.6283 52.1578 81.6283 52.0578 81.6283 51.9578C81.6283 51.8578 81.6283 51.7578 81.5283 51.6578L81.1283 50.1578H78.1283L77.6283 51.4578C77.5283 51.6578 77.4283 51.8578 77.4283 51.9578C77.4283 52.0578 77.4283 52.0578 77.5283 52.1578C77.6283 52.1578 77.8283 52.2578 78.2283 52.2578V52.5578C77.8283 52.5578 77.4283 52.5578 77.0283 52.5578C76.7283 52.5578 76.3283 52.5578 75.9283 52.5578Z" fill="#214695"/>
</svg>
