<?xml version="1.0" encoding="UTF-8"?>
<svg width="29px" height="29px" viewBox="0 0 29 29" version="1.1" xmlns="http://www.w3.org/2000/svg" xmlns:xlink="http://www.w3.org/1999/xlink">
    <!-- Generator: Sketch 51.3 (57544) - http://www.bohemiancoding.com/sketch -->
    <title>004-linkedin</title>
    <desc>Created with Sketch.</desc>
    <defs></defs>
    <g id="Page-1" stroke="none" stroke-width="1" fill="none" fill-rule="evenodd">
        <g id="Desktop-HD-Copy-2" transform="translate(-1362.000000, -4607.000000)" fill-rule="nonzero">
            <g id="004-linkedin" transform="translate(1362.188276, 4607.000000)">
                <ellipse id="Oval" fill="#007AB9" cx="14.3920386" cy="14.3983739" rx="14.3920386" ry="14.1464522"></ellipse>
                <path d="M22.9911393,15.536687 L22.9911393,21.3689652 L19.5510372,21.3689652 L19.5510372,15.9275565 C19.5510372,14.5612783 19.0543531,13.6282348 17.8087945,13.6282348 C16.8582703,13.6282348 16.2936,14.2564 16.0442317,14.8646435 C15.953669,15.0820174 15.9303228,15.3838696 15.9303228,15.6887478 L15.9303228,21.368713 L12.4899641,21.368713 C12.4899641,21.368713 12.5361434,12.1527652 12.4899641,11.1987913 L15.9305793,11.1987913 L15.9305793,12.6399652 C15.9236524,12.651313 15.9139034,12.6624087 15.9077462,12.6732522 L15.9305793,12.6732522 L15.9305793,12.6399652 C16.3877545,11.9485043 17.2030759,10.9599826 19.0310069,10.9599826 C21.2943062,10.9599826 22.9911393,12.413513 22.9911393,15.536687 Z M8.89105655,6.29653043 C7.71425379,6.29653043 6.94434207,7.05582609 6.94434207,8.05342609 C6.94434207,9.02984348 7.69193379,9.81107826 8.84590345,9.81107826 L8.86822345,9.81107826 C10.0681159,9.81107826 10.8141683,9.02984348 10.8141683,8.05342609 C10.7913352,7.05582609 10.0681159,6.29653043 8.89105655,6.29653043 Z M7.14881379,21.3689652 L10.5878897,21.3689652 L10.5878897,11.1987913 L7.14881379,11.1987913 L7.14881379,21.3689652 Z" id="Shape" fill="#F1F2F2"></path>
            </g>
        </g>
    </g>
</svg>