<?xml version="1.0" encoding="UTF-8"?>
<svg width="60px" height="60px" viewBox="0 0 60 60" version="1.1" xmlns="http://www.w3.org/2000/svg" xmlns:xlink="http://www.w3.org/1999/xlink">
    <!-- Generator: Sketch 54.1 (76490) - https://sketchapp.com -->
    <title>logo-17</title>
    <desc>Created with Sketch.</desc>
    <g id="Page-1" stroke="none" stroke-width="1" fill="none" fill-rule="evenodd">
        <g id="logo-17" fill-rule="nonzero">
            <g id="XMLID_100_" fill="#34479A">
                <path d="M4.24633963,28.15 C5.71315616,28.7088889 7.1821901,29.2633333 8.65011534,29.82 C8.81309496,29.8822222 8.96609623,29.8844444 9.12796714,29.8 C9.53486182,29.5877778 9.94840874,29.3855556 10.3597382,29.1822222 C12.5350172,28.11 14.7114048,27.0377778 16.8866838,25.9655556 C16.9731628,25.9233333 17.1184031,25.9266667 17.115077,25.8011111 C17.1128596,25.6811111 16.972054,25.6733333 16.882249,25.6333333 C14.444207,24.5533333 12.0039476,23.4755556 9.56590556,22.3955556 C8.68115908,22.0033333 7.79863001,21.6077778 6.91499223,21.2133333 C6.92497058,21.18 6.93605762,21.1477778 6.94603597,21.1144444 C7.1134504,21.1666667 7.28197354,21.2144444 7.44717057,21.2722222 C8.37515654,21.5955556 9.29981639,21.9277778 10.2289111,22.2455556 C12.1247964,22.8933333 14.0240078,23.53 15.9198931,24.1777778 C16.3545054,24.3266667 16.788009,24.4755556 17.2226213,24.6255556 C17.5153194,23.1344444 18.4377619,21.8122222 19.7759686,21.0377778 L22.9779083,19.1855556 C21.9700956,18.8122222 20.9645003,18.4333333 19.9589049,18.0522222 C16.5219199,16.7488889 13.0860435,15.4433333 9.65127583,14.1355556 C9.3242079,14.0111111 9.0060096,14.0077778 8.68337649,14.1433333 C6.29744362,15.1522222 3.90596723,16.15 1.52557789,17.1722222 C0.32817664,17.6866667 -0.304893837,19.2088889 0.215088743,20.3988889 C1.29496728,22.87 2.55778212,25.2555556 3.69753072,27.7 C3.80950991,27.9377778 4.01683772,28.0622222 4.24633963,28.15 Z" id="XMLID_748_"></path>
                <path d="M14.9331458,14.7788889 C15.0251683,14.9844444 15.1548868,15.0933333 15.3655407,15.1655556 C18.1040417,16.1088889 20.8403253,17.06 23.5766089,18.0077778 C23.6686314,18.04 23.7761758,18.1155556 23.8626548,18.0255556 C23.9502425,17.9322222 23.8371546,17.8366667 23.8238501,17.7411111 C23.8171979,17.6911111 23.7961325,17.6422222 23.7772845,17.5955556 C22.9923215,15.5688889 22.205141,13.5433333 21.420178,11.5166667 C20.9500871,10.3033333 20.4844311,9.08888889 20.0154489,7.87444444 C20.0420578,7.86222222 20.0686667,7.85111111 20.0963844,7.83888889 C20.3103644,8.28555556 20.5210183,8.73444444 20.7383245,9.18 C22.0676616,11.9022222 23.3992161,14.6233333 24.7274446,17.3466667 C24.8316628,17.5611111 24.9358811,17.7766667 25.041208,17.9911111 L27.246422,16.7155556 C28.7919566,15.8211111 30.6900593,15.7722222 32.2743986,16.5666667 C31.7078504,15.32 31.1435196,14.0722222 30.5802975,12.8244444 C29.3075044,10.0055556 28.0358199,7.18555556 26.7685702,4.36444444 C26.6344169,4.06666667 26.4337413,3.86222222 26.1332823,3.74 C23.7451321,2.76888889 21.3625253,1.78222222 18.9688315,0.825555556 C17.5607763,0.263333333 16.0429594,0.955555556 15.5396074,2.38 C14.7091874,4.73 13.9131373,7.09222222 13.0738477,9.44 C12.8953463,9.93888889 12.9164117,10.37 13.1359352,10.8388889 C13.749049,12.1444444 14.3422061,13.4611111 14.9331458,14.7788889 Z" id="XMLID_747_"></path>
                <path d="M33.8587378,16.9144444 C33.9108469,17.0211111 33.9130644,17.2022222 34.0727179,17.1966667 C34.222393,17.1922222 34.241241,17.02 34.290024,16.9088889 C35.3022716,14.6166667 36.3100843,12.3211111 37.3212231,10.0277778 C37.742531,9.07333333 38.1693823,8.12111111 38.5940163,7.16888889 C38.6095382,7.33111111 38.5696248,7.47444444 38.5219505,7.61444444 C38.0452074,9.00555556 37.5662469,10.3966667 37.0883951,11.7866667 C36.3677369,13.8855556 35.6470788,15.9855556 34.9264206,18.0855556 L40.0253543,21.0355556 C40.4366838,21.2733333 40.8080999,21.5622222 41.1340591,21.8922222 C41.3181041,21.3988889 41.5021491,20.9055556 41.6884116,20.4133333 C43.0188574,16.8966667 44.3537381,13.3822222 45.6852926,9.86666667 C45.8216633,9.50666667 45.9214467,9.16333333 45.7484888,8.76 C44.8249376,6.59666667 43.9047126,4.43111111 43.027727,2.24777778 C42.5986583,1.18 42.0032837,0.338888889 40.8225131,0.0588888889 C40.4910103,0.0588888889 40.1583989,0.0588888889 39.8268961,0.0588888889 C39.417784,0.237777778 39.0031284,0.404444444 38.6017772,0.596666667 C36.7136528,1.50222222 34.8244198,2.40555556 32.9462737,3.33222222 C32.4129867,3.59444444 31.8375689,3.77888889 31.6058495,4.48 C31.1523892,5.85111111 30.6102326,7.19222222 30.09025,8.54 C29.9904666,8.8 29.992684,9.01333333 30.1168589,9.26666667 C31.3685867,11.8144444 32.6103361,14.3666667 33.8587378,16.9144444 Z" id="XMLID_746_"></path>
                <path d="M44.5211525,15.81 C43.6996022,18.2477778 42.8636387,20.6811111 42.0354362,23.1166667 C42.1607198,23.3488889 42.2693729,23.59 42.359178,23.8388889 C43.3514689,23.4511111 44.3393249,23.0522222 45.3327244,22.6666667 C46.878259,22.0666667 48.426011,21.4722222 49.9748717,20.8811111 C50.4549409,20.6977778 50.9183795,20.46 51.4394708,20.3466667 C51.4317099,20.49 51.3341439,20.4833333 51.2731651,20.5133333 C49.703239,21.2811111 48.1310955,22.0433333 46.5622781,22.8122222 C45.2418106,23.4588889 43.9213432,24.1077778 42.6008757,24.7555556 C42.6507674,25.0466667 42.678485,25.3433333 42.678485,25.6433333 L42.678485,32.6755556 C43.4734264,32.3111111 44.2683678,31.9477778 45.0655266,31.5866667 C47.2962408,30.5755556 49.5280637,29.5677778 51.7587778,28.5588889 C52.9672661,28.0122222 54.1746457,27.4622222 55.3842427,26.92 C55.7379196,26.7611111 55.9840521,26.5277778 56.1292924,26.1511111 C56.5151217,25.1511111 56.9319947,24.1622222 57.3344546,23.1688889 C57.8899157,21.7955556 58.4498117,20.4233333 58.9975119,19.0466667 C59.5429947,17.6744444 58.8600325,16.1144444 57.4952168,15.61 C56.8499506,15.3711111 56.1991408,15.1444444 55.5483311,14.9211111 C53.8719693,14.3477778 52.1911727,13.7877778 50.5358764,13.1566667 C50.011459,12.9566667 49.5169766,12.9355556 48.9648416,13.2177778 C47.8073537,13.81 46.6177134,14.3455556 45.4092251,14.8233333 C44.8992208,15.0233333 44.6785886,15.34 44.5211525,15.81 Z" id="XMLID_744_"></path>
                <path d="M15.2424745,44.1722222 C16.0651335,41.7077778 16.9155101,39.2533333 17.7559084,36.7944444 C17.6450379,36.5877778 17.5485806,36.3744444 17.4665364,36.1544444 C15.770218,36.8088889 14.0738995,37.4622222 12.3786898,38.12 C10.7987854,38.7322222 9.21998964,39.3477778 7.64008521,39.9611111 C7.63232428,39.9377778 7.62567205,39.9144444 7.61791112,39.8911111 C9.45170896,38.9944444 11.2855068,38.0977778 13.1193046,37.2 C14.4807942,36.5333333 15.8422838,35.8655556 17.2048821,35.1977778 C17.1527729,34.9 17.1228379,34.5955556 17.1228379,34.2877778 L17.1228379,27.3188889 C16.5396591,27.5855556 15.9564804,27.8522222 15.3733016,28.1166667 C11.7334236,29.7655556 8.09576291,31.42 4.45034132,33.0544444 C4.01462031,33.25 3.76516172,33.5444444 3.59885599,33.9711111 C3.23187468,34.9122222 2.84161056,35.8444444 2.4613248,36.78 C1.90808107,38.1422222 1.33820677,39.4977778 0.804919731,40.8677778 C0.222849678,42.3622222 0.896942234,43.87 2.3715197,44.39 C4.73084365,45.2233333 7.09903724,46.0311111 9.45614378,46.8688889 C9.91514759,47.0322222 10.3120639,46.9855556 10.7422414,46.7822222 C11.9207947,46.2277778 13.1015654,45.6766667 14.3022927,45.1755556 C14.7945577,44.97 15.0739513,44.6777778 15.2424745,44.1722222 Z" id="XMLID_742_"></path>
                <path d="M44.8981121,45.3055556 C44.7739372,45.0233333 44.5821313,44.8611111 44.2949767,44.7722222 C43.771668,44.6088889 43.2516854,44.4355556 42.7339202,44.2555556 C40.5941199,43.5111111 38.4554282,42.7622222 36.3145191,42.0177778 C36.1992138,41.9777778 36.059517,41.8988889 35.9564074,42.0133333 C35.8688197,42.11 35.9397768,42.2322222 35.9807989,42.3388889 C36.2668448,43.0766667 36.555108,43.8122222 36.8389365,44.55 C37.5828775,46.48 38.3257097,48.41 39.0696507,50.34 C39.2414999,50.7866667 39.4144579,51.2322222 39.5863071,51.6788889 C39.5563721,51.6888889 39.5264371,51.7 39.496502,51.71 C39.4610235,51.6444444 39.4233275,51.5811111 39.3911751,51.5133333 C39.030846,50.7655556 38.681604,50.0111111 38.3090791,49.2711111 C37.3622452,47.3888889 36.4619768,45.4833333 35.5306648,43.5933333 C35.2623582,43.0477778 34.996269,42.5011111 34.7301798,41.9555556 L32.5526835,43.2155556 C31.7344593,43.6888889 30.8164517,43.9255556 29.8995528,43.9255556 C29.0558284,43.9255556 28.2121039,43.7222222 27.4448802,43.3222222 C28.36954,45.3533333 29.2842216,47.3877778 30.2033379,49.4211111 C31.1080411,51.4222222 32.0260487,53.4177778 32.9119039,55.4277778 C33.0948402,55.8433333 33.3343204,56.1233333 33.7589544,56.2944444 C36.0750388,57.2277778 38.3822537,58.1844444 40.6961207,59.1222222 C42.1995245,59.7311111 43.7472765,59.1155556 44.3149334,57.4566667 C45.1120922,55.1255556 45.9258815,52.8 46.73191,50.4722222 C46.8605197,50.1011111 46.8959983,49.7466667 46.7174968,49.36 C46.0955134,48.0155556 45.4945954,46.6611111 44.8981121,45.3055556 Z" id="XMLID_740_"></path>
                <path d="M59.7414529,40.1233333 C59.6139518,39.2588889 59.1227955,38.5377778 58.7569229,37.7688889 C57.9331552,36.04 57.1082788,34.3111111 56.2778589,32.5855556 C56.1115531,32.2411111 55.9308342,31.9244444 55.518396,31.7755556 C54.2733205,31.3244444 53.0326797,30.8555556 51.8053434,30.3555556 C51.1844687,30.1022222 50.612377,30.0277778 50.0380679,30.4411111 C49.8839579,30.5522222 49.7098912,30.6377778 49.538042,30.7211111 C47.2918059,31.8155556 45.0444612,32.9088889 42.7971164,34.0011111 C42.7594205,34.02 42.7139636,34.0333333 42.6773763,34.0544444 L42.6773763,34.2833333 C42.7117462,34.3033333 42.7538769,34.3166667 42.7893555,34.3333333 C43.1829457,34.5144444 43.5754272,34.6955556 43.9723436,34.8711111 C45.8737724,35.7111111 47.7774187,36.5466667 49.6777388,37.3888889 C50.3817664,37.7011111 51.0791418,38.0266667 51.8053434,38.3577778 C51.656777,38.4766667 51.5658632,38.4066667 51.4738407,38.3755556 C49.0513206,37.5477778 46.6276917,36.7211111 44.2062803,35.8888889 C43.6619062,35.7022222 43.1175321,35.5155556 42.5742667,35.3277778 C42.2771338,36.81 41.3558001,38.1222222 40.0242456,38.8933333 L36.6859352,40.8255556 C38.5552116,41.5255556 40.424488,42.2244444 42.291547,42.93 C44.7950026,43.8744444 47.2940234,44.8288889 49.7985876,45.7688889 C50.1866343,45.9144444 50.5813333,46.1033333 51.0170543,45.92 C51.4283838,45.7466667 51.8441481,45.5844444 52.2554776,45.4111111 C53.8885999,44.7222222 55.5217221,44.0344444 57.152627,43.3388889 C57.772393,43.0744444 58.4320724,42.8688889 58.9376418,42.3988889 C59.5951038,41.7866667 59.8733887,41.0144444 59.7414529,40.1233333 Z" id="XMLID_737_"></path>
                <path d="M25.882715,42.9566667 C25.8405842,42.8688889 25.8217363,42.7322222 25.69867,42.7377778 C25.5844734,42.7433333 25.5589732,42.8711111 25.5179511,42.9633333 C24.2551363,45.8288889 22.9934302,48.6955556 21.7295066,51.5611111 C21.5864837,51.8855556 21.4334824,52.2044444 21.284916,52.5266667 C21.6563321,51.2422222 22.0842922,49.9855556 22.5144697,48.7288889 C23.3005414,46.4333333 24.0855044,44.1377778 24.8737936,41.8433333 L19.7759686,38.8933333 C19.3557695,38.65 18.9765924,38.3522222 18.6450897,38.0122222 C17.1117509,42.0866667 15.5806294,46.1622222 14.038421,50.2333333 C13.8909632,50.6222222 13.9053764,50.9677778 14.0639212,51.3422222 C14.977494,53.4955556 15.9121322,55.6411111 16.7735959,57.8155556 C17.2004472,58.8922222 17.8468222,59.6555556 18.9832447,59.9555556 C19.263747,59.9555556 19.545358,59.9555556 19.8258604,59.9555556 C20.0442752,59.8844444 20.2726684,59.8366667 20.4777788,59.7388889 C22.8359941,58.6033333 25.1897745,57.46 27.5446636,56.3188889 C27.8240572,56.1833333 28.0025587,55.9677778 28.1112118,55.6766667 C28.6433901,54.2511111 29.181112,52.8277778 29.7232687,51.4066667 C29.8064215,51.19 29.808639,50.9922222 29.7044207,50.78 C28.4305188,48.1722222 27.1577256,45.5633333 25.882715,42.9566667 Z" id="XMLID_735_"></path>
            </g>
            <path d="M27.6865778,34.5422222 L21.848138,37.92 L27.689904,41.3 C29.0602632,42.0922222 30.747712,42.0922222 32.1180712,41.3 L37.956511,37.9222222 L32.1147451,34.5422222 C30.7443859,33.75 29.0569371,33.75 27.6865778,34.5422222" id="XMLID_72_" fill="#4067AD"></path>
            <path d="M38.5917989,22.3777778 L32.1147451,18.63 C30.7443859,17.8377778 29.0569371,17.8377778 27.6865778,18.63 L21.209524,22.3777778 C19.8391648,23.17 18.9954404,24.6355556 18.9954404,26.2211111 L18.9954404,33.7166667 C18.9954404,33.7955556 18.9976578,33.8733333 19.0020927,33.9511111 C19.0808107,32.4566667 19.9067958,31.0966667 21.209524,30.3433333 L27.6865778,26.5955556 C29.0569371,25.8033333 30.7443859,25.8033333 32.1147451,26.5955556 L38.5917989,30.3433333 C39.8934184,31.0966667 40.7205122,32.4577778 40.7992303,33.9511111 C40.8036651,33.8733333 40.8058825,33.7955556 40.8058825,33.7166667 L40.8058825,26.2211111 C40.8047738,24.6355556 39.9610494,23.1711111 38.5917989,22.3777778" id="XMLID_71_" fill="#324598"></path>
            <path d="M21.2128501,37.5522222 L21.848138,37.92 L27.6865778,34.5422222 C29.0569371,33.75 30.7443859,33.75 32.1136364,34.5422222 L37.9554023,37.9222222 L38.5940163,37.5522222 C39.8745704,36.8111111 40.695012,35.4822222 40.7970129,34.0166667 C40.800339,33.9688889 40.800339,33.92 40.7970129,33.8722222 C40.6961207,32.4066667 39.8756791,31.0777778 38.5940163,30.3366667 L32.1169625,26.5888889 C30.7466033,25.7966667 29.0591545,25.7966667 27.6887953,26.5888889 L21.2117414,30.3366667 C19.9101219,31.09 19.0830281,32.4511111 19.0043101,33.9444444 C19.0852455,35.4377778 19.9112306,36.7988889 21.2128501,37.5522222" id="XMLID_69_" fill="#3457A7"></path>
        </g>
    </g>
</svg>