<svg xmlns="http://www.w3.org/2000/svg" xmlns:xlink="http://www.w3.org/1999/xlink" width="207" height="44" viewBox="0 0 207 44">
  <defs>
    <polygon id="mygov-beta-a" points="0 .062 16.789 .062 16.789 11.645 0 11.645"/>
    <polygon id="mygov-beta-c" points=".037 .078 11.613 .078 11.613 16.059 .037 16.059"/>
  </defs>
  <g fill="none" fill-rule="evenodd">
    <path fill="#324598" fill-rule="nonzero" d="M116.194698,26.6514018 C114.240325,28.8719786 111.688819,29.9823889 108.54026,29.9823889 C105.39154,29.9823889 102.650047,28.8774277 100.315703,26.6677494 C97.981277,24.4579083 96.8141858,21.6767179 96.8141858,18.3240155 C96.8141858,14.9713131 97.9867933,12.1900414 100.331927,9.9802817 C102.677142,7.770522 105.413361,6.66556081 108.54026,6.66556081 C111.753959,6.66556081 114.305465,7.75417449 116.194698,9.93132052 L113.263139,13.2622262 C112.763675,12.6962447 112.096047,12.2335534 111.259931,11.8743963 C110.423895,11.5150765 109.517366,11.335498 108.54026,11.335498 C106.781309,11.335498 105.266613,11.9995645 103.996335,13.3275349 C102.725977,14.6555867 102.090879,16.2992835 102.090879,18.2587068 C102.090879,20.2181301 102.731412,21.8835423 104.012641,23.2551061 C105.293788,24.6266699 106.80313,25.3124518 108.54026,25.3124518 C109.97351,25.3124518 111.151391,24.9695608 112.074307,24.2837789 C112.997142,23.597997 113.58884,22.5910396 113.849483,21.2630691 L110.103629,21.2630691 L110.103629,17.6382336 L118.474691,17.6382336 C118.909014,21.4263815 118.148989,24.4307438 116.194698,26.6514018 M126.877431,17.8341109 C126.073926,18.6832052 125.672294,19.8478632 125.672294,21.328329 C125.672294,22.7652015 126.073926,23.8973272 126.877431,24.7246248 C127.680856,25.5519224 128.614561,25.9655712 129.678548,25.9655712 C130.720874,25.9655712 131.643791,25.5519224 132.447215,24.7246248 C133.25064,23.8973272 133.652515,22.7652015 133.652515,21.328329 C133.652515,19.8478632 133.25064,18.6832052 132.447215,17.8341109 C131.643791,16.9850166 130.720874,16.5604695 129.678548,16.5604695 C128.614561,16.5604695 127.680856,16.9850166 126.877431,17.8341109 M132.512437,13.1316414 C133.489542,13.5016969 134.417812,14.0296155 135.297329,14.7153974 C136.176764,15.4012606 136.898824,16.3210314 137.463347,17.4748725 C138.027951,18.6287135 138.310415,19.9132532 138.310415,21.328329 C138.310415,22.7434861 138.027951,24.0224954 137.463347,25.1655194 C136.898824,26.3084621 136.176764,27.2174972 135.297329,27.8922994 C134.417812,28.5672643 133.489542,29.0842847 132.512437,29.4434418 C131.535169,29.8027616 130.590594,29.9823401 129.678548,29.9823401 C128.766583,29.9823401 127.822088,29.8027616 126.844902,29.4434418 C125.867634,29.0842847 124.933929,28.5672643 124.043542,27.8922994 C123.153318,27.2174972 122.425822,26.3084621 121.8613,25.1655194 C121.296615,24.0224954 121.014475,22.7434861 121.014475,21.328329 C121.014475,19.9132532 121.296615,18.6287135 121.8613,17.4748725 C122.425822,16.3210314 123.147883,15.4012606 124.027237,14.7153974 C124.906753,14.0296155 125.84054,13.5016969 126.828515,13.1316414 C127.816491,12.7614233 128.766583,12.5763956 129.678548,12.5763956 C130.590594,12.5763956 131.535169,12.7614233 132.512437,13.1316414"/>
    <polygon fill="#324598" fill-rule="nonzero" points="147.76 29.754 147.011 29.754 138.184 12.772 143.102 12.772 147.369 22.145 151.636 12.772 156.587 12.772"/>
    <path fill="#4067AD" fill-rule="nonzero" d="M75.7248308,14.4649959 C77.0128738,15.7240791 77.6568141,17.6879756 77.6568141,20.3566854 L77.6568141,29.5251956 L73.5030013,29.5251956 L73.5030013,20.3889738 C73.5030013,19.0331068 73.1703232,17.9731216 72.5048045,17.2090994 C71.8394482,16.4450773 70.9914068,16.0629848 69.9610049,16.0629848 C68.8446956,16.0629848 67.926971,16.4288924 67.2079124,17.1607076 C66.4887727,17.8924414 65.9789257,18.828641 65.6783716,19.9693065 L65.6783716,29.5251956 L61.5245587,29.5251956 L61.5245587,20.3889738 C61.5245587,19.0331068 61.1917994,17.9731216 60.526362,17.2090994 C59.8609245,16.4450773 58.9915482,16.0629848 57.918152,16.0629848 C55.6856145,16.0629848 54.2795402,17.3650921 53.699929,19.9693065 L53.699929,29.5251956 L49.5461162,29.5251956 L49.5461162,12.7378536 L53.699929,12.7378536 L53.699929,16.1598499 C53.8071712,15.3850921 54.3010373,14.5941494 55.1812027,13.7870218 C56.0613681,12.9799756 57.2419254,12.5764118 58.723118,12.5764118 C60.0755713,12.5764118 61.304558,12.8884784 62.4100781,13.5126115 C63.5155983,14.1368259 64.3581235,15.0944969 64.9378158,16.3858684 C65.2812831,15.4389331 65.9628637,14.5672288 66.9824765,13.7709183 C68.0021704,12.9745264 69.3170645,12.5764118 70.9269965,12.5764118 C72.8374827,12.5764118 74.436869,13.2059128 75.7248308,14.4649959"/>
    <polygon fill="#4067AD" fill-rule="nonzero" points="95.372 12.738 86.099 35.659 82.074 35.659 84.714 29.073 77.662 12.738 81.72 12.738 86.678 24.231 91.315 12.738"/>
    <g transform="translate(0 10.251)">
      <mask id="mygov-beta-b" fill="#fff">
        <use xlink:href="#mygov-beta-a"/>
      </mask>
      <path fill="#34479A" fill-rule="nonzero" d="M3.08326399,10.3898314 C4.15657904,10.7989257 5.23119203,11.2046041 6.30507493,11.6119904 C6.42456651,11.657373 6.53627045,11.6589183 6.65486969,11.5971068 C6.95299023,11.4416835 7.25500459,11.2937427 7.55653221,11.1449885 C9.14821195,10.3598203 10.7402162,9.5753841 12.3318959,8.79013457 C12.3950082,8.75898484 12.5014393,8.76191275 12.499249,8.66992754 C12.4973021,8.58225287 12.3943593,8.57623438 12.3292189,8.54728059 C10.5450385,7.75658189 8.76004685,6.96767246 6.97586642,6.17713641 C6.32868121,5.89036377 5.68295619,5.60033789 5.03650107,5.31177597 C5.04420759,5.28778336 5.05183298,5.26370943 5.05945838,5.23963549 C5.18170808,5.277861 5.3051746,5.31275194 5.42604524,5.35488133 C6.10470548,5.59179815 6.78125658,5.83505878 7.46145813,6.06758373 C8.84838787,6.54182403 10.238238,7.00776858 11.6251677,7.4823342 C11.9429196,7.59107357 12.260347,7.70070758 12.5780177,7.80977227 C12.7919344,6.71790536 13.4672687,5.75055601 14.4465643,5.18367985 L16.7892644,3.82765028 C16.0517912,3.5542159 15.3156972,3.2770403 14.5804143,2.99799409 C12.0658183,2.04390166 9.55187122,1.08818262 7.03849201,0.13099963 C6.79894101,0.0397463956 6.56620418,0.0372251386 6.33014139,0.137018115 C4.58425019,0.875502403 2.83478965,1.60593494 1.09311675,2.35426026 C0.21676405,2.73074085 -0.246357077,3.84481109 0.134101513,4.7158647 C0.924060093,6.52498854 1.84794983,8.27108096 2.68203836,10.0597908 C2.7635652,10.2346521 2.91518079,10.3257427 3.08326399,10.3898314" mask="url(#mygov-beta-b)"/>
    </g>
    <path fill="#34479A" fill-rule="nonzero" d="M10.9025884,10.8543445 C10.9700002,11.0048067 11.0649932,11.0843482 11.2190424,11.137376 C13.2229802,11.8276311 15.2244844,12.5244739 17.2272055,13.2182262 C17.2943739,13.2414869 17.3734671,13.2974425 17.4361738,13.2310765 C17.5005029,13.1630026 17.4174348,13.0931394 17.4080247,13.0227882 C17.4032386,12.9862706 17.3877444,12.9508104 17.3742783,12.9159194 C16.7995343,11.4326884 16.2238169,9.94986396 15.6496408,8.46638891 C15.305849,7.57817449 14.964572,6.6889841 14.6222404,5.80020037 L14.6811344,5.77401183 C14.8376173,6.10128725 14.9916665,6.42970129 15.1507452,6.75575675 C16.1231455,8.74852569 17.0974926,10.7404 18.0696495,12.7333316 C18.1462279,12.8904628 18.2223197,13.0478381 18.2988981,13.2050506 L19.9121561,12.2712096 C21.0426616,11.6169028 22.4314571,11.5809545 23.5908418,12.1619009 C23.1761501,11.2493686 22.7634864,10.3359416 22.3513094,9.42227061 C21.420281,7.35866248 20.4894959,5.29497301 19.5625236,3.22949427 C19.4646102,3.01128355 19.3176186,2.86212274 19.0973744,2.77249612 C17.3499419,2.06174566 15.6069711,1.33952754 13.8554825,0.638943438 C12.8256484,0.227083919 11.7146931,0.734263216 11.3464027,1.77708762 C10.7387235,3.49739815 10.1563542,5.22665508 9.5424287,6.94460702 C9.41198576,7.30978262 9.42731767,7.62542773 9.5878566,7.96848133 C10.0358081,8.92590832 10.4704556,9.88967911 10.9025884,10.8543445"/>
    <g transform="translate(21.903 .004)">
      <mask id="mygov-beta-d" fill="#fff">
        <use xlink:href="#mygov-beta-c"/>
      </mask>
      <path fill="#34479A" fill-rule="nonzero" d="M2.84690916,12.413929 C2.8852795,12.4924133 2.88690193,12.6244946 3.00355426,12.6208348 C3.11282457,12.6173375 3.12685854,12.4912747 3.16255188,12.4104318 C3.903351,10.732332 4.64033741,9.05252421 5.38016307,7.37401774 C5.68801815,6.67522292 6.00074051,5.97862403 6.31127259,5.28096784 C6.32295405,5.39979224 6.29342592,5.50446506 6.25821931,5.60718595 C5.90915464,6.62544843 5.55895427,7.64338558 5.20940287,8.6614854 C4.68187148,10.1982322 4.15450234,11.7349789 3.62737656,13.271807 L7.35822325,15.4314669 C7.65885854,15.6054336 7.93085804,15.8173006 8.16976007,16.0588532 C8.30417796,15.6977442 8.43924481,15.3367978 8.57560961,14.9764207 C9.54873994,12.40238 10.5256018,9.82988466 11.4998679,7.25625065 C11.5995659,6.99273863 11.6724939,6.74158891 11.5464315,6.44619519 C10.870286,4.86268318 10.1970608,3.27754455 9.55531076,1.67979963 C9.24153382,0.898535305 8.80591279,0.282291312 7.94205277,0.0777441774 L7.2132596,0.0777441774 C6.91416561,0.208524214 6.61077219,0.330520518 6.3166266,0.471710906 C4.9352131,1.13463882 3.55290726,1.79602144 2.17855131,2.47367024 C1.78843929,2.66601774 1.36766345,2.80070166 1.19812007,3.31357412 C0.866334223,4.31687172 0.469570266,5.29886063 0.0891116767,6.28556673 C0.0157780809,6.4757183 0.0173193843,6.6319549 0.108418531,6.81706396 C1.02533184,8.68067948 1.93380855,10.5484429 2.84690916,12.413929" mask="url(#mygov-beta-d)"/>
    </g>
    <path fill="#34479A" fill-rule="nonzero" d="M32.5510634,11.608485 C31.9499551,13.393047 31.338301,15.1740303 30.7321631,16.9568843 C30.8238301,17.1268658 30.9033289,17.3034351 30.9691994,17.4856163 C31.694991,17.2015275 32.4180246,16.9100377 33.1446275,16.6278196 C34.2753764,16.1886329 35.4078288,15.7537567 36.5410925,15.3210765 C36.8926719,15.1868806 37.2314342,15.0131579 37.6123795,14.9297937 C37.6069444,15.0346292 37.5356388,15.0297494 37.4904543,15.0518713 C36.3418587,15.6135423 35.1917219,16.1718787 34.0436941,16.7345257 C33.077378,17.2081153 32.1115486,17.6825183 31.1455569,18.1567586 C31.1818181,18.3698455 31.202504,18.5867549 31.202504,18.8065109 L31.202504,23.9536976 C31.7842244,23.687095 32.366107,23.4208991 32.9488008,23.1566551 C34.5807167,22.4166255 36.2136872,21.6791172 37.8461709,20.9404702 C38.7304735,20.5403224 39.6137215,20.1379786 40.4992409,19.7406773 C40.7583421,19.6244555 40.938269,19.4531726 41.0444567,19.1775423 C41.3265963,18.4452392 41.6316933,17.7219638 41.9260011,16.9943778 C42.3326619,15.9891283 42.7418374,14.9848547 43.142414,13.9771652 C43.541855,12.9723224 43.0417426,11.8305183 42.0431402,11.4614388 C41.5706901,11.2868214 41.0951574,11.1204185 40.6186513,10.9573501 C39.3922605,10.5377641 38.1625437,10.1278566 36.9508358,9.66589723 C36.566889,9.51942033 36.2057373,9.50380481 35.8010234,9.7108732 C34.9543611,10.1442041 34.0836058,10.5365442 33.1993032,10.8864296 C32.8283358,11.0332318 32.6669857,11.2646181 32.5510634,11.608485 M11.128722,32.3694174 C11.7304793,30.56558 12.3526792,28.7686558 12.9677404,26.9692917 C12.8869436,26.8179349 12.8161248,26.6615357 12.7557706,26.5005819 C11.5146157,26.9793767 10.2736231,27.4582529 9.03327939,27.9389996 C7.87722068,28.3870514 6.7220543,28.8373804 5.56648232,29.2868148 C5.56104719,29.2695726 5.55577431,29.2524932 5.55033919,29.2353323 C6.89208441,28.5788296 8.23415411,27.9225708 9.57565596,27.2654174 C10.5721492,26.7772695 11.568318,26.2883083 12.5647301,25.8001604 C12.5266031,25.5818684 12.5050249,25.3595098 12.5050249,25.1339793 L12.5050249,20.0333139 C12.0785705,20.2286706 11.6517917,20.4232954 11.2246073,20.6170255 C8.56164053,21.8242196 5.90021508,23.0348296 3.23238104,24.2311253 C2.91381795,24.373861 2.73113293,24.5897131 2.60928884,24.9020237 C2.34061531,25.5906521 2.05563642,26.2729368 1.7774717,26.9579054 C1.37235226,27.9548591 0.955875841,28.9472584 0.565601582,29.9499867 C0.139877344,31.0437242 0.633013328,32.1473841 1.71192575,32.5283379 C3.43810449,33.1379941 5.17069181,33.7296762 6.89573486,34.3425043 C7.23157677,34.4619793 7.52215303,34.4276577 7.83666006,34.2794728 C8.69873542,33.8736318 9.56267656,33.469824 10.4416251,33.1031031 C10.8013167,32.9529664 11.0053366,32.7393915 11.128722,32.3694174 M32.8273461,33.19861 C32.7364092,32.9916229 32.5961506,32.8735305 32.38629,32.8082218 C32.0034789,32.6889908 31.6230203,32.5618706 31.2442652,32.4301146 C29.6783821,31.8852791 28.1135534,31.3367837 26.5474269,30.7921109 C26.4632231,30.7628318 26.3611725,30.7054122 26.2854053,30.788939 C26.2213195,30.8594529 26.2734805,30.9494048 26.3034953,31.0270758 C26.5123825,31.5669501 26.72346,32.1057671 26.9316982,32.6458854 C27.4761839,34.0581959 28.0195339,35.4710758 28.5635329,36.8837116 C28.689352,37.2103364 28.8157389,37.5367985 28.9418824,37.863342 C28.9199796,37.8709871 28.8980769,37.8787135 28.8761742,37.8863586 C28.8503776,37.8386174 28.8224719,37.7917708 28.7989468,37.7428096 C28.5352216,37.1956969 28.2794464,36.6434603 28.0071224,36.1017967 C27.3145093,34.7237264 26.6553181,33.3295527 25.9743054,31.9461146 C25.7778297,31.5469427 25.5834633,31.1468762 25.3886101,30.7469723 L23.7953079,31.669183 C23.1964709,32.0158965 22.5251116,32.1892126 21.8537523,32.1892126 C21.2360141,32.1892126 20.6190871,32.0406211 20.0579715,31.7471793 C20.7342792,33.2337449 21.4038539,34.7231571 22.0765923,36.211268 C22.7387849,37.6761183 23.4100632,39.136902 24.0580596,40.6080961 C24.1922341,40.9125176 24.3673748,41.1169834 24.6778258,41.2421516 C26.3725295,41.9253309 28.0603379,42.6255083 29.7539059,43.3116155 C30.8538287,43.7572274 31.9867679,43.307061 32.4020275,42.0925471 C32.9853703,40.3863068 33.5804757,38.6842144 34.1701459,36.9801701 C34.2642466,36.7081183 34.2902865,36.4489168 34.1592757,36.1663734 C33.7030499,35.1827579 33.2638595,34.1911719 32.8273461,33.19861 M43.6879219,29.4055253 C43.5946325,28.7730152 43.2355899,28.2451778 42.9674031,27.6825309 C42.3643478,26.4171852 41.7613737,25.1515956 41.1535323,23.8884458 C41.0320938,23.6361575 40.8995417,23.4046898 40.5980141,23.2952998 C39.6866981,22.9649338 38.7791138,22.6222055 37.8815884,22.2559726 C37.4273095,22.0705383 37.0084806,22.0158026 36.5881915,22.3186787 C36.4752707,22.4000096 36.347667,22.4627157 36.2220102,22.5240392 C34.578494,23.3253922 32.9342477,24.1251187 31.2899203,24.9250078 C31.2619334,24.93859 31.2292416,24.9487564 31.2024716,24.9644532 L31.2024716,25.1315882 C31.2279437,25.1463904 31.2583641,25.1562314 31.284404,25.1681871 C31.572141,25.3008377 31.8598781,25.433651 32.1497242,25.5617471 C33.5409534,26.1766085 34.9335616,26.7881353 36.3240607,27.4046233 C36.8389372,27.632919 37.3494331,27.8713811 37.8810206,28.1138285 C37.7725615,28.2007712 37.7058798,28.1495327 37.6387926,28.1265161 C35.8659691,27.5203571 34.09274,26.9159061 32.3211334,26.3064939 C31.9229904,26.169614 31.5248474,26.0328969 31.1267044,25.8960983 C30.9092994,26.9811335 30.2353442,27.9415697 29.260916,28.5055993 L26.8180311,29.9195364 C28.1855729,30.4319209 29.5532769,30.9438987 30.9196018,31.4596991 C32.7510759,32.1510115 34.5798731,32.8496436 36.412564,33.5374588 C36.6962449,33.6438396 36.9851177,33.78259 37.304492,33.6478248 C37.6052895,33.5211113 37.9094941,33.4022055 38.2102105,33.2751667 C39.4050452,32.7709153 40.6002043,32.2673959 41.793011,31.7584274 C42.2468032,31.5647786 42.7292311,31.4140725 43.0993873,31.0700429 C43.5803551,30.6230484 43.7842128,30.0581242 43.6879219,29.4055253 M18.9136267,31.4794625 C18.882395,31.4156177 18.8689289,31.3148488 18.7789655,31.318834 C18.6950861,31.3225752 18.6763471,31.416675 18.6467378,31.4839357 C17.722767,33.5817841 16.7996073,35.6798765 15.8751498,37.7775623 C15.7705845,38.0147231 15.6586372,38.248712 15.550097,38.4843275 C15.8214475,37.5438987 16.1352244,36.6239652 16.4500559,35.7041945 C17.0252866,34.0243054 17.5993005,32.343847 18.176478,30.6644458 L14.4466048,28.5055993 C14.1389931,28.3274847 13.8619641,28.1093553 13.6190871,27.8609708 C12.4971804,30.8432924 11.3770584,33.8261834 10.2488243,36.8061464 C10.1410142,37.0908044 10.1513977,37.3438248 10.2676444,37.6180725 C10.9357589,39.194346 11.6195298,40.7647638 12.2502474,42.3560022 C12.5628075,43.1443423 13.0359065,43.7030854 13.867237,43.9221908 L14.4839206,43.9221908 C14.6433238,43.8702203 14.8111636,43.8355734 14.9609946,43.7633516 C16.6861999,42.9320688 18.4085659,42.0950928 20.1319865,41.2601501 C20.3361687,41.1611704 20.4666927,41.0034699 20.5464349,40.7898137 C20.9359791,39.74642 21.3295793,38.7047342 21.7255321,37.6638617 C21.7859674,37.5051039 21.7879954,37.3602536 21.7119037,37.2049116 C20.7777927,35.2970521 19.8468454,33.3877287 18.9136267,31.4794625"/>
    <path fill="#4067AD" fill-rule="nonzero" d="M20.2342236,25.3203978 L15.962785,27.7930189 L20.2373062,30.2672665 C21.2397213,30.8473996 22.4746299,30.8473996 23.4769638,30.2672665 L27.7484024,27.7947268 L23.4738812,25.3203978 C22.4714661,24.7402647 21.2365576,24.7402647 20.2342236,25.3203978"/>
    <path fill="#324598" fill-rule="nonzero" d="M28.2126187,16.4164569 L23.4735973,13.6733294 C22.4713445,13.093115 21.2363548,13.093115 20.2340208,13.6733294 L15.4950805,16.4164569 C14.4926655,16.9966713 13.8752517,18.0689375 13.8752517,19.229285 L13.8752517,24.7155401 C13.8752517,24.773041 13.8771986,24.8302166 13.8802001,24.8872296 C13.9377962,23.7935734 14.5423116,22.7975142 15.4950805,22.2460909 L20.2340208,19.5029634 C21.2363548,18.9228303 22.4713445,18.9228303 23.4735973,19.5029634 L28.2126187,22.2460909 C29.1653065,22.7975142 29.7698219,23.7935734 29.827418,24.8872296 C29.8304195,24.8302166 29.8324475,24.773041 29.8324475,24.7155401 L29.8324475,19.229285 C29.8324475,18.0689375 29.2149527,16.9966713 28.2126187,16.4164569"/>
    <path fill="#3457A7" fill-rule="nonzero" d="M15.4975061,27.5232444 L15.9620063,27.7921242 L20.2334449,25.3195845 C21.2357788,24.7393701 22.4706874,24.7393701 23.4729402,25.3195845 L27.7476237,27.7938322 L28.2149631,27.5232444 C29.152319,26.9806861 29.7526972,26.0078063 29.8267609,24.9352148 C29.8291134,24.8998359 29.8291134,24.8643756 29.8267609,24.829078 C29.7526972,23.7564865 29.152319,22.7836067 28.2149631,22.2409671 L23.476104,19.4978396 C22.47377,18.9176251 21.2387803,18.9176251 20.2365275,19.4978396 L15.4975061,22.2409671 C14.5448183,22.7924717 13.9403029,23.7883682 13.8827068,24.8820244 C13.9403029,25.9758433 14.5448183,26.9717397 15.4975061,27.5232444"/>
    <path fill="#324598" fill-rule="nonzero" d="M39.9387941,18 L9.06120589,18 C4.07761404,18 0,13.9499849 0,9 C0,4.05001521 4.07761404,0 9.06120589,0 L39.9387941,0 C44.9223859,0 49,4.05001521 49,9 C49,13.9499849 44.9223859,18 39.9387941,18" transform="translate(158 12)"/>
    <g fill="#FFF" fill-rule="nonzero" transform="translate(166 16)">
      <path d="M5.61821616,8.00717132 C5.91575041,7.73575898 6.06424845,7.38095242 6.06424845,6.94285304 C6.06424845,6.52374862 5.91306221,6.16904359 5.61079576,5.87853488 C5.30809984,5.5881277 4.86453968,5.44287341 4.27990054,5.44287341 L1.96596732,5.44287341 L1.96596732,8.41428977 L4.27990054,8.41428977 C4.87464695,8.41428977 5.32068057,8.27858354 5.61821616,8.00717132 L5.61821616,8.00717132 Z M3.93193332,3.85716318 C4.3452777,3.85716318 4.66797476,3.75954815 4.89980975,3.56431822 C5.13175079,3.36908829 5.24766829,3.08568986 5.24766829,2.71432637 C5.24766829,2.3524094 5.12916995,2.07378512 4.89228199,1.87855519 C4.65539402,1.68332525 4.33517043,1.58571023 3.93193332,1.58571023 L1.96596732,1.58571023 L1.96596732,3.85716318 L3.93193332,3.85716318 Z M7.49342746,5.5571469 C7.83117872,6.00479446 8,6.4952056 8,7.02858363 C8,7.94287335 7.6547223,8.66670728 6.96416558,9.19998378 C6.27360885,9.73336181 5.30809984,10 4.06806668,10 L0,10 L0,0 L3.93193332,0 C4.90991702,0 5.69649748,0.223874488 6.29124389,0.671420514 C6.88599162,1.11906795 7.18341851,1.77616613 7.18341851,2.64281657 C7.18341851,3.50956856 6.77512842,4.11902734 5.95843956,4.47139612 C6.64404935,4.74758249 7.15567619,5.10949946 7.49342746,5.5571469 L7.49342746,5.5571469 Z"/>
      <polygon points="16 8.358 16 10 9 10 9 0 15.847 0 15.847 1.644 11.068 1.644 11.068 4.258 14.315 4.258 14.315 5.9 11.068 5.9 11.068 8.358"/>
      <polygon points="24 1.657 21.491 1.657 21.491 10 19.508 10 19.508 1.657 17 1.657 17 0 24 0"/>
      <path d="M31.3203848,6.45711439 L30.0072852,3.5856493 L28.694082,6.45711439 L31.3203848,6.45711439 Z M32.0275182,8.0142816 L27.9871547,8.0142816 L27.0779988,10 L25,10 L29.8485594,0 L30.1515431,0 L35,10 L32.9365716,10 L32.0275182,8.0142816 Z"/>
    </g>
  </g>
</svg>
