<svg width="81" height="23" viewBox="0 0 81 23" fill="none" xmlns="http://www.w3.org/2000/svg">
<path d="M59.8573 13.3451C58.8625 14.448 57.5632 14.9998 55.9605 14.9998C54.3577 14.9998 52.9618 14.4508 51.7737 13.3536C50.5851 12.256 49.9913 10.8745 49.9913 9.20935C49.9913 7.54421 50.588 6.16265 51.7819 5.06508C52.9759 3.96751 54.3688 3.41852 55.9605 3.41852C57.5967 3.41852 58.8955 3.95902 59.8573 5.04044L58.3648 6.69507C58.1104 6.41391 57.7705 6.18406 57.3452 6.00591C56.9194 5.82736 56.4581 5.73808 55.9605 5.73808C55.0651 5.73808 54.2941 6.06772 53.6474 6.72739C53.0006 7.38707 52.6773 8.20348 52.6773 9.17663C52.6773 10.1498 53.0035 10.9771 53.6556 11.6582C54.3077 12.3393 55.0763 12.6802 55.9605 12.6802C56.6902 12.6802 57.2898 12.5097 57.7598 12.1692C58.2298 11.8287 58.5308 11.3285 58.6634 10.6689H56.7563V8.8684H61.0178C61.2391 10.7497 60.8522 12.2419 59.8573 13.3451Z" fill="#324598"/>
<path fill-rule="evenodd" clip-rule="evenodd" d="M69.5821 7.41613C69.1344 7.07558 68.662 6.81341 68.1644 6.62961C67.6671 6.4458 67.186 6.3541 66.7218 6.3537C66.2576 6.3537 65.774 6.4458 65.271 6.62961C64.768 6.81341 64.2927 7.07558 63.845 7.41613C63.3973 7.75667 63.0298 8.21355 62.7424 8.78678C62.4549 9.36 62.3112 9.99786 62.3112 10.7008C62.3112 11.4037 62.4549 12.0391 62.7424 12.6067C63.0298 13.1746 63.4002 13.6259 63.8533 13.9612C64.3063 14.2964 64.7817 14.553 65.2793 14.7315C65.7765 14.9101 66.2576 14.9993 66.7218 14.9993C67.186 14.9993 67.6667 14.9101 68.1644 14.7315C68.662 14.5534 69.1344 14.2964 69.5821 13.9612C70.0298 13.6259 70.3973 13.1742 70.6848 12.6067C70.9722 12.0391 71.1159 11.4037 71.1159 10.7008C71.1159 9.99786 70.9722 9.36 70.6848 8.78678C70.3973 8.21355 70.0298 7.75667 69.5821 7.41613ZM64.6821 10.7007C64.6821 9.96553 64.8866 9.38705 65.2958 8.96531C65.7047 8.54357 66.18 8.3327 66.7218 8.3327C67.2525 8.3327 67.7225 8.54357 68.1313 8.96531C68.5406 9.38705 68.745 9.96553 68.745 10.7007C68.745 11.4145 68.5402 11.9769 68.1313 12.3877C67.7225 12.7985 67.2525 13.0041 66.7218 13.0041C66.18 13.0041 65.7047 12.7985 65.2958 12.3877C64.8866 11.9769 64.6821 11.4145 64.6821 10.7007Z" fill="#324598"/>
<path d="M75.9267 14.8859H75.5451L71.0515 6.45148H73.5554L75.7277 11.1068L77.8999 6.45148H80.4203L75.9267 14.8859Z" fill="#324598"/>
<path d="M39.2547 7.29211C39.9105 7.91745 40.2384 8.89302 40.2384 10.2184V14.7723H38.1239V10.2346C38.1239 9.56118 37.9546 9.03481 37.6155 8.65509C37.2769 8.27576 36.8449 8.0859 36.3204 8.0859C35.7522 8.0859 35.2851 8.26768 34.9188 8.63125C34.5529 8.99482 34.2931 9.45978 34.1403 10.0261V14.7723H32.0259V10.2346C32.0259 9.56118 31.8566 9.03481 31.5175 8.65509C31.1785 8.27536 30.7362 8.0859 30.1898 8.0859C29.0533 8.0859 28.3376 8.73265 28.0423 10.0261V14.7723H25.9279V6.43409H28.0423V8.13397C28.0968 7.74899 28.3483 7.35634 28.7964 6.9552C29.2445 6.55447 29.8454 6.3537 30.5995 6.3537C31.2879 6.3537 31.9136 6.50882 32.4764 6.81866C33.0393 7.1285 33.468 7.60437 33.7633 8.24587C33.938 7.77565 34.2853 7.3426 34.8044 6.94712C35.3235 6.55164 35.993 6.3537 36.8123 6.3537C37.7849 6.3541 38.5988 6.66677 39.2547 7.29211Z" fill="#4067AD"/>
<path d="M49.257 6.43408L44.5358 17.819H42.4866L43.8309 14.5477L40.2408 6.43408H42.3061L44.8307 12.1425L47.1913 6.43408H49.257V6.43408Z" fill="#4067AD"/>
<path d="M2.27371 10.3598C2.82008 10.563 3.36728 10.7646 3.91406 10.967C3.97477 10.9896 4.03176 10.9904 4.09206 10.9597C4.24362 10.8826 4.39766 10.809 4.55087 10.7351C5.36114 10.3453 6.17181 9.95546 6.98207 9.56564C7.01429 9.55029 7.06839 9.5515 7.06715 9.50585C7.06632 9.46222 7.01387 9.4594 6.98042 9.44485C6.07228 9.0522 5.16332 8.66035 4.25518 8.2677C3.92563 8.1251 3.59689 7.98129 3.26775 7.83788C3.27147 7.82576 3.2756 7.81405 3.27931 7.80193C3.34167 7.82092 3.40445 7.83829 3.46598 7.85929C3.81164 7.97685 4.15607 8.09763 4.50214 8.21316C5.20833 8.44868 5.91577 8.68015 6.62196 8.91566C6.78384 8.96979 6.94532 9.02392 7.10721 9.07846C7.21623 8.53634 7.55983 8.05562 8.05829 7.77406L9.25097 7.10065C8.87558 6.96491 8.50101 6.82716 8.12644 6.6886C6.8462 6.21475 5.56639 5.74009 4.28698 5.26463C4.16515 5.21938 4.04663 5.21817 3.92645 5.26746C3.03772 5.63426 2.14693 5.99702 1.26027 6.36866C0.81425 6.5557 0.57844 7.10913 0.772126 7.54178C1.17437 8.44019 1.64475 9.30751 2.06929 10.1962C2.111 10.2827 2.18823 10.3279 2.27371 10.3598Z" fill="#34479A"/>
<path d="M6.25442 5.49849C6.28869 5.57322 6.33701 5.61281 6.41548 5.63907C7.43553 5.98203 8.45476 6.32783 9.47399 6.67241C9.50827 6.68412 9.54833 6.71159 9.58054 6.67887C9.61317 6.64494 9.57104 6.6102 9.56609 6.57546C9.56361 6.55728 9.55576 6.53951 9.54874 6.52254C9.25635 5.78571 8.96314 5.04928 8.67075 4.31245C8.49565 3.87132 8.3222 3.42979 8.14751 2.98825C8.15742 2.98381 8.16733 2.97977 8.17765 2.97533C8.25736 3.13772 8.33582 3.30092 8.41677 3.46291C8.91193 4.45262 9.40792 5.44193 9.90266 6.43205C9.94148 6.51002 9.9803 6.58839 10.0195 6.66635L10.8409 6.2026C11.4166 5.87741 12.1237 5.85963 12.7138 6.14847C12.5028 5.69522 12.2926 5.24157 12.0828 4.78792C11.6087 3.76306 11.135 2.7378 10.663 1.71213C10.613 1.60387 10.5382 1.52954 10.4263 1.4851C9.53676 1.13204 8.64927 0.773316 7.75766 0.425503C7.23317 0.221097 6.66781 0.472766 6.48032 0.990649C6.17099 1.84503 5.87448 2.70386 5.56185 3.55744C5.49536 3.73882 5.50321 3.89556 5.58498 4.06603C5.81336 4.54069 6.0343 5.01939 6.25442 5.49849Z" fill="#34479A"/>
<path d="M13.3039 6.27493C13.3234 6.31371 13.3242 6.37956 13.3837 6.37754C13.4394 6.37592 13.4464 6.31331 13.4646 6.27291C13.8416 5.43953 14.217 4.60494 14.5937 3.77116C14.7506 3.42415 14.9096 3.07796 15.0678 2.73176C15.0736 2.79074 15.0587 2.84285 15.0409 2.89375C14.8634 3.39951 14.6849 3.90528 14.507 4.41063C14.2385 5.17372 13.9701 5.93722 13.7016 6.70071L15.6009 7.77324C15.7541 7.85968 15.8925 7.96471 16.0139 8.08469C16.0825 7.90533 16.151 7.72597 16.2204 7.54702C16.716 6.26847 17.2132 4.99073 17.7092 3.71258C17.76 3.5817 17.7971 3.45687 17.7327 3.31024C17.3887 2.52372 17.0459 1.73639 16.7193 0.9426C16.5595 0.55439 16.3377 0.248589 15.8979 0.14679C15.7744 0.14679 15.6505 0.14679 15.527 0.14679C15.3746 0.211828 15.2202 0.272423 15.0707 0.342308C14.3674 0.671539 13.6637 0.999963 12.9641 1.33687C12.7654 1.4322 12.5511 1.49926 12.4648 1.75416C12.2959 2.25266 12.0939 2.74024 11.9002 3.23025C11.8631 3.32478 11.8639 3.40234 11.9101 3.49444C12.3764 4.42073 12.8389 5.34864 13.3039 6.27493Z" fill="#34479A"/>
<path d="M17.2756 5.87336C16.9696 6.75966 16.6582 7.64434 16.3497 8.52983C16.3963 8.61426 16.4368 8.70192 16.4703 8.79241C16.8399 8.65142 17.2078 8.5064 17.5779 8.36622C18.1536 8.14808 18.7301 7.93196 19.307 7.71705C19.4858 7.6504 19.6584 7.56395 19.8525 7.52275C19.8497 7.57486 19.8133 7.57243 19.7906 7.58334C19.2058 7.86248 18.6202 8.1396 18.0359 8.41914C17.544 8.65425 17.0521 8.89017 16.5603 9.12568C16.5789 9.23152 16.5892 9.33938 16.5892 9.44845V12.0051C16.8853 11.8726 17.1814 11.7405 17.4783 11.6093C18.3093 11.2416 19.1406 10.8752 19.9715 10.5084C20.4216 10.3097 20.8714 10.1097 21.3219 9.9126C21.4537 9.85483 21.5453 9.77 21.5994 9.63306C21.7432 9.26949 21.8984 8.90996 22.0484 8.54882C22.2553 8.04952 22.4638 7.55062 22.6678 7.05011C22.871 6.55121 22.6166 5.98405 22.1082 5.80065C21.8679 5.71379 21.6255 5.63138 21.383 5.55019C20.7586 5.34174 20.1325 5.13814 19.516 4.90869C19.3206 4.83598 19.1364 4.8283 18.9308 4.93091C18.4996 5.14622 18.0565 5.34093 17.6064 5.51464C17.4164 5.58735 17.3342 5.70248 17.2756 5.87336Z" fill="#34479A"/>
<path d="M6.36965 16.185C6.67608 15.289 6.99283 14.3967 7.30587 13.5027C7.26457 13.4276 7.22864 13.35 7.19808 13.27C6.56623 13.5079 5.93437 13.7455 5.30293 13.9846C4.71443 14.2072 4.12635 14.431 3.53786 14.654C3.53497 14.6455 3.53249 14.637 3.5296 14.6285C4.21267 14.3025 4.89573 13.9765 5.5788 13.6501C6.08593 13.4078 6.59307 13.165 7.10062 12.9222C7.08121 12.8139 7.07006 12.7032 7.07006 12.5913V10.0577C6.85283 10.1546 6.63561 10.2516 6.41838 10.3477C5.06257 10.9472 3.70759 11.5487 2.34972 12.1429C2.18742 12.214 2.0945 12.3211 2.03256 12.4762C1.89586 12.8184 1.75049 13.1573 1.60884 13.4974C1.40276 13.9927 1.19049 14.4855 0.991851 14.9836C0.775037 15.527 1.02613 16.0751 1.57539 16.2642C2.45421 16.5672 3.33633 16.8608 4.21432 17.1654C4.38529 17.2248 4.53314 17.2079 4.69337 17.1339C5.13237 16.9323 5.57219 16.732 6.01944 16.5498C6.20281 16.4751 6.30688 16.3688 6.36965 16.185Z" fill="#34479A"/>
<path d="M17.416 16.597C17.3697 16.4944 17.2983 16.4355 17.1913 16.4031C16.9964 16.3438 16.8027 16.2807 16.6098 16.2153C15.8128 15.9446 15.0161 15.6724 14.2187 15.4017C14.1757 15.3872 14.1237 15.3585 14.0853 15.4001C14.0527 15.4352 14.0791 15.4797 14.0944 15.5185C14.2009 15.7867 14.3083 16.0541 14.414 16.3223C14.6911 17.024 14.9678 17.7257 15.2449 18.4274C15.3089 18.5898 15.3734 18.7518 15.4374 18.9142C15.4262 18.9178 15.4151 18.9219 15.4039 18.9255C15.3907 18.9017 15.3767 18.8786 15.3647 18.854C15.2305 18.5821 15.1004 18.3078 14.9616 18.0388C14.6089 17.3545 14.2736 16.6617 13.9267 15.9745C13.8268 15.7762 13.7276 15.5774 13.6285 15.3791L12.8174 15.8372C12.5127 16.0093 12.1707 16.0953 11.8292 16.0953C11.5149 16.0953 11.2006 16.0214 10.9149 15.876C11.2593 16.6144 11.6 17.3541 11.9423 18.0933C12.2793 18.8209 12.6213 19.5464 12.9513 20.2772C13.0194 20.4282 13.1086 20.53 13.2668 20.5923C14.1295 20.9316 14.9889 21.2794 15.8508 21.6203C16.4108 21.8417 16.9873 21.6179 17.1987 21.0148C17.4957 20.1673 17.7988 19.3218 18.099 18.4755C18.1469 18.3406 18.1601 18.2117 18.0937 18.0711C17.862 17.5823 17.6381 17.0899 17.416 16.597Z" fill="#34479A"/>
<path d="M22.9449 14.713C22.8974 14.3987 22.7145 14.1365 22.5782 13.857C22.2714 13.2284 21.9641 12.5998 21.6548 11.9725C21.5928 11.8472 21.5255 11.7321 21.3719 11.678C20.9081 11.514 20.446 11.3435 19.9888 11.1617C19.7576 11.0696 19.5445 11.0425 19.3305 11.1928C19.2731 11.2332 19.2083 11.2643 19.1443 11.2946C18.3076 11.6925 17.4705 12.09 16.6334 12.4871C16.6193 12.494 16.6024 12.4988 16.5888 12.5065V12.5897C16.6016 12.597 16.6173 12.6018 16.6305 12.6079C16.7771 12.6737 16.9233 12.7396 17.0711 12.8034C17.7794 13.1088 18.4885 13.4126 19.1963 13.7188C19.4586 13.8323 19.7183 13.9507 19.9888 14.0711C19.9335 14.1143 19.8996 14.0888 19.8654 14.0775C18.963 13.7766 18.0602 13.476 17.1583 13.1735C16.9555 13.1056 16.7527 13.0377 16.5504 12.9695C16.4397 13.5083 16.0965 13.9854 15.6005 14.2658L14.3571 14.9683C15.0533 15.2228 15.7496 15.4769 16.4451 15.7334C17.3776 16.0767 18.3084 16.4238 19.2413 16.7655C19.3859 16.8184 19.5329 16.8871 19.6952 16.8204C19.8484 16.7574 20.0033 16.6984 20.1565 16.6354C20.7648 16.385 21.3731 16.1349 21.9806 15.882C22.2115 15.7859 22.4572 15.7112 22.6455 15.5403C22.8904 15.3177 22.9941 15.0369 22.9449 14.713Z" fill="#34479A"/>
<path d="M10.333 15.7431C10.3173 15.7112 10.3102 15.6615 10.2644 15.6635C10.2219 15.6655 10.2124 15.712 10.1971 15.7455C9.7267 16.7873 9.25673 17.8296 8.78594 18.8714C8.73266 18.9893 8.67567 19.1053 8.62033 19.2224C8.75868 18.7554 8.91809 18.2986 9.07833 17.8417C9.37113 17.0071 9.66352 16.1725 9.95714 15.3383L8.05827 14.2658C7.90175 14.1773 7.76051 14.069 7.63703 13.9454C7.06588 15.4268 6.49556 16.9085 5.92111 18.3886C5.86618 18.53 5.87155 18.6557 5.93061 18.7918C6.2709 19.5747 6.61904 20.3547 6.93993 21.1453C7.09892 21.5367 7.33969 21.8143 7.76299 21.9233C7.86747 21.9233 7.97237 21.9233 8.07685 21.9233C8.15821 21.8975 8.24328 21.8801 8.31969 21.8446C9.19809 21.4317 10.0748 21.016 10.952 20.6012C11.0561 20.5519 11.1226 20.4735 11.163 20.3677C11.3613 19.8494 11.5616 19.3319 11.7635 18.8152C11.7945 18.7365 11.7953 18.6645 11.7565 18.5874C11.282 17.6393 10.8079 16.6908 10.333 15.7431Z" fill="#34479A"/>
<path d="M11.0049 12.6839L8.83014 13.9119L11.0061 15.1408C11.5166 15.4288 12.1451 15.4288 12.6556 15.1408L14.8303 13.9127L12.6543 12.6839C12.1439 12.3958 11.5153 12.3958 11.0049 12.6839Z" fill="#4067AD"/>
<path d="M15.067 8.26121L12.6543 6.89864C12.1439 6.61061 11.5154 6.61061 11.0049 6.89864L8.59229 8.26121C8.08185 8.54924 7.76758 9.08207 7.76758 9.65852V12.3837C7.76758 12.4123 7.7684 12.4406 7.77006 12.4689C7.79938 11.9256 8.10705 11.4311 8.59229 11.1572L11.0049 9.79466C11.5154 9.50663 12.1439 9.50663 12.6543 9.79466L15.067 11.1572C15.5518 11.4311 15.8599 11.926 15.8892 12.4689C15.8909 12.4406 15.8917 12.4123 15.8917 12.3837V9.65852C15.8913 9.08207 15.577 8.54964 15.067 8.26121Z" fill="#324598"/>
<path d="M8.59353 13.7782L8.83016 13.9119L11.0049 12.6838C11.5153 12.3958 12.1439 12.3958 12.6539 12.6838L14.8299 13.9127L15.0678 13.7782C15.5448 13.5087 15.8504 13.0256 15.8884 12.4928C15.8896 12.4754 15.8896 12.4576 15.8884 12.4402C15.8508 11.9074 15.5452 11.4243 15.0678 11.1548L12.6552 9.79225C12.1447 9.50423 11.5162 9.50423 11.0057 9.79225L8.59311 11.1548C8.10828 11.4287 7.8002 11.9236 7.77087 12.4665C7.80102 13.0094 8.10869 13.5043 8.59353 13.7782Z" fill="#3457A7"/>
</svg>
