<svg width="88" height="35" viewBox="0 0 88 35" fill="none" xmlns="http://www.w3.org/2000/svg">
<g clip-path="url(#clip0)">
<path d="M80.0181 28.5816H79.4195V31.0888H80.0181V28.5816ZM79.4195 27.9799C79.4195 28.1805 79.619 28.3811 79.8186 28.3811C80.0181 28.3811 80.2177 28.1805 80.2177 27.9799C80.2177 27.7793 80.0181 27.5788 79.8186 27.5788C79.5193 27.5788 79.4195 27.7793 79.4195 27.9799ZM78.9206 28.5816H78.4218V30.5874C78.322 30.6877 78.1224 30.6877 78.0227 30.6877C77.7233 30.6877 77.5238 30.5874 77.5238 30.2865V28.5816H77.0249V30.2865C77.0249 30.8882 77.5238 31.1891 78.0227 31.1891C78.2222 31.1891 78.322 31.1891 78.5215 31.0888V31.1891C78.5215 31.2894 78.5215 31.2894 78.5215 31.3897C78.4218 31.5902 78.2222 31.6905 78.0227 31.6905C77.9229 31.6905 77.8231 31.6905 77.7234 31.5902C77.6236 31.4899 77.5238 31.4899 77.424 31.3897L77.1247 31.6905C77.3243 31.9914 77.7234 32.192 78.1224 32.192C78.6213 32.192 79.1202 31.8911 79.1202 31.2894V28.5816H78.9206ZM76.3265 28.5816H75.8277V31.0888H76.4263V28.5816H76.3265ZM75.7279 27.9799C75.7279 28.1805 75.9274 28.3811 76.127 28.3811C76.3265 28.3811 76.5261 28.1805 76.5261 27.9799C76.5261 27.7793 76.3265 27.5788 76.127 27.5788C75.8277 27.5788 75.7279 27.7793 75.7279 27.9799ZM75.5283 30.6877C75.229 30.6877 75.1292 30.4871 75.1292 30.2865V27.5788H74.6304V30.2865C74.6304 30.7879 74.9297 31.1891 75.6281 31.1891V30.6877H75.5283ZM73.932 28.5816C73.8322 28.5816 73.6326 28.5816 73.4331 28.6819C73.1338 28.7822 72.9342 29.0831 72.9342 29.4842V31.0888H73.4331V29.3839C73.4331 29.0831 73.6326 28.9828 73.932 28.9828C74.0317 28.9828 74.0317 28.9828 74.1315 28.9828V28.4813C74.0317 28.5816 73.932 28.5816 73.932 28.5816ZM72.3356 28.5816H71.8367V31.0888H72.4354V28.5816H72.3356ZM71.737 27.9799C71.737 28.1805 71.9365 28.3811 72.136 28.3811C72.3356 28.3811 72.5351 28.1805 72.5351 27.9799C72.5351 27.7793 72.3356 27.5788 72.136 27.5788C71.8367 27.5788 71.737 27.7793 71.737 27.9799ZM70.1406 30.5874H69.3424V29.5845H70.1406C70.3401 29.5845 70.4399 29.5845 70.5397 29.6848C70.6394 29.7851 70.7392 29.8854 70.7392 30.0859C70.7392 30.2865 70.6394 30.3868 70.5397 30.4871C70.5397 30.5874 70.3401 30.5874 70.1406 30.5874ZM69.3424 29.0831V28.2808H70.1406C70.4399 28.2808 70.6395 28.3811 70.6395 28.6819C70.6395 28.9828 70.4399 29.0831 70.1406 29.0831H69.3424ZM71.2381 28.5816C71.2381 27.9799 70.7392 27.5788 70.1406 27.5788H68.8435V31.0888H70.1406C70.839 31.0888 71.3379 30.7879 71.3379 30.0859C71.3379 29.7851 71.2381 29.3839 70.839 29.2836C71.1383 29.0831 71.2381 28.8825 71.2381 28.5816ZM65.2517 30.2865C65.2517 30.8882 65.7506 31.1891 66.2494 31.1891C66.7483 31.1891 67.2472 30.8882 67.2472 30.2865V29.3839C67.2472 28.7822 66.7483 28.4813 66.2494 28.4813C65.9501 28.4813 65.551 28.6819 65.3515 29.0831L65.7506 29.2836C65.8503 29.0831 66.0499 28.9828 66.2494 28.9828C66.449 28.9828 66.7483 29.0831 66.7483 29.3839V29.5845H65.2517V30.2865ZM66.7483 30.0859V30.2865C66.7483 30.4871 66.5487 30.6877 66.2494 30.6877C66.0499 30.6877 65.7506 30.5874 65.7506 30.2865V30.0859H66.7483ZM64.8526 29.3839C64.8526 28.7822 64.3537 28.5816 63.9546 28.5816C63.6553 28.5816 63.4558 28.6819 63.2562 28.8825C63.0567 28.5816 62.8571 28.5816 62.5578 28.5816C62.2585 28.5816 61.9592 28.6819 61.6599 28.8825V31.0888H62.1587V29.0831C62.2585 28.9828 62.3583 28.9828 62.5578 28.9828C62.7574 28.9828 62.9569 29.0831 62.9569 29.2836V31.0888H63.4558V29.3839C63.4558 29.1834 63.6553 29.0831 63.8549 29.0831C64.0544 29.0831 64.254 29.1834 64.254 29.3839V31.0888H64.8526V29.3839ZM60.9614 31.1891C61.0612 31.1891 61.0612 31.1891 61.161 31.1891V30.6877C60.8617 30.6877 60.5624 30.6877 60.5624 30.2865V29.0831H61.0612V28.5816H60.5624V27.9799H60.0635V30.2865C60.0635 30.8882 60.4626 31.1891 60.9614 31.1891ZM59.1655 29.6848H58.2676V29.4842C58.2676 29.2836 58.4671 29.0831 58.7664 29.0831C58.966 29.0831 59.2653 29.1834 59.2653 29.4842V29.6848H59.1655ZM58.6667 31.1891C58.966 31.1891 59.3651 30.9885 59.5646 30.6877L59.0658 30.3868C58.966 30.5874 58.7664 30.6877 58.5669 30.6877C58.3673 30.6877 58.068 30.5874 58.068 30.2865V30.0859H59.5646V29.3839C59.5646 28.7822 59.0658 28.4813 58.5669 28.4813C58.068 28.4813 57.5692 28.7822 57.5692 29.3839V30.2865C57.6689 30.8882 58.1678 31.1891 58.6667 31.1891ZM55.2744 30.2865C55.2744 30.8882 55.7732 31.1891 56.2721 31.1891C56.771 31.1891 57.2698 30.8882 57.2698 30.2865V29.3839C57.2698 28.7822 56.771 28.4813 56.2721 28.4813C55.9728 28.4813 55.5737 28.6819 55.3741 29.0831L55.7732 29.2836C55.873 29.0831 56.0726 29.0831 56.2721 29.0831C56.4716 29.0831 56.771 29.1834 56.771 29.4842V29.6848H55.2744V30.2865ZM56.771 30.0859V30.2865C56.771 30.4871 56.5714 30.6877 56.2721 30.6877C56.0726 30.6877 55.7732 30.5874 55.7732 30.2865V30.0859H56.771ZM54.6757 28.5816C54.576 28.5816 54.3764 28.5816 54.1769 28.6819C53.8775 28.7822 53.678 29.0831 53.678 29.4842V31.0888H54.1769V29.3839C54.1769 29.0831 54.3764 28.9828 54.6757 28.9828C54.7755 28.9828 54.7755 28.9828 54.8753 28.9828V28.4813C54.8753 28.5816 54.7755 28.5816 54.6757 28.5816ZM52.2812 29.9856C52.4807 29.9856 52.5805 29.9856 52.6803 30.0859V30.6877C52.5805 30.6877 52.3809 30.7879 52.1814 30.7879C51.9818 30.7879 51.6825 30.6877 51.6825 30.4871C51.7823 30.1862 51.8821 29.9856 52.2812 29.9856ZM52.6803 29.6848C52.4807 29.5845 52.3809 29.5845 52.1814 29.5845C51.6825 29.5845 51.2834 29.8854 51.2834 30.3868C51.2834 30.9885 51.7823 31.1891 52.2812 31.1891C52.6803 31.1891 52.9796 31.0888 53.2789 30.9885V29.3839C53.2789 28.7822 52.78 28.5816 52.2812 28.5816C51.9819 28.5816 51.6825 28.6819 51.3832 28.9828L51.6825 29.2836C51.7823 29.1834 51.9818 29.0831 52.1814 29.0831C52.4807 29.0831 52.6803 29.1834 52.6803 29.4842V29.6848ZM49.8866 28.9828C50.0862 28.9828 50.1859 28.9828 50.2857 29.0831V30.6877C50.1859 30.6877 50.0862 30.7879 49.8866 30.7879C49.5873 30.7879 49.3877 30.6877 49.288 30.3868V29.4842C49.3877 29.0831 49.5873 28.9828 49.8866 28.9828ZM49.8866 31.1891C50.0862 31.1891 50.1859 31.1891 50.3855 31.1891C50.585 31.1891 50.6848 31.0888 50.8843 31.0888V27.7793H50.3855V28.7822C50.2857 28.6819 50.0862 28.6819 49.8866 28.6819C49.3877 28.6819 48.8889 28.9828 48.8889 29.5845V30.4871C48.8889 30.9885 49.288 31.1891 49.8866 31.1891ZM48.2902 27.6791H47.6916V31.0888H48.2902V27.6791ZM47.5918 27.0773C47.5918 27.2779 47.7914 27.4785 47.9909 27.4785C48.1905 27.4785 48.39 27.2779 48.39 27.0773C48.39 26.8768 48.1905 26.6762 47.9909 26.6762C47.7914 26.6762 47.5918 26.8768 47.5918 27.0773ZM86.4036 22.6647H85.805V25.1719H86.4036V22.6647ZM85.7052 22.063C85.7052 22.2636 85.9048 22.4642 86.1043 22.4642C86.3038 22.4642 86.5034 22.2636 86.5034 22.063C86.5034 21.8624 86.3038 21.6619 86.1043 21.6619C85.9048 21.7622 85.7052 21.8624 85.7052 22.063ZM85.3061 23.5673C85.3061 22.8653 84.8073 22.6647 84.2086 22.6647C83.9093 22.6647 83.61 22.765 83.3106 22.8653V25.2722H83.8095V23.2665C83.9093 23.1662 84.0091 23.1662 84.2086 23.1662C84.5079 23.1662 84.7075 23.2664 84.7075 23.5673V25.2722H85.2063V23.5673H85.3061ZM82.712 22.6647H82.1134V25.1719H82.712V22.6647ZM82.1134 22.063C82.1134 22.2636 82.3129 22.4642 82.5125 22.4642C82.712 22.4642 82.9116 22.2636 82.9116 22.063C82.9116 21.8624 82.712 21.6619 82.5125 21.6619C82.2131 21.7622 82.1134 21.8624 82.1134 22.063ZM81.5147 22.6647C81.415 22.6647 81.2154 22.6647 81.0159 22.765C80.7165 22.8653 80.517 23.1662 80.517 23.5673V25.2722H81.0159V23.5673C81.0159 23.2664 81.2154 23.1662 81.5147 23.1662C81.6145 23.1662 81.6145 23.1662 81.7143 23.1662V22.6647C81.7143 22.6647 81.6145 22.6647 81.5147 22.6647ZM78.1224 24.3696C78.1224 24.9713 78.6213 25.2722 79.1202 25.2722C79.619 25.2722 80.1179 24.9713 80.1179 24.3696V23.467C80.1179 22.8653 79.619 22.5644 79.1202 22.5644C78.8209 22.5644 78.4218 22.765 78.2222 23.1662L78.6213 23.3667C78.7211 23.1662 78.9206 23.0659 79.1202 23.0659C79.3197 23.0659 79.619 23.1662 79.619 23.467V23.6676H78.1224V24.3696ZM79.5193 24.169V24.3696C79.5193 24.5702 79.3197 24.7707 79.0204 24.7707C78.8209 24.7707 78.5215 24.6705 78.5215 24.3696V24.169H79.5193ZM77.8231 24.7707C77.5238 24.7707 77.424 24.5702 77.424 24.3696V21.6619H76.8254V24.3696C76.8254 24.871 77.1247 25.2722 77.8231 25.2722V24.7707ZM74.4308 24.3696C74.4308 24.9713 74.9297 25.2722 75.4286 25.2722C75.9274 25.2722 76.4263 24.9713 76.4263 24.3696V23.467C76.4263 22.8653 75.9274 22.5644 75.4286 22.5644C75.1292 22.5644 74.7301 22.765 74.5306 23.1662L74.9297 23.3667C75.0295 23.1662 75.229 23.0659 75.4286 23.0659C75.6281 23.0659 75.9274 23.1662 75.9274 23.467V23.6676H74.4308V24.3696ZM75.8277 24.169V24.3696C75.8277 24.5702 75.6281 24.7707 75.3288 24.7707C75.1292 24.7707 74.8299 24.6705 74.8299 24.3696V24.169H75.8277ZM73.932 23.467C73.932 22.8653 73.4331 22.6647 73.034 22.6647C72.7347 22.6647 72.5351 22.765 72.3356 22.9656C72.136 22.6647 71.9365 22.6647 71.6372 22.6647C71.3379 22.6647 71.0385 22.765 70.7392 22.9656V25.2722H71.2381V23.2665C71.3379 23.1662 71.4376 23.1662 71.6372 23.1662C71.8367 23.1662 72.0363 23.2664 72.0363 23.467V25.1719H72.5351V23.467C72.5351 23.2664 72.7347 23.1662 72.9342 23.1662C73.1338 23.1662 73.3333 23.2664 73.3333 23.467V25.1719H73.8322V23.467H73.932ZM70.3401 24.7707C70.0408 24.7707 69.941 24.5702 69.941 24.3696V21.6619H69.4422V24.3696C69.4422 24.871 69.7415 25.2722 70.4399 25.2722V24.7707H70.3401ZM67.9456 23.1662C68.1451 23.1662 68.4444 23.2664 68.4444 23.5673V24.4699C68.4444 24.6705 68.2449 24.871 67.9456 24.871C67.746 24.871 67.4467 24.7707 67.4467 24.4699V23.5673C67.4467 23.2664 67.746 23.1662 67.9456 23.1662ZM66.9478 24.3696C66.9478 24.9713 67.4467 25.2722 67.9456 25.2722C68.4444 25.2722 68.9433 24.9713 68.9433 24.3696V23.467C68.9433 22.8653 68.4444 22.5644 67.9456 22.5644C67.4467 22.5644 66.9478 22.8653 66.9478 23.467V24.3696ZM67.1474 22.063C67.1474 22.2636 67.3469 22.4642 67.5465 22.4642C67.746 22.4642 67.9456 22.2636 67.9456 22.063C67.9456 21.8624 67.746 21.6619 67.5465 21.6619C67.3469 21.7622 67.1474 21.8624 67.1474 22.063ZM68.0453 22.063C68.0453 22.2636 68.2449 22.4642 68.4444 22.4642C68.644 22.4642 68.8435 22.2636 68.8435 22.063C68.8435 21.8624 68.644 21.6619 68.4444 21.6619C68.2449 21.7622 68.0453 21.8624 68.0453 22.063ZM65.3515 24.6705H64.5533V23.6676H65.3515C65.551 23.6676 65.6508 23.6676 65.7506 23.7679C65.8503 23.8682 65.9501 23.9685 65.9501 24.169C65.9501 24.3696 65.8503 24.4699 65.7506 24.5702C65.6508 24.6705 65.551 24.6705 65.3515 24.6705ZM64.5533 23.1662V22.3639H65.3515C65.6508 22.3639 65.8503 22.4642 65.8503 22.765C65.8503 23.0659 65.6508 23.1662 65.3515 23.1662H64.5533ZM66.3492 22.765C66.3492 22.1633 65.8503 21.7622 65.2517 21.7622H63.8549V25.2722H65.1519C65.8503 25.2722 66.3492 24.9713 66.3492 24.2693C66.3492 23.9685 66.2494 23.5673 65.8503 23.467C66.3492 23.2664 66.3492 22.9656 66.3492 22.765ZM62.3583 22.6647H61.8594V25.1719H62.458V22.6647H62.3583ZM61.7596 22.063C61.7596 22.2636 61.9592 22.4642 62.1587 22.4642C62.3583 22.4642 62.5578 22.2636 62.5578 22.063C62.5578 21.8624 62.3583 21.6619 62.1587 21.6619C61.9592 21.7622 61.7596 21.8624 61.7596 22.063ZM60.1633 24.6705L61.4603 22.9656L61.2608 22.6647H59.5646V23.1662H60.7619L59.4648 24.871L59.6644 25.1719H61.4603V24.6705H60.1633ZM58.068 24.169C58.2676 24.169 58.3673 24.169 58.4671 24.2693V24.871C58.3673 24.871 58.1678 24.9713 57.9682 24.9713C57.7687 24.9713 57.4694 24.871 57.4694 24.6705C57.5692 24.2693 57.7687 24.169 58.068 24.169ZM58.4671 23.7679C58.2676 23.6676 58.1678 23.6676 57.9682 23.6676C57.4694 23.6676 57.0703 23.9685 57.0703 24.4699C57.0703 25.0716 57.5692 25.2722 58.068 25.2722C58.4671 25.2722 58.7664 25.1719 59.0658 25.0716V23.467C59.0658 22.8653 58.5669 22.6647 58.068 22.6647C57.7687 22.6647 57.4694 22.765 57.1701 23.0659L57.4694 23.3667C57.5692 23.2664 57.7687 23.1662 57.9682 23.1662C58.2676 23.1662 58.4671 23.2664 58.4671 23.5673V23.7679ZM56.5714 22.6647C56.4716 22.6647 56.2721 22.6647 56.0726 22.765C55.7732 22.8653 55.5737 23.1662 55.5737 23.5673V25.2722H56.0726V23.5673C56.0726 23.2664 56.2721 23.1662 56.5714 23.1662C56.6712 23.1662 56.6712 23.1662 56.771 23.1662V22.6647C56.771 22.6647 56.6712 22.6647 56.5714 22.6647ZM52.8798 23.7679H54.576V24.169C54.576 24.5702 54.1769 24.7707 53.7778 24.7707C53.3787 24.7707 52.9796 24.5702 52.9796 24.169V23.7679H52.8798ZM53.678 21.6619C53.1791 21.6619 52.6803 21.9627 52.3809 22.4642L52.8798 22.6647C53.0794 22.3639 53.3787 22.1633 53.678 22.1633C54.0771 22.1633 54.4762 22.3639 54.4762 22.765V23.1662H52.2812V24.0687C52.2812 24.7707 52.9796 25.1719 53.678 25.1719C54.3764 25.1719 55.0748 24.7707 55.0748 24.0687V22.765C55.0748 22.063 54.3764 21.6619 53.678 21.6619ZM50.7846 22.6647H50.1859V25.1719H50.7846V22.6647ZM50.1859 22.063C50.1859 22.2636 50.3855 22.4642 50.585 22.4642C50.7846 22.4642 50.9841 22.2636 50.9841 22.063C50.9841 21.8624 50.7846 21.6619 50.585 21.6619C50.2857 21.7622 50.1859 21.8624 50.1859 22.063ZM48.6893 24.871C48.5896 24.871 48.39 24.871 48.2902 24.7707V23.1662C48.39 23.0659 48.4898 23.0659 48.6893 23.0659C48.9887 23.0659 49.1882 23.1662 49.1882 23.467V24.3696C49.1882 24.7707 48.8889 24.871 48.6893 24.871ZM48.7891 22.6647C48.5896 22.6647 48.4898 22.6647 48.2902 22.765V21.7622H47.7914V25.0716C47.8911 25.1719 48.0907 25.1719 48.2902 25.1719C48.4898 25.1719 48.5896 25.1719 48.7891 25.1719C49.288 25.1719 49.7868 24.9713 49.7868 24.2693V23.3667C49.6871 22.9656 49.1882 22.6647 48.7891 22.6647ZM46.195 24.871C46.0952 24.871 45.8957 24.871 45.7959 24.7707V23.1662C45.8957 23.0659 45.9955 23.0659 46.195 23.0659C46.4943 23.0659 46.6939 23.1662 46.6939 23.467V24.3696C46.6939 24.7707 46.3945 24.871 46.195 24.871ZM46.2948 22.6647C46.0952 22.6647 45.9955 22.6647 45.7959 22.765V21.7622H45.297V25.0716C45.3968 25.1719 45.5964 25.1719 45.7959 25.1719C45.9955 25.1719 46.0952 25.1719 46.2948 25.1719C46.7936 25.1719 47.2925 24.9713 47.2925 24.2693V23.3667C47.2925 22.9656 46.7936 22.6647 46.2948 22.6647ZM44.6984 22.6647H44.0998V25.1719H44.6984V22.6647ZM44 22.063C44 22.2636 44.1995 22.4642 44.3991 22.4642C44.5986 22.4642 44.7982 22.2636 44.7982 22.063C44.7982 21.8624 44.5986 21.6619 44.3991 21.6619C44.1995 21.7622 44 21.8624 44 22.063ZM43.8004 22.3639V21.7622H41.1066V22.3639H42.2041V25.2722H42.8027V22.3639H43.8004Z" fill="#231F20"/>
<path d="M76.127 4.61318H74.0317V17.4499H76.127V4.61318ZM73.7324 2.50716C73.7324 3.30945 74.3311 3.91117 75.1293 3.91117C75.9274 3.91117 76.5261 3.30945 76.5261 2.50716C76.5261 1.70487 75.9274 1.10315 75.1293 1.10315C74.3311 1.10315 73.7324 1.70487 73.7324 2.50716ZM52.4807 12.0344H58.6667V13.4384C58.6667 14.8424 57.1701 15.5444 55.5737 15.5444C53.9773 15.5444 52.4807 14.8424 52.4807 13.4384V12.0344ZM55.5737 4.41261C53.678 4.41261 51.7823 5.31518 50.7846 7.32091L52.6803 8.22349C53.2789 7.02005 54.4762 6.41834 55.5737 6.41834C57.0703 6.41834 58.6667 7.02005 58.6667 8.52435V9.92836H50.3855V13.4384C50.3855 16.2464 52.9796 17.6504 55.5737 17.6504C58.1678 17.6504 60.7619 16.2464 60.7619 13.4384V8.62464C60.7619 5.81662 58.1678 4.41261 55.5737 4.41261ZM83.5102 15.4441H80.6168V11.6332H83.5102H83.61C84.3084 11.6332 84.8073 11.7335 85.2064 12.0344C85.6054 12.3352 85.9048 12.8367 85.9048 13.5387C85.9048 14.2407 85.7052 14.7421 85.2064 15.043C84.8073 15.3438 84.3084 15.4441 83.7098 15.4441H83.5102ZM80.6168 9.72779V6.61891H83.5102C84.5079 6.61891 85.3061 7.12034 85.3061 8.12321C85.3061 9.32665 84.5079 9.82808 83.5102 9.82808H80.6168V9.72779ZM87.4014 8.12321C87.4014 5.71633 85.6054 4.61318 83.5102 4.61318H78.5215V17.4499H83.5102C86.0045 17.4499 87.9002 16.447 88 13.639C88 12.3352 87.6009 11.1318 86.2041 10.6304C87.102 10.0287 87.4014 9.02579 87.4014 8.12321ZM67.746 15.4441H64.8526V11.6332H67.746H67.8458C68.5442 11.6332 69.0431 11.7335 69.4422 12.0344C69.8413 12.3352 70.1406 12.8367 70.1406 13.5387C70.1406 14.2407 69.941 14.7421 69.4422 15.043C69.0431 15.3438 68.5442 15.4441 67.9456 15.4441H67.746ZM64.8526 9.72779V6.61891H67.746C68.7438 6.61891 69.5419 7.12034 69.5419 8.12321C69.5419 9.32665 68.7438 9.82808 67.746 9.82808H64.8526V9.72779ZM71.6372 8.12321C71.6372 5.71633 69.8413 4.61318 67.746 4.61318H62.7574V17.4499H67.746C70.2404 17.4499 72.1361 16.447 72.2358 13.639C72.2358 12.3352 71.8367 11.1318 70.4399 10.6304C71.3379 10.0287 71.6372 9.02579 71.6372 8.12321ZM49.288 6.71919V4.61318H39.4104V6.71919H43.3016V17.4499H45.3968V6.71919H49.288Z" fill="#ED3026"/>
<path d="M26.4399 22.6647L27.4376 21.6618V20.3581L26.1406 21.2607L26.4399 22.6647ZM20.1542 27.679H21.551L22.449 26.7765L20.9524 26.3753L20.1542 27.679ZM12.1723 26.5759L13.1701 27.5787H14.4671L13.5692 26.275L12.1723 26.5759ZM7.28344 20.2578V21.6618L8.1814 22.5644L8.5805 21.0601L7.28344 20.2578ZM8.28118 12.2349L7.28344 13.2378V14.5415L8.5805 13.6389L8.28118 12.2349ZM14.6667 7.32087H13.2698L12.3719 8.22344L13.9683 8.5243L14.6667 7.32087ZM22.5487 8.32373L21.551 7.32087H20.254L21.1519 8.62459L22.5487 8.32373ZM27.5374 13.2378L26.6395 12.3352L26.3401 13.9398L27.5374 14.7421V13.2378ZM7.18367 21.6618L2.99319 17.4498L7.0839 13.3381V14.7421L3.09297 17.4498L7.0839 20.1575V21.6618H7.18367ZM13.0703 27.679H7.18367V21.8624L8.1814 22.8653L7.28344 27.679L11.9728 26.6762L13.0703 27.679ZM21.551 27.7793L17.4603 31.8911L13.3696 27.7793H14.7664L17.4603 31.7908L20.1542 27.7793H21.551ZM27.5374 21.8624V27.679H21.7506L22.7483 26.6762L27.5374 27.5787L26.5397 22.8653L27.5374 21.8624ZM27.6372 13.3381L31.7279 17.4498L27.6372 21.5616V20.1575L31.6281 17.4498L27.6372 14.7421V13.3381ZM21.7506 7.22058H27.5374V13.0372L26.5397 12.0343L27.4376 7.22058L22.7483 8.22344L21.7506 7.22058ZM13.2698 7.22058L17.3605 3.00854L21.4512 7.12029H20.0544L17.3605 3.10883L14.6667 7.12029H13.2698V7.22058ZM7.18367 7.22058H12.9705L11.9728 8.22344L7.18367 7.22058L8.1814 12.0343L7.18367 13.0372V7.22058Z" fill="#ED3026"/>
<path fill-rule="evenodd" clip-rule="evenodd" d="M28.2358 6.61891L27.737 13.2378L32.7256 17.5501L27.737 21.8625L28.2358 28.4814L21.6508 27.9799L17.3605 32.9943L13.0703 27.9799L6.48526 28.4814L6.98413 21.8625L1.99546 17.5501L6.98413 13.2378L6.58503 6.61891L13.1701 7.12034L17.4603 2.10602L21.7506 7.12034L28.2358 6.61891ZM17.3605 0L21.9501 6.61891L29.7324 5.11461L28.2358 13.0372L34.8209 17.5501L28.2358 22.063L29.7324 29.8854L21.8503 28.4814L17.3605 35.1003L12.8707 28.4814L5.08844 29.9857L6.48526 22.063L0 17.4499L6.58503 12.937L5.08844 5.11461L12.9705 6.61891L17.3605 0Z" fill="#0FA0DB"/>
<path d="M17.3605 25.3725C21.4512 25.3725 24.7438 22.0631 24.7438 17.9513C24.7438 16.1462 24.0453 14.4413 22.9478 13.1376C23.6463 14.2407 24.0453 15.5444 24.0453 16.8482C24.0453 20.5588 21.0521 23.6677 17.2608 23.6677C13.4694 23.6677 10.4762 20.6591 10.4762 16.8482C10.4762 15.4442 10.8753 14.1404 11.5737 13.1376C10.4762 14.4413 9.77777 16.1462 9.77777 17.9513C9.97732 22.0631 13.2698 25.3725 17.3605 25.3725Z" fill="#ED3026"/>
<path fill-rule="evenodd" clip-rule="evenodd" d="M18.8571 10.9313C18.8571 11.2321 18.9569 11.2321 18.9569 11.4327C18.9569 12.1347 18.1587 12.235 17.7596 11.533V12.6361C17.8594 12.4356 17.9592 12.3353 18.4581 12.235C18.8572 12.1347 19.5556 12.3353 19.8549 11.533C19.9547 11.1318 19.7551 10.7307 20.1542 10.831L23.4467 11.0316C24.0454 11.0316 24.644 10.129 24.644 10.0287C23.3469 10.831 20.4535 9.62754 20.0544 10.4298C19.5556 10.0287 18.7574 10.2293 18.8571 10.9313Z" fill="#0FA0DB"/>
<path fill-rule="evenodd" clip-rule="evenodd" d="M20.1542 11.2321L22.6485 11.533C22.8481 11.533 23.4467 11.2321 23.2472 11.1318L19.9547 10.9313C20.0544 11.0316 20.0544 11.1318 20.1542 11.2321Z" fill="#0FA0DB"/>
<path fill-rule="evenodd" clip-rule="evenodd" d="M17.7596 13.1376C17.8594 12.8367 18.0589 12.6361 18.3583 12.6361C18.9569 12.5358 19.4558 12.8367 19.8549 12.3353C20.254 11.8338 20.0544 11.3324 19.8549 11.1318C19.8549 11.3324 19.8549 11.4327 19.7551 11.7336C19.4558 12.5358 18.7574 12.4356 18.3583 12.4356C17.8594 12.5358 17.7596 12.6361 17.6599 12.8367V13.1376H17.7596Z" fill="#0FA0DB"/>
<path fill-rule="evenodd" clip-rule="evenodd" d="M21.6508 11.9341C21.9501 12.0344 22.6485 11.6333 22.449 11.6333L20.1542 11.3324C20.1542 11.4327 20.1542 11.533 20.1542 11.6333V11.7335L21.6508 11.9341Z" fill="#0FA0DB"/>
<path fill-rule="evenodd" clip-rule="evenodd" d="M17.7596 13.5387C17.8594 13.4384 17.8594 13.2378 18.1587 13.1375C18.3583 13.0373 18.5578 13.0373 18.7574 13.0373C20.1542 13.0373 20.0544 12.8367 20.0544 12.7364C20.0544 12.7364 19.6553 12.5358 19.5556 12.6361C19.1565 12.7364 18.4581 12.6361 18.2585 12.7364C17.8594 12.8367 17.7596 13.1375 17.7596 13.5387Z" fill="#0FA0DB"/>
<path fill-rule="evenodd" clip-rule="evenodd" d="M20.0544 12.1347L20.8526 12.3352C21.1519 12.3352 21.6508 12.1347 21.551 12.0344L20.1542 11.7335C20.1542 11.9341 20.1542 12.0344 20.0544 12.1347Z" fill="#0FA0DB"/>
<path fill-rule="evenodd" clip-rule="evenodd" d="M19.7551 12.5358L20.0544 12.6361C20.254 12.7364 20.8526 12.4355 20.6531 12.3352L19.9546 12.1346C19.9546 12.3352 19.8549 12.4355 19.7551 12.5358Z" fill="#0FA0DB"/>
<path fill-rule="evenodd" clip-rule="evenodd" d="M15.9637 10.9313C15.9637 11.2321 15.8639 11.2321 15.8639 11.4327C15.8639 12.1347 16.6621 12.235 17.0612 11.533V12.6361C16.9614 12.4356 16.8617 12.3353 16.3628 12.235C15.9637 12.1347 15.2653 12.3353 14.966 11.533C14.8662 11.1318 15.0657 10.7307 14.6667 10.831L11.5737 11.0316C10.975 11.0316 10.3764 10.129 10.3764 10.0287C11.6735 10.831 14.5669 9.62754 14.966 10.4298C15.1655 10.0287 16.0635 10.2293 15.9637 10.9313Z" fill="#0FA0DB"/>
<path fill-rule="evenodd" clip-rule="evenodd" d="M14.6667 11.2321L12.1723 11.5329C11.9728 11.5329 11.3742 11.2321 11.5737 11.1318L14.7664 10.8309C14.7664 11.0315 14.6667 11.1318 14.6667 11.2321Z" fill="#0FA0DB"/>
<path fill-rule="evenodd" clip-rule="evenodd" d="M17.0612 13.1376C16.9614 12.8367 16.7619 12.6361 16.4626 12.6361C15.8639 12.5358 15.3651 12.8367 14.966 12.3353C14.5669 11.8338 14.7664 11.3324 14.966 11.1318C14.966 11.3324 14.966 11.4327 15.0658 11.7336C15.3651 12.5358 16.0635 12.4356 16.4626 12.4356C16.9614 12.5358 17.0612 12.6361 17.161 12.8367V13.1376H17.0612Z" fill="#0FA0DB"/>
<path fill-rule="evenodd" clip-rule="evenodd" d="M13.1701 11.9341C12.8707 12.0344 12.1723 11.6333 12.3719 11.6333L14.6667 11.3324C14.6667 11.4327 14.6667 11.533 14.6667 11.6333V11.7335L13.1701 11.9341Z" fill="#0FA0DB"/>
<path fill-rule="evenodd" clip-rule="evenodd" d="M17.0612 13.5387C16.9615 13.4384 16.9615 13.2378 16.6621 13.1375C16.5624 13.0373 16.3628 13.0373 16.0635 13.0373C14.6667 13.0373 14.7665 12.8367 14.7665 12.7364C14.7665 12.7364 15.1655 12.5358 15.2653 12.6361C15.6644 12.7364 16.3628 12.6361 16.5624 12.7364C16.8617 12.8367 17.0612 13.1375 17.0612 13.5387Z" fill="#0FA0DB"/>
<path fill-rule="evenodd" clip-rule="evenodd" d="M14.7664 12.1347L13.9683 12.3352C13.6689 12.3352 13.1701 12.1347 13.2698 12.0344L14.6667 11.7335C14.6667 11.9341 14.6667 12.0344 14.7664 12.1347Z" fill="#0FA0DB"/>
<path fill-rule="evenodd" clip-rule="evenodd" d="M15.0657 12.5358L14.7664 12.6361C14.5669 12.7364 13.9682 12.4355 14.1678 12.3352L14.8662 12.1346C14.8662 12.3352 14.966 12.4355 15.0657 12.5358Z" fill="#0FA0DB"/>
<path fill-rule="evenodd" clip-rule="evenodd" d="M18.1587 13.4384C18.2585 13.4384 18.2585 13.5387 18.1587 13.4384C18.2585 13.5387 18.3583 13.5387 18.3583 13.5387C18.3583 13.5387 18.1587 13.639 18.1587 13.4384C18.1587 13.5387 18.1587 13.5387 18.1587 13.4384ZM17.2608 16.9484C17.0612 16.8481 16.8617 16.7479 16.6621 16.5473C16.4626 16.447 16.3628 16.1461 16.3628 15.9456C16.3628 15.6447 16.5624 15.3438 16.8617 15.2436C17.8594 14.8424 19.8549 15.1433 19.8549 13.9398C19.8549 13.639 19.356 13.2378 18.8571 13.3381C18.5578 13.2378 18.059 13.1375 17.9592 13.639C17.9592 13.7393 18.059 13.7393 18.4581 13.7393C18.3583 13.8395 18.1587 13.8395 18.059 13.8395C18.1587 13.9398 18.2585 14.0401 18.4581 14.0401C19.0567 14.0401 19.0567 13.639 19.356 13.639C19.4558 13.639 19.5556 13.639 19.5556 13.7393C19.5556 13.7393 19.6553 13.8395 19.6553 13.9398C19.6553 14.6418 17.8594 14.4413 16.8617 14.9427C16.4626 15.1433 16.1633 15.4441 16.1633 16.0458C16.1633 16.447 16.3628 16.7479 16.5624 16.9484C16.6621 17.0487 16.7619 17.149 16.9615 17.149C16.9615 17.0487 17.0612 17.0487 17.2608 16.9484ZM16.5624 19.8567C16.5624 19.957 16.5624 20.1576 16.5624 20.2579C16.7619 20.8596 17.0612 20.9599 17.2608 20.9599C17.0612 20.8596 16.7619 20.659 16.7619 20.0573C16.7619 19.957 16.7619 19.7564 16.8617 19.6562C17.161 19.255 18.5578 19.3553 18.5578 18.1519C18.5578 17.6504 18.3583 17.4499 18.059 17.2493C17.8594 17.3496 17.7596 17.3496 17.5601 17.4499C17.6599 17.4499 17.6599 17.5501 17.7596 17.5501C17.9592 17.6504 18.059 17.7507 18.1587 17.851L18.2585 17.9513V18.0516C18.2585 18.553 17.7596 18.7536 17.2608 18.9542C17.2608 18.9542 17.2608 18.9542 17.161 18.9542C17.161 18.9542 17.0612 18.9542 17.0612 19.0544C17.0612 19.0544 17.0612 19.0544 16.9615 19.0544C16.9615 19.0544 16.9615 19.0544 16.8617 19.0544C16.7619 19.4556 16.5624 19.6562 16.5624 19.8567Z" fill="#0FA0DB"/>
<path fill-rule="evenodd" clip-rule="evenodd" d="M16.6621 13.4384C16.5624 13.4384 16.5624 13.5387 16.6621 13.4384C16.5624 13.5387 16.4626 13.5387 16.4626 13.5387C16.4626 13.5387 16.6621 13.639 16.6621 13.4384C16.6621 13.5387 16.6621 13.5387 16.6621 13.4384ZM16.263 14.9427C15.5646 14.8424 14.8662 14.6418 14.8662 13.9398C14.8662 13.639 15.3651 13.2378 15.8639 13.3381C16.1633 13.2378 16.6621 13.1375 16.7619 13.639C16.7619 13.7393 16.6621 13.7393 16.263 13.7393C16.3628 13.8395 16.5624 13.8395 16.6621 13.8395C16.5624 13.9398 16.4626 14.0401 16.263 14.0401C15.6644 14.0401 15.6644 13.639 15.3651 13.639C15.2653 13.639 15.1655 13.639 15.1655 13.7393C15.1655 13.7393 15.0658 13.8395 15.0658 13.9398C15.0658 14.4413 15.9637 14.4413 16.7619 14.6418C16.5624 14.7421 16.3628 14.7421 16.263 14.8424C16.4626 14.8424 16.3628 14.8424 16.263 14.9427ZM16.8617 19.255C16.4626 19.0544 16.1633 18.8539 16.1633 18.2522C16.1633 17.0487 17.5601 17.2493 18.059 16.6476C18.2585 16.5473 18.3583 16.2464 18.3583 16.0458C18.3583 15.745 18.1587 15.4441 17.8594 15.3438C17.7596 15.3438 17.7596 15.3438 17.6599 15.2436C17.8594 15.2436 18.1587 15.1433 18.3583 15.1433C18.6576 15.3438 18.7574 15.6447 18.7574 16.0458C18.7574 16.447 18.5578 16.7479 18.3583 16.9484C17.9592 17.2493 17.4603 17.3496 17.0612 17.5501C16.8617 17.6504 16.7619 17.7507 16.6621 17.851L16.5624 17.9513V18.0516C16.5624 18.4527 16.8617 18.6533 17.2608 18.7536C17.161 19.0544 17.0612 19.1547 16.8617 19.255ZM18.2585 19.8567C18.2585 19.957 18.2585 20.1576 18.2585 20.2579C18.059 20.8596 17.7596 20.9599 17.5601 20.9599C17.7596 20.8596 18.059 20.659 18.059 20.0573C18.059 19.957 18.059 19.7564 17.9592 19.6562C17.8594 19.5559 17.7596 19.4556 17.6599 19.4556C17.7596 19.4556 17.8594 19.3553 17.9592 19.3553C18.059 19.4556 18.1587 19.6562 18.2585 19.8567Z" fill="#0FA0DB"/>
<path fill-rule="evenodd" clip-rule="evenodd" d="M17.5601 19.4556C17.5601 20.9599 17.4603 22.1633 17.4603 22.1633C17.4603 22.1633 17.3605 21.0602 17.3605 19.5559C17.3605 19.5559 17.4603 19.5559 17.5601 19.4556ZM17.5601 17.4498C17.5601 17.9513 17.5601 18.3524 17.5601 18.8539C17.4603 18.8539 17.3605 18.9541 17.2608 18.9541V18.8539C17.2608 18.4527 17.2608 18.0516 17.2608 17.6504C17.3605 17.5501 17.4603 17.5501 17.5601 17.4498ZM17.5601 15.1433C17.5601 15.6447 17.5601 16.2464 17.5601 16.7478C17.4603 16.7478 17.3605 16.8481 17.2608 16.8481C17.2608 16.2464 17.2608 15.745 17.2608 15.1433C17.3605 15.2435 17.4603 15.2435 17.5601 15.1433ZM17.6599 11.5329C17.6599 11.8338 17.6599 13.0372 17.6599 14.5415C17.5601 14.5415 17.3605 14.6418 17.2608 14.6418C17.2608 13.1375 17.2608 11.9341 17.2608 11.6332C17.2608 11.5329 17.3605 11.4327 17.4603 11.4327C17.5601 11.3324 17.6599 11.4327 17.6599 11.5329Z" fill="#0FA0DB"/>
<path fill-rule="evenodd" clip-rule="evenodd" d="M17.3606 9.62756C17.7596 9.62756 18.059 9.92842 18.059 10.3296C18.059 10.7307 17.7596 11.0316 17.3606 11.0316C16.9615 11.0316 16.6621 10.7307 16.6621 10.3296C16.7619 9.92842 17.0612 9.62756 17.3606 9.62756Z" fill="#0FA0DB"/>
<path fill-rule="evenodd" clip-rule="evenodd" d="M16.9614 11.3324H17.8594C17.9592 11.3324 18.059 11.2321 18.059 11.1318C18.059 11.0316 17.9592 10.9313 17.8594 10.9313H16.9614C16.8617 10.9313 16.7619 11.0316 16.7619 11.1318C16.7619 11.2321 16.8617 11.3324 16.9614 11.3324Z" fill="#0FA0DB"/>
</g>
<defs>
<clipPath id="clip0">
<rect width="88" height="35" fill="white"/>
</clipPath>
</defs>
</svg>
