<svg width="16" height="14" viewBox="0 0 16 14" fill="none" xmlns="http://www.w3.org/2000/svg">
<path fill-rule="evenodd" clip-rule="evenodd" d="M6.82946 1.14596C7.33482 0.219474 8.66516 0.219475 9.17052 1.14596L14.9245 11.6949C15.4091 12.5834 14.766 13.6667 13.7539 13.6667H2.24604C1.23397 13.6667 0.590881 12.5834 1.07552 11.6949L6.82946 1.14596ZM7.39681 10.6667C7.39681 10.2985 7.69529 9.99999 8.06348 9.99999C8.43167 9.99999 8.73015 10.2985 8.73015 10.6667C8.73015 11.0349 8.43167 11.3333 8.06348 11.3333C7.69529 11.3333 7.39681 11.0349 7.39681 10.6667ZM8.06348 4.99999C7.69529 4.99999 7.39681 5.29847 7.39681 5.66666V8.33333C7.39681 8.70152 7.69529 8.99999 8.06348 8.99999C8.43167 8.99999 8.73015 8.70152 8.73015 8.33333V5.66666C8.73015 5.29847 8.43167 4.99999 8.06348 4.99999Z" fill="#BD0303"/>
</svg>
