<?xml version="1.0" encoding="UTF-8"?>
<svg width="30px" height="29px" viewBox="0 0 30 29" version="1.1" xmlns="http://www.w3.org/2000/svg" xmlns:xlink="http://www.w3.org/1999/xlink">
    <!-- Generator: Sketch 51.3 (57544) - http://www.bohemiancoding.com/sketch -->
    <title>Group 23</title>
    <desc>Created with Sketch.</desc>
    <defs></defs>
    <g id="Page-1" stroke="none" stroke-width="1" fill="none" fill-rule="evenodd">
        <g id="Desktop-HD-Copy-2" transform="translate(-1440.000000, -4607.000000)" fill-rule="nonzero">
            <g id="Group-23" transform="translate(1440.564828, 4607.000000)">
                <ellipse id="Oval" fill="#55ACEE" cx="14.495429" cy="14.373913" rx="14.4951724" ry="14.373913"></ellipse>
                <path d="M23.2079255,10.1666435 C22.5911752,10.4354609 21.9277324,10.6172783 21.2319641,10.6984783 C21.9423559,10.2801217 22.4875283,9.61816522 22.7448497,8.82810435 C22.0801241,9.21569565 21.3435641,9.49686957 20.5603117,9.64842609 C19.9327862,8.99151304 19.0387034,8.58097391 18.0486703,8.58097391 C16.1491614,8.58097391 14.6085683,10.0952783 14.6085683,11.9623739 C14.6085683,12.2274087 14.6390979,12.4853826 14.6981048,12.7330174 C11.8390924,12.5920522 9.30410483,11.2459478 7.60727172,9.19955652 C7.31121103,9.69886087 7.14137379,10.2801217 7.14137379,10.899713 C7.14137379,12.0725739 7.74914483,13.108 8.67170483,13.7142261 C8.10806069,13.6968261 7.57725517,13.5447652 7.11366621,13.2908261 C7.11340966,13.3052 7.11340966,13.3195739 7.11340966,13.3336957 C7.11340966,14.9720696 8.29970483,16.3386 9.87313655,16.6490261 C9.58477241,16.7266957 9.28024552,16.7678 8.96699586,16.7678 C8.74482207,16.7678 8.52957517,16.7468696 8.31971586,16.7075304 C8.7573931,18.0506087 10.0275807,19.028287 11.5332828,19.0557739 C10.3557103,19.9628435 8.87258483,20.5032522 7.26041379,20.5032522 C6.98333793,20.5032522 6.70882759,20.4873652 6.44021793,20.4558435 C7.96182621,21.4156174 9.77051586,21.9751913 11.7131255,21.9751913 C18.0407172,21.9751913 21.5010869,16.8227739 21.5010869,12.354 C21.5010869,12.207487 21.4977517,12.0614783 21.4910814,11.9167304 C22.16376,11.4401217 22.7469021,10.8447391 23.2079255,10.1666435 Z" id="Shape" fill="#F1F2F2"></path>
            </g>
        </g>
    </g>
</svg>