<?xml version="1.0" encoding="UTF-8"?>
<svg width="29px" height="29px" viewBox="0 0 29 29" version="1.1" xmlns="http://www.w3.org/2000/svg" xmlns:xlink="http://www.w3.org/1999/xlink">
    <!-- Generator: Sketch 52.5 (67469) - http://www.bohemiancoding.com/sketch -->
    <title>Group 6</title>
    <desc>Created with Sketch.</desc>
    <defs>
        <polygon id="path-1" points="0 0.00415768421 28.3917477 0.00415768421 28.3917477 28.9389474 0 28.9389474"></polygon>
    </defs>
    <g id="Symbols" stroke="none" stroke-width="1" fill="none" fill-rule="evenodd">
        <g id="footer" transform="translate(-1484.000000, -121.000000)">
            <g id="Group-6" transform="translate(1484.000000, 121.000000)">
                <g id="Group-3" transform="translate(0.000000, 0.056901)">
                    <mask id="mask-2" fill="white">
                        <use xlink:href="#path-1"></use>
                    </mask>
                    <g id="Clip-2"></g>
                    <path d="M14.1958679,0.00415768421 C22.0360533,0.00415768421 28.3917477,6.48141453 28.3917477,14.4715556 C28.3917477,22.4616356 22.0360533,28.9389535 14.1958679,28.9389535 C6.35568242,28.9389535 -1.19813643e-05,22.4616356 -1.19813643e-05,14.4715556 C-1.19813643e-05,6.48141453 6.35568242,0.00415768421 14.1958679,0.00415768421" id="Fill-1" fill="#D42428" mask="url(#mask-2)"></path>
                </g>
                <path d="M12.9782198,17.1647093 L12.9782198,11.6343177 L17.0935189,14.3996356 L12.9782198,17.1647093 Z M21.6246312,11.7366419 C21.6246312,10.5238314 20.6605507,9.54082295 19.4711607,9.54082295 L9.36775546,9.54082295 C8.17860506,9.54082295 7.2147043,10.5240756 7.2147043,11.7366419 L7.2147043,17.6248019 C7.2147043,18.8376124 8.17878478,19.8206208 9.36775546,19.8206208 L19.470981,19.8206208 C20.6606106,19.8206208 21.6244515,18.8373682 21.6244515,17.6248019 L21.6244515,11.7366419 L21.6246312,11.7366419 Z" id="Fill-4" fill="#FFFFFF"></path>
            </g>
        </g>
    </g>
</svg>